<svg viewBox="0 0 330 200" xmlns="http://www.w3.org/2000/svg"><g><g><g><g><g><line x1="45" y1="180" x2="40" y2="180" style="visibility: inherit;" fill="rgb(0, 0, 0)" stroke="rgb(204, 204, 204)" stroke-width="1px"></line><line x1="45" y1="157.5" x2="40" y2="157.5" style="visibility: inherit;" fill="rgb(0, 0, 0)" stroke="rgb(204, 204, 204)" stroke-width="1px"></line><line x1="45" y1="135" x2="40" y2="135" style="visibility: inherit;" fill="rgb(0, 0, 0)" stroke="rgb(204, 204, 204)" stroke-width="1px"></line><line x1="45" y1="112.5" x2="40" y2="112.5" style="visibility: inherit;" fill="rgb(0, 0, 0)" stroke="rgb(204, 204, 204)" stroke-width="1px"></line><line x1="45" y1="90.00000000000001" x2="40" y2="90.00000000000001" style="visibility: inherit;" fill="rgb(0, 0, 0)" stroke="rgb(204, 204, 204)" stroke-width="1px"></line><line x1="45" y1="67.5" x2="40" y2="67.5" style="visibility: inherit;" fill="rgb(0, 0, 0)" stroke="rgb(204, 204, 204)" stroke-width="1px"></line><line x1="45" y1="45.00000000000003" x2="40" y2="45.00000000000003" style="visibility: inherit;" fill="rgb(0, 0, 0)" stroke="rgb(204, 204, 204)" stroke-width="1px"></line><line x1="45" y1="22.50000000000003" x2="40" y2="22.50000000000003" style="visibility: inherit;" fill="rgb(0, 0, 0)" stroke="rgb(204, 204, 204)" stroke-width="1px"></line><line x1="45" y1="0" x2="40" y2="0" style="visibility: inherit;" fill="rgb(0, 0, 0)" stroke="rgb(204, 204, 204)" stroke-width="1px"></line></g><g transform="translate(35, 0)"><text x="0" y="180" dx="0em" dy="0.3em" style="text-anchor: end; visibility: hidden; font-family: &quot;Helvetica Neue&quot;, sans-serif; font-size: 12px; font-weight: 200;" fill="rgb(50, 49, 63)" stroke="none" stroke-width="1px">0.018</text><text x="0" y="157.5" dx="0em" dy="0.3em" style="text-anchor: end; visibility: inherit; font-family: &quot;Helvetica Neue&quot;, sans-serif; font-size: 12px; font-weight: 200;" fill="rgb(50, 49, 63)" stroke="none" stroke-width="1px">0.02</text><text x="0" y="135" dx="0em" dy="0.3em" style="text-anchor: end; visibility: inherit; font-family: &quot;Helvetica Neue&quot;, sans-serif; font-size: 12px; font-weight: 200;" fill="rgb(50, 49, 63)" stroke="none" stroke-width="1px">0.022</text><text x="0" y="112.5" dx="0em" dy="0.3em" style="text-anchor: end; visibility: inherit; font-family: &quot;Helvetica Neue&quot;, sans-serif; font-size: 12px; font-weight: 200;" fill="rgb(50, 49, 63)" stroke="none" stroke-width="1px">0.024</text><text x="0" y="90.00000000000001" dx="0em" dy="0.3em" style="text-anchor: end; visibility: inherit; font-family: &quot;Helvetica Neue&quot;, sans-serif; font-size: 12px; font-weight: 200;" fill="rgb(50, 49, 63)" stroke="none" stroke-width="1px">0.026</text><text x="0" y="67.5" dx="0em" dy="0.3em" style="text-anchor: end; visibility: inherit; font-family: &quot;Helvetica Neue&quot;, sans-serif; font-size: 12px; font-weight: 200;" fill="rgb(50, 49, 63)" stroke="none" stroke-width="1px">0.028</text><text x="0" y="45.00000000000003" dx="0em" dy="0.3em" style="text-anchor: end; visibility: inherit; font-family: &quot;Helvetica Neue&quot;, sans-serif; font-size: 12px; font-weight: 200;" fill="rgb(50, 49, 63)" stroke="none" stroke-width="1px">0.03</text><text x="0" y="22.50000000000003" dx="0em" dy="0.3em" style="text-anchor: end; visibility: inherit; font-family: &quot;Helvetica Neue&quot;, sans-serif; font-size: 12px; font-weight: 200;" fill="rgb(50, 49, 63)" stroke="none" stroke-width="1px">0.032</text><text x="0" y="0" dx="0em" dy="0.3em" style="text-anchor: end; visibility: hidden; font-family: &quot;Helvetica Neue&quot;, sans-serif; font-size: 12px; font-weight: 200;" fill="rgb(50, 49, 63)" stroke="none" stroke-width="1px">0.034</text></g><line x1="45" y1="0" x2="45" y2="180" fill="rgb(0, 0, 0)" stroke="rgb(204, 204, 204)" stroke-width="1px"></line></g></g><g transform="translate(45, 0)" clip-path="url(#clip_0)"><clipPath id="clip_0"><rect width="285" height="180"></rect></clipPath><g><g><g><line x1="0" y1="0" x2="0" y2="180" fill="rgb(0, 0, 0)" stroke="rgb(60, 60, 60)" stroke-width="1px" opacity="0.25"></line><line x1="23.75" y1="0" x2="23.75" y2="180" fill="rgb(0, 0, 0)" stroke="rgb(60, 60, 60)" stroke-width="1px" opacity="0.25"></line><line x1="47.5" y1="0" x2="47.5" y2="180" fill="rgb(0, 0, 0)" stroke="rgb(60, 60, 60)" stroke-width="1px" opacity="0.25"></line><line x1="71.25" y1="0" x2="71.25" y2="180" fill="rgb(0, 0, 0)" stroke="rgb(60, 60, 60)" stroke-width="1px" opacity="0.25"></line><line x1="95" y1="0" x2="95" y2="180" fill="rgb(0, 0, 0)" stroke="rgb(60, 60, 60)" stroke-width="1px" opacity="0.25"></line><line x1="118.75" y1="0" x2="118.75" y2="180" fill="rgb(0, 0, 0)" stroke="rgb(60, 60, 60)" stroke-width="1px" opacity="0.25"></line><line x1="142.5" y1="0" x2="142.5" y2="180" fill="rgb(0, 0, 0)" stroke="rgb(60, 60, 60)" stroke-width="1px" opacity="0.25"></line><line x1="166.25" y1="0" x2="166.25" y2="180" fill="rgb(0, 0, 0)" stroke="rgb(60, 60, 60)" stroke-width="1px" opacity="0.25"></line><line x1="190" y1="0" x2="190" y2="180" fill="rgb(0, 0, 0)" stroke="rgb(60, 60, 60)" stroke-width="1px" opacity="0.25"></line><line x1="213.75" y1="0" x2="213.75" y2="180" fill="rgb(0, 0, 0)" stroke="rgb(60, 60, 60)" stroke-width="1px" opacity="0.25"></line><line x1="237.5" y1="0" x2="237.5" y2="180" fill="rgb(0, 0, 0)" stroke="rgb(60, 60, 60)" stroke-width="1px" opacity="0.25"></line><line x1="261.25" y1="0" x2="261.25" y2="180" fill="rgb(0, 0, 0)" stroke="rgb(60, 60, 60)" stroke-width="1px" opacity="0.25"></line><line x1="285" y1="0" x2="285" y2="180" fill="rgb(0, 0, 0)" stroke="rgb(60, 60, 60)" stroke-width="1px" opacity="0.25"></line></g><g><line x1="0" y1="180" x2="285" y2="180" fill="rgb(0, 0, 0)" stroke="rgb(60, 60, 60)" stroke-width="1px" opacity="0.25"></line><line x1="0" y1="157.5" x2="285" y2="157.5" fill="rgb(0, 0, 0)" stroke="rgb(60, 60, 60)" stroke-width="1px" opacity="0.25"></line><line x1="0" y1="135" x2="285" y2="135" fill="rgb(0, 0, 0)" stroke="rgb(60, 60, 60)" stroke-width="1px" opacity="0.25"></line><line x1="0" y1="112.5" x2="285" y2="112.5" fill="rgb(0, 0, 0)" stroke="rgb(60, 60, 60)" stroke-width="1px" opacity="0.25"></line><line x1="0" y1="90.00000000000001" x2="285" y2="90.00000000000001" fill="rgb(0, 0, 0)" stroke="rgb(60, 60, 60)" stroke-width="1px" opacity="0.25"></line><line x1="0" y1="67.5" x2="285" y2="67.5" fill="rgb(0, 0, 0)" stroke="rgb(60, 60, 60)" stroke-width="1px" opacity="0.25"></line><line x1="0" y1="45.00000000000003" x2="285" y2="45.00000000000003" fill="rgb(0, 0, 0)" stroke="rgb(60, 60, 60)" stroke-width="1px" opacity="0.25"></line><line x1="0" y1="22.50000000000003" x2="285" y2="22.50000000000003" fill="rgb(0, 0, 0)" stroke="rgb(60, 60, 60)" stroke-width="1px" opacity="0.25"></line><line x1="0" y1="0" x2="285" y2="0" fill="rgb(0, 0, 0)" stroke="rgb(60, 60, 60)" stroke-width="1px" opacity="0.25"></line></g></g></g><g><g><line x1="0" y1="382.4999999999999" x2="285" y2="382.4999999999999" fill="rgb(0, 0, 0)" stroke="rgb(153, 153, 153)" stroke-width="1.5px"></line></g></g><g><g><line x1="23.75" y1="0" x2="23.75" y2="180" fill="rgb(0, 0, 0)" stroke="rgb(153, 153, 153)" stroke-width="1.5px"></line></g></g><g><g><g><g><g><path stroke="rgb(255, 112, 67)" stroke-width="2px" d="M29.924999999999997,-31.5671037301303L30.400000000000002,6.191030907174621L30.875,13.765123360481255L31.35,-33.24957246461199L32.775,-16.14594153321238L33.25,38.34492802299613L33.725,2.5000667745759984L34.199999999999996,48.960896953389266L34.675000000000004,12.392860558679814L35.15,14.406439698602384L35.625,10.7191078568342L36.1,64.41505321771197L36.574999999999996,64.4765339359315L37.050000000000004,68.81955962847732L37.525,95.81843593186557L38,60.740108953906855L38.475,34.88688179252324L38.949999999999996,-2.341358347859483L39.425000000000004,33.50012148244795L39.900000000000006,53.11400104398989L40.375,46.772220747835576L40.85,82.62424178535514L41.324999999999996,74.72002831215067L41.8,72.01315440149679L42.275000000000006,35.12799784028152L42.75,81.08975868325419L43.225,100.01220677005483L43.699999999999996,81.39728722903425L44.175,77.25748332776408L44.650000000000006,70.98874422805584L45.125,26.998338564853555L45.6,70.65891032210693L46.074999999999996,94.01640335398722L46.55,42.078824457886384L47.025000000000006,43.06734661303517L47.5,68.60303399749601L47.975,60.99177728017743L48.45,72.98438659265092L48.925,100.91263158446168L49.4,113.17184933767858L49.875,90.60420359667965L50.35,93.23683359770135L50.825,84.63830010472512L51.3,93.96054382699074L51.775,115.29761040554955L52.24999999999999,122.49298577366201L52.725,134.10291937653994L53.2,89.91679830947342L53.675,94.13572241275803L54.15,89.61777057891665L54.62500000000001,61.832904944691464L55.1,111.62072956107471L55.575,114.61484015460262L56.05,98.99574852273138L56.525,111.8812388034777L57,97.52304975552056L57.475,83.8225758335751L57.95,71.78651388059627L58.425,29.417897093716732L58.9,77.80889790709222L59.375,101.96175225946548L59.849999999999994,83.9796585790708L60.325,80.01715237363545L60.800000000000004,106.72211177327848L61.275,90.84477093624247L61.75,104.1584658432434L62.224999999999994,85.95339463254398L62.7,85.58749306112875L63.175000000000004,66.59736728167744L63.65,94.1447757586611L64.125,73.60194904534654L64.6,97.90169138716843L65.075,120.05898680691234L65.55,121.74200579616019L66.02499999999999,95.1834442919051L66.5,93.97368517253133L66.975,69.40119783123333L67.45,100.78424058878423L67.925,79.84603444501163L68.39999999999999,95.76903383293394L68.875,98.86099799936203L69.35000000000001,79.63808724710458L69.825,120.04978592353532L70.3,143.86947055999917L70.77499999999999,127.5790275206833L71.25,91.44412046347075L71.725,74.92763557686813L72.2,71.01746902557854L72.675,67.3078178506651L73.14999999999999,90.58583670953266L73.62500000000001,104.17973715275141L74.10000000000001,112.8871791703082L74.575,101.9691130827413L75.05,110.97010686609424L75.525,113.82542089142368L76,119.3480166600225L76.475,118.54979799277052L76.95,125.91801292351761L77.425,116.39380193741246L77.89999999999999,117.83887072349268L78.375,110.25572984036609L78.85000000000001,104.8577392018843L79.325,109.52269394201093L79.80000000000001,96.08774759770664L80.275,92.46705108673117L80.75,76.45003416413512L81.225,71.53799808486966L81.7,77.40456555166644L82.175,90.0501941450167L82.64999999999999,97.11071001337339L83.125,113.08567376045208L83.6,120.43995935385121L84.07499999999999,120.98129843869623L84.55000000000001,109.45795486240871L85.025,122.68543572645953L85.5,124.41357429427842L85.97500000000001,128.8740793129977L86.45,124.69797531581975L86.925,124.79206915090714L87.39999999999999,135.6844654702558L87.875,133.34548784186924L88.35,129.67005229974086L88.82499999999999,123.90917088529045L89.30000000000001,130.38119912708152L89.775,134.30155628510917L90.25,125.04613388233545L90.72500000000001,135.96451878489947L91.2,121.5601883005613L91.675,120.99825596341573L92.14999999999999,124.27959768789462L92.625,109.97674820612342L93.1,122.32724912637752L93.57499999999999,112.5723256106632L94.05000000000001,111.57406923535208L94.525,113.27562093652931L95,113.75316993843103L95.47500000000001,123.11525528997532L95.95,130.50295723450395L96.425,131.3527422724498L96.9,138.59475675692156L97.375,125.89223889839646L97.85,126.74223389972447L98.32499999999999,134.213711614902L98.8,134.8920021030278L99.27499999999999,138.8928347273452L99.75,132.71202565394537L100.22500000000001,129.53944557108102L100.7,123.62017800329694L101.175,130.74225868981222L101.65,139.69780585140668L102.125,143.23486871105837L102.6,143.6620592941785L103.075,140.11661058634186L103.55,134.33205716889898L104.02499999999999,130.20590219993477L104.49999999999999,141.19677601962735L104.97500000000001,143.9351051745382L105.45,132.83286568954986L105.925,128.25762682369594L106.4,134.35239901072526L106.875,133.33345116631236L107.35,133.0064049971464L107.825,137.4307433284737L108.3,138.4872275228749L108.77499999999999,126.7777933186561L109.25000000000001,127.88344220854458L109.72500000000001,122.86894709788334L110.2,125.88636902524571L110.675,122.73025118591508L111.15,131.03524440248083L111.625,137.47744585555355L112.1,141.82686354506941L112.575,140.28515868359165L113.05,147.84555544241283L113.52499999999999,149.81739213188897L114,142.68261195045955L114.47500000000001,133.8323325638309L114.95,121.85543384250013L115.42500000000001,132.11237038580185L115.9,137.02091444526673L116.375,139.32384460565186L116.85,144.11401142565447L117.325,140.60126893900653L117.8,148.13774903525606L118.27499999999999,147.64123240804486L118.75,150.47071946976072L119.225,146.30070230106998L119.69999999999999,149.16176892513326L120.17500000000001,147.3959795888918L120.65,135.41326844731913L121.125,140.61275682026115L121.60000000000001,132.92551121070366L122.075,137.0657231566571L122.55,125.93242602987661L123.02499999999999,135.79978306557882L123.5,124.91439760903205L123.975,126.81355043458751L124.44999999999999,135.995344112562L124.92500000000001,144.09564377531223L125.4,143.37613312402257L125.875,150.1429811969333L126.35000000000001,147.38410168021517L126.825,150.116205748198L127.3,150.26287754552217L127.77499999999999,138.71687445894867L128.25,136.31283487442727L128.725,142.01807067134138L129.2,138.33034915678596L129.675,139.2123987180167L130.15,143.87730977101168L130.625,139.51129660703566L131.1,133.20035722522633L131.575,129.69317081075133L132.04999999999998,127.77853304893503L132.525,137.19808138758378L133,131.79554694056768L133.475,137.87991614288242L133.95,143.7367048704395L134.425,142.90326933376605L134.9,133.97843978740343L135.375,137.98744386099318L135.85,141.16233854390703L136.325,143.09207740513992L136.79999999999998,127.01891547792265L137.275,131.59987913878626L137.75,131.80174178517976L138.225,130.47278174243638L138.70000000000002,120.04053374965352L139.175,113.57545114063838L139.65,123.74605547042859L140.125,123.69403919221266L140.6,126.22568013901298L141.075,135.9541186027812L141.54999999999998,141.45914096880477L142.025,140.6534544184716L142.5,141.4508727300114L142.97500000000002,135.88100106167474L143.45,128.4049054869871L143.925,133.3420663409746L144.4,129.30184434105854L144.875,135.73294038474504L145.35,143.49797560214964L145.82500000000002,136.5308695566056L146.29999999999998,133.5025560278534L146.775,137.60883257054323L147.25000000000003,137.51572407938858L147.725,141.05328145717277L148.20000000000002,131.8870267828983L148.67499999999998,135.61654565099963L149.15,129.57771432318742L149.625,136.3192339132336L150.1,140.17106014580176L150.575,143.2417658602634L151.05,140.9481307870411L151.52499999999998,134.69137707389967L152,134.13246442548973L152.47500000000002,141.50762956394277L152.95,144.4998087722273L153.425,136.4617860086686L153.9,137.27611236381094L154.375,133.46877325390315L154.85,136.3339847851666L155.32500000000002,126.09955386244492L155.79999999999998,129.62259264095565L156.275,130.13305003228152L156.75,129.59475552160956L157.225,129.2125522873963L157.70000000000002,123.65975791407618L158.175,132.56734468306894L158.65,132.1097589672553L159.125,129.75202799683495L159.60000000000002,127.65771765020897L160.075,128.4634735718811L160.55,132.69698222192793L161.02499999999998,141.1630929542343L161.5,137.8563551400757L161.975,130.96433095900153L162.45,130.9695000142928L162.92499999999998,125.76471545941092L163.4,115.7009583481935L163.875,127.09375182651203L164.35,130.86720017261933L164.82500000000002,126.49711016665479L165.29999999999998,133.64803674877035L165.775,130.2517337012908L166.25,116.17858665636903L166.725,126.66875552357273L167.2,128.87239589524887L167.675,128.95274249006883L168.14999999999998,131.16209845119462L168.625,131.98208210095015L169.10000000000002,134.5984991772428L169.575,125.52843697419493L170.05,125.52836705029443L170.525,133.25491431373615L171,137.7508062155143L171.475,135.7745837662277L171.95000000000002,134.31968224010808L172.42499999999998,139.1203509984132L172.9,129.71317557053064L173.37499999999997,131.75216700170216L173.85,125.83263808807001L174.32500000000002,134.21387586337488L174.79999999999998,127.5113152315745L175.275,114.20661992433844L175.75,119.44775535376777L176.225,104.59954989678803L176.7,110.69962286339484L177.175,124.7055754565375L177.64999999999998,129.89361426253183L178.125,127.97743813555873L178.60000000000002,116.6010897464242L179.075,123.3662852484993L179.55,129.46166019672225L180.025,130.04645664861243L180.5,133.28119536114002L180.975,141.60716287715593L181.45000000000002,138.83346513613083L181.92499999999998,143.78876232030404L182.4,144.0486766646648L182.87500000000003,136.90427259357836L183.35,127.68185426743071L183.82500000000002,137.83158113033318L184.29999999999998,138.4525020314499L184.775,138.84836464484005L185.25,133.99546859776657L185.725,131.68890437850763L186.2,131.71914378624805L186.675,133.15533780945327L187.14999999999998,121.04509514655462L187.625,129.7470618238198L188.10000000000002,133.1857714474289L188.575,137.05926199526124L189.05,135.2839351208242L189.525,135.40037779576969L190,136.37885008643502L190.475,138.84428443396348L190.95000000000002,141.28818475088036L191.42499999999998,141.12084172147843L191.9,133.0480892850657L192.375,133.73887437693477L192.85,135.14593040562988L193.32500000000002,136.65068313847377L193.8,140.61727126163478L194.275,135.65992402864836L194.75,134.11457988818495L195.22500000000002,138.05603538870818L195.7,134.77003073644642L196.175,135.9991666358829L196.64999999999998,133.6588971499872L197.125,130.39986219610404L197.6,133.953673394654L198.075,136.22466384746662L198.54999999999998,137.58761854099055L199.025,134.34861727730527L199.5,135.22317045584975L199.975,133.9243103632668L200.45000000000002,136.7697818618619L200.92499999999998,135.01463467130685L201.4,133.29606515466946L201.875,124.97346396624908L202.35,123.4461974002711L202.825,115.96895304458093L203.3,127.40158398977965L203.77499999999998,129.84952384252577L204.25,132.16708956074254L204.72500000000002,125.56853533036431L205.2,131.39352292714665L205.675,135.3085075074324L206.15,130.2393295469218L206.625,128.52068825676045L207.1,124.87459276833536L207.57500000000002,133.42883053999185L208.04999999999998,135.48393230784558L208.525,128.3992955753125L208.99999999999997,126.70502753072483L209.475,132.30547634371223L209.95000000000002,134.96565555100503L210.42499999999998,130.97247534730946L210.9,135.8455129116113L211.375,139.6870197370252L211.85,136.6440768250585L212.325,131.28765229635002L212.8,124.7731717482362L213.27499999999998,131.10571064383709L213.75,128.5235378910954L214.22500000000002,122.23181209831567L214.7,131.59424475949487L215.175,129.91661551369117L215.65,133.65129502280288L216.125,128.8555453071817L216.6,130.86083067803526L217.07500000000002,133.3102819374141L217.54999999999998,139.39568236773832L218.025,131.73860369059815L218.50000000000003,131.8491690259181L218.975,138.1603026927115L219.45000000000002,145.82273300979145L219.92499999999998,134.77199940528635L220.4,134.74564398763277L220.875,136.8931747999054L221.35,138.1892370001234L221.825,137.7919997165058L222.3,121.71444197830286L222.77499999999998,130.12157961181833L223.25,134.02027395786067L223.72500000000002,136.34983461303247L224.2,145.52812291653595L224.675,130.95980916006351L225.15,136.11576490749707L225.625,134.43612948447338L226.1,132.26025458657665L226.57500000000002,121.3585317819352L227.04999999999998,134.1884618961236L227.525,132.10386724552043L228,131.60507613438682L228.475,134.525391058733L228.95000000000002,140.2761753032267L229.425,134.11519292024732L229.9,133.60789250152087L230.375,140.49091040084826L230.85000000000002,140.954946079791L231.325,137.56346853014256L231.8,127.21449680737507L232.27499999999998,132.23325980521352L232.75,132.62399939636657L233.225,130.46351548546716L233.7,127.08911664941408L234.17499999999998,130.34835366999204L234.65,130.29005144444164L235.125,128.37730586920415L235.6,136.54871714350125L236.07500000000002,140.4029459118041L236.54999999999998,130.73286527301025L237.025,130.41083812806104L237.5,127.97480895425736L237.975,126.24358753446256L238.45,129.4377493118257L238.925,126.62024804979626L239.39999999999998,122.02411026674545L239.875,125.4567732195141L240.35000000000002,129.76507635593902L240.825,116.20688991505205L241.3,112.16445065592707L241.775,123.6367776739894L242.25,116.66746118654598L242.725,119.38509123170252L243.20000000000002,124.38371911879705L243.67499999999998,123.30747203669745L244.15,125.13510606671451L244.62499999999997,130.40754226288246L245.1,113.97862382943062L245.57500000000002,123.52503495344297L246.04999999999998,136.45034644412266L246.525,135.36868560854953L247,132.85408700880026L247.475,135.72851838395965L247.95,139.40275759533625L248.425,138.55884484818927L248.89999999999998,133.92083919716686L249.375,131.73090458168275L249.85000000000002,130.50724205525927L250.325,131.5331436225904L250.8,136.74138076777058L251.275,131.78691438689702L251.75,129.0549544355564L252.225,129.89835569180806L252.70000000000002,129.1191237951383L253.17499999999998,125.39868538290649L253.65,131.03475791788333L254.12500000000003,131.66456395433087L254.6,128.1360448392972L255.07500000000002,135.258171125814L255.54999999999998,138.56470333162827L256.025,138.01316400095158L256.5,138.2225211171766L256.97499999999997,139.0419222762263L257.45,144.50454284847234L257.925,130.58068130225215L258.4,128.07325313276215L258.875,129.26169217250444L259.35,130.4377048723203L259.825,134.80371475293052L260.3,132.41235074444896L260.77500000000003,139.72122359749247" style="fill: none;" fill="none"></path></g></g></g></g><g opacity="0.2"><g><g><g><path stroke="rgb(255, 112, 67)" stroke-width="2px" d="M26.124999999999996,-50.17790693789718L26.6,10.885766409337549L27.075,16.47498708218339L27.55,13.629833869636087L28.025,-135.99237643182272L28.5,-20.13720788061616L28.975,22.67168618738654L29.45,-20.378774330019922L29.924999999999997,-52.298486530780764L30.400000000000002,62.78384959325196L30.875,25.120920203626184L31.35,-103.75172115862364L31.825,35.227001812309055L32.3,-31.58328339457509L32.775,-16.14339865744111L33.25,120.07824394851923L33.725,-51.26604560762641L34.199999999999996,118.65122493356466L34.675000000000004,-42.45876085013148L35.15,17.426794096827535L35.625,5.188125818967848L36.1,144.95883386582136L36.574999999999996,64.56875491887332L37.050000000000004,75.33409416675568L37.525,136.31673546507955L38,8.122630119323759L38.475,-3.8929538056254103L38.949999999999996,-58.183714114129515L39.425000000000004,87.2623386606574L39.900000000000006,82.53481954336166L40.375,37.25955046713355L40.85,136.4022727869451L41.324999999999996,62.8637081757188L41.8,67.95284355059268L42.275000000000006,-20.199736878275843L42.75,150.0323998555541L43.225,128.39587887749076L43.699999999999996,53.474907930940404L44.175,71.04777747765185L44.650000000000006,61.585635580122485L45.125,-38.987269923090906L45.6,136.14976795390248L46.074999999999996,129.05264290049672L46.55,-35.827543884515734L47.025000000000006,44.55012984573844L47.5,106.90656507387757L47.975,49.574892204254894L48.45,90.97330056130887L48.925,142.8049990721047L49.4,131.5606759674847L49.875,56.752734985202565L50.35,97.18577859923244L50.825,71.74049986526371L51.3,107.94390941038728L51.775,147.30321027338505L52.24999999999999,133.28604882583022L52.725,151.51781978085637L53.2,23.63761670887473L53.675,100.46410856768489L54.15,82.84084282815456L54.62500000000001,20.155606493353872L55.1,186.30246648564932L55.575,119.10600604489446L56.05,75.56711107492447L56.525,131.20947422459722L57,75.98576618358493L57.475,63.271864950656905L57.95,53.73242095112802L58.425,-34.13502808660266L58.9,150.39539912715554L59.375,138.19103378802538L59.849999999999994,57.00651805847885L60.325,74.07339306548238L60.800000000000004,146.77955087274313L61.275,67.0287596806884L61.75,124.12900820374489L62.224999999999994,58.64578781649472L62.7,85.03864070400596L63.175000000000004,38.11217861250046L63.65,135.4658884741366L64.125,42.78770897537473L64.6,134.35130489990115L65.075,153.2949299365282L65.55,124.26653428003192L66.02499999999999,55.345602035522475L66.5,92.15904649347068L66.975,32.542466819286375L67.45,147.85880472511053L67.925,48.43872522935274L68.39999999999999,119.65353291481733L68.875,103.49894424900413L69.35000000000001,50.803721118718414L69.825,180.66733393818137L70.3,179.5989975146949L70.77499999999999,103.1433629617095L71.25,37.24175987765196L71.725,50.152908246964245L72.2,65.15221919864418L72.675,61.743341088295L73.14999999999999,125.50286499783397L73.62500000000001,124.57058781757951L74.10000000000001,125.94834219664335L74.575,85.59201395139098L75.05,124.47159754112363L75.525,118.10839192941785L76,127.63191031292081L76.475,117.35246999189258L76.95,136.97033531963825L77.425,102.10748545825481L77.89999999999999,120.00647390261292L78.375,98.88101851567626L78.85000000000001,96.7607532441616L79.325,116.5201260522008L79.80000000000001,75.93532808125019L80.275,87.03600632026792L80.75,52.42450878024103L81.225,64.16994396597148L81.7,86.20441675186157L82.175,109.01863703504205L82.64999999999999,107.70148381590843L83.125,137.04811938107014L83.6,131.4713877439499L84.07499999999999,121.79330706596375L84.55000000000001,92.17293949797751L85.025,142.5266570225358L85.5,127.00578214600682L85.97500000000001,135.5648368410766L86.45,118.43381932005286L86.925,124.93320990353823L87.39999999999999,152.02305994927883L87.875,129.83702139928937L88.35,124.15689898654819L88.82499999999999,115.2678487636149L89.30000000000001,140.08924148976803L89.775,140.18209202215075L90.25,111.16300027817488L90.72500000000001,152.34209613874555L91.2,99.953692574054L91.675,120.15535745769739L92.14999999999999,129.2016102746129L92.625,88.52247398346663L93.1,140.8530005067587L93.57499999999999,97.93994033709168L94.05000000000001,110.07668467238545L94.525,115.82794848829508L95,114.4694934412837L95.47500000000001,137.15838331729174L95.95,141.58451015129685L96.425,132.6274198293686L96.9,149.45777848362923L97.375,106.83846211060882L97.85,128.01722640171647L98.32499999999999,145.42092818766832L98.8,135.90943783521652L99.27499999999999,144.89408366382122L99.75,123.44081204384565L100.22500000000001,124.7805754467845L100.7,114.74127665162086L101.175,141.42537971958518L101.65,153.1311265937984L102.125,148.54046300053596L102.6,144.30284516885877L103.075,134.79843752458692L103.55,125.65522704273462L104.02499999999999,124.01666974648833L104.49999999999999,157.68308674916625L104.97500000000001,148.04259890690446L105.45,116.17950646206737L105.925,121.39476852491498L106.4,143.4945572912693L106.875,131.805029399693L107.35,132.51583574339747L107.825,144.06725082546473L108.3,140.07195381447673L108.77499999999999,109.21364201232791L109.25000000000001,129.5419155433774L109.72500000000001,115.34720443189144L110.2,130.41250191628933L110.675,117.99607442691922L111.15,143.4927342273295L111.625,147.1407480351627L112.1,148.35099007934332L112.575,137.97260139137506L113.05,159.1861505806446L113.52499999999999,152.77514716610312L114,131.9804416783154L114.47500000000001,120.55691348388791L114.95,103.89008576050401L115.42500000000001,147.4977752007544L115.9,144.38373053446412L116.375,142.77823984622955L116.85,151.29926165565848L117.325,135.33215520903468L117.8,159.44246917963028L118.27499999999999,146.89645746722817L118.75,154.71495006233454L119.225,140.04567654803395L119.69999999999999,153.45336886122823L120.17500000000001,144.74729558452964L120.65,117.43920173496008L121.125,148.4119893796742L121.60000000000001,121.3946427963674L122.075,143.27604107558727L122.55,109.23248033970594L123.02499999999999,150.60081861913204L123.5,108.58631942421198L123.975,129.6622796729207L124.44999999999999,149.76803462952375L124.92500000000001,156.24609326943755L125.4,142.29686714708805L125.875,160.29325330629945L126.35000000000001,143.24578240513802L126.825,154.21436185017228L127.3,150.48288524150848L127.77499999999999,121.39786982908845L128.25,132.70677549764514L128.725,150.57592436671257L129.2,132.79876688495278L129.675,140.53547305986285L130.15,150.87467635050416L130.625,132.9622768610716L131.1,123.73394815251231L131.575,124.43239118903875L132.04999999999998,124.90657640621066L132.525,151.32740389555693L133,123.69174527004361L133.475,147.00646994635463L133.95,152.52188796177506L134.425,141.6531160287559L134.9,120.5911954678595L135.375,144.00094997137785L135.85,145.92468056827784L136.325,145.9866856969893L136.79999999999998,102.90917258709669L137.275,138.47132463008165L137.75,132.10453575477004L138.225,128.47934167832136L138.70000000000002,104.39216176047921L139.175,103.87782722711563L139.65,139.00196196511388L140.125,123.61601477488875L140.6,130.0231415592134L141.075,150.54677629843354L141.54999999999998,149.71667451784015L142.025,139.4449245929718L142.5,142.64700019732118L142.97500000000002,127.52619355916977L143.45,117.19076212495565L143.925,140.74780762195587L144.4,123.24151134118438L144.875,145.3795844502747L145.35,155.1455284282565L145.82500000000002,126.0802104882896L146.29999999999998,128.960085734725L146.775,143.768247384578L147.25000000000003,137.3760613426566L147.725,146.359617523849L148.20000000000002,118.13764477148652L148.67499999999998,141.2108239531517L149.15,120.51946733146906L149.625,146.4315132983029L150.1,145.94879949465394L150.575,147.84782443195581L151.05,137.5076781772077L151.52499999999998,125.30624650418758L152,133.2940954528749L152.47500000000002,152.57037727162242L152.95,148.9880775846541L153.425,124.4047518633306L153.9,138.49760189652443L154.375,127.75776458904147L154.85,140.63180208206177L155.32500000000002,110.74790747836232L155.79999999999998,134.90715080872178L156.275,130.89873611927032L156.75,128.78731375560164L157.225,128.6392474360764L157.70000000000002,115.33056635409594L158.175,145.9287248365581L158.65,131.4233803935349L159.125,126.21543154120445L159.60000000000002,124.51625213027L160.075,129.67210745438933L160.55,139.04724519699812L161.02499999999998,153.86225905269384L161.5,132.89624841883779L161.975,120.62629468739033L162.45,130.97725359722972L162.92499999999998,117.95753862708807L163.4,100.6053226813674L163.875,144.1829420439899L164.35,136.52737269178033L164.82500000000002,119.94197515770793L165.29999999999998,144.3744266219437L165.775,125.1572791300714L166.25,95.0688660889864L166.725,142.40400882437825L167.2,132.17785645276308L167.675,129.0732623822987L168.14999999999998,134.4761323928833L168.625,133.21205757558346L169.10000000000002,138.52312479168177L169.575,111.92334366962314L170.05,125.52826216444373L170.525,144.84473520889878L171,144.49464406818151L171.475,132.8102500922978L171.95000000000002,132.1373299509287L172.42499999999998,146.32135413587093L172.9,115.60241242870688L173.37499999999997,134.81065414845943L173.85,116.9533447176218L174.32500000000002,146.78573252633214L174.79999999999998,117.45747428387403L175.275,94.2495769634843L175.75,127.30945849791169L176.225,82.32724171131849L176.7,119.84973231330514L177.175,145.7145043462515L177.64999999999998,137.67567247152328L178.125,125.10317394509912L178.60000000000002,99.53656716272235L179.075,133.51407850161195L179.55,138.6047226190567L180.025,130.92365132644773L180.5,138.1333034299314L180.975,154.0961141511798L181.45000000000002,134.67291852459311L181.92499999999998,151.22170809656382L182.4,144.438548181206L182.87500000000003,126.18766648694873L183.35,113.84822677820921L183.82500000000002,153.0561714246869L184.29999999999998,139.38388338312507L184.775,139.4421585649252L185.25,126.71612452715635L185.725,128.2290580496192L186.2,131.76450289785862L186.675,135.30962884426117L187.14999999999998,102.87973115220666L187.625,142.80001183971763L188.10000000000002,138.34383588284254L188.575,142.8694978170097L189.05,132.62094480916858L189.525,135.57504180818796L190,137.84655852243304L190.475,142.54243595525622L190.95000000000002,144.95403522625566L191.42499999999998,140.86982717737556L191.9,120.93896063044667L192.375,134.77505201473832L192.85,137.25651444867253L193.32500000000002,138.90781223773956L193.8,146.56715344637632L194.275,128.2239031791687L194.75,131.79656367748976L195.22500000000002,143.968218639493L195.7,129.84102375805378L196.175,137.84287048503757L196.64999999999998,130.14849292114377L197.125,125.5113097652793L197.6,139.2843901924789L198.075,139.63114952668548L198.54999999999998,139.63205058127642L199.025,129.4901153817773L199.5,136.53500022366643L199.975,131.9760202243924L200.45000000000002,141.03798910975456L200.92499999999998,132.3819138854742L201.4,130.7182108797133L201.875,112.48956218361855L202.35,121.1552975513041L202.825,104.7530865110457L203.3,144.55053040757775L203.77499999999998,133.52143362164497L204.25,135.64343813806772L204.72500000000002,115.670703984797L205.2,140.13100432232022L205.675,141.18098437786102L206.15,122.63556260615587L206.625,125.94272632151842L207.1,119.4054495356977L207.57500000000002,146.26018719747663L208.04999999999998,138.5665849596262L208.525,117.77234047651291L208.99999999999997,124.16362546384335L209.475,140.70614956319332L209.95000000000002,138.9559243619442L210.42499999999998,124.98270504176617L210.9,143.15506925806403L211.375,145.44927997514606L211.85,132.0796624571085L212.325,123.25301550328732L212.8,115.00145092606544L213.27499999999998,140.6045189872384L213.75,124.65027876198292L214.22500000000002,112.79422340914607L214.7,145.63789375126362L215.175,127.40017164498568L215.65,139.2533142864704L216.125,121.66192073374987L216.6,133.86875873431563L217.07500000000002,136.9844588264823L217.54999999999998,148.5237830132246L218.025,120.2529856748879L218.50000000000003,132.015017028898L218.975,147.6270031929016L219.45000000000002,157.3163784854114L219.92499999999998,118.19589899852872L220.4,134.7061108611524L220.875,140.11447101831436L221.35,140.13333030045033L221.825,137.19614379107952L222.3,97.59810537099838L222.77499999999998,142.7322860620916L223.25,139.86831547692418L223.72500000000002,139.84417559579015L224.2,159.29555537179112L224.675,109.10733852535486L225.15,143.84969852864742L225.625,131.91667634993792L226.1,128.99644223973155L226.57500000000002,105.0059475749731L227.04999999999998,153.43335706740618L227.525,128.97697526961565L228,130.85688946768641L228.475,138.90586344525218L228.95000000000002,148.90235166996717L229.425,124.87371934577823L229.9,132.8469418734312L230.375,150.8154372498393L230.85000000000002,141.6509995982051L231.325,132.47625220566988L231.8,111.69103922322392L232.27499999999998,139.7614043019712L232.75,133.21010878309608L233.225,127.22278961911798L233.7,122.02751839533448L234.17499999999998,135.23720920085907L234.65,130.20259810611606L235.125,125.5081875063479L235.6,148.8058340549469L236.07500000000002,146.18428906425834L236.54999999999998,116.22774431481957L237.025,129.92779741063714L237.5,124.32076519355178L237.975,123.64675540477037L238.45,134.22899197787046L238.925,122.39399615675211L239.39999999999998,115.12990359216928L239.875,130.6057676486671L240.35000000000002,136.22753106057644L240.825,95.86961025372148L241.3,106.10079176723957L241.775,140.84526820108294L242.25,106.21348645538092L242.725,123.46153629943728L243.20000000000002,131.8816609494388L243.67499999999998,121.69310141354799L244.15,127.87655711174011L244.62499999999997,138.3161965571344L245.1,89.33524617925286L245.57500000000002,137.84465163946152L246.04999999999998,155.83831368014216L246.525,133.7461943551898L247,129.0821891091764L247.475,140.04016544669867L247.95,144.9141164124012L248.425,137.29297572746873L248.89999999999998,126.96383072063327L249.375,128.44600265845656L249.85000000000002,128.67174826562405L250.325,133.07199597358704L250.8,144.55373648554087L251.275,124.3552148155868L251.75,124.9570145085454L252.225,131.16345757618546L252.70000000000002,127.9502759501338L253.17499999999998,119.81802776455879L253.65,139.4888667203486L254.12500000000003,132.6092730090022L254.6,122.84326616674662L255.07500000000002,145.9413605555892L255.54999999999998,143.52450164034963L256.025,137.18585500493646L256.5,138.53655679151416L256.97499999999997,140.2710240148008L257.45,152.69847370684147L257.925,109.69488898292184L258.4,124.31211087852716L258.875,131.0443507321179L259.35,132.20172392204404L259.825,141.35272957384586L260.3,128.82530473172665L260.77500000000003,150.6845328770578" style="fill: none;" fill="none"></path></g></g></g></g></g></g><g transform="translate(45, 180)" clip-path="url(#clip_1)"><clipPath id="clip_1"><rect width="285" height="20"></rect></clipPath><g><g><line x1="0" y1="0" x2="0" y2="5" style="visibility: inherit;" fill="rgb(0, 0, 0)" stroke="rgb(204, 204, 204)" stroke-width="1px"></line><line x1="23.75" y1="0" x2="23.75" y2="5" style="visibility: inherit;" fill="rgb(0, 0, 0)" stroke="rgb(204, 204, 204)" stroke-width="1px"></line><line x1="47.5" y1="0" x2="47.5" y2="5" style="visibility: inherit;" fill="rgb(0, 0, 0)" stroke="rgb(204, 204, 204)" stroke-width="1px"></line><line x1="71.25" y1="0" x2="71.25" y2="5" style="visibility: inherit;" fill="rgb(0, 0, 0)" stroke="rgb(204, 204, 204)" stroke-width="1px"></line><line x1="95" y1="0" x2="95" y2="5" style="visibility: inherit;" fill="rgb(0, 0, 0)" stroke="rgb(204, 204, 204)" stroke-width="1px"></line><line x1="118.75" y1="0" x2="118.75" y2="5" style="visibility: inherit;" fill="rgb(0, 0, 0)" stroke="rgb(204, 204, 204)" stroke-width="1px"></line><line x1="142.5" y1="0" x2="142.5" y2="5" style="visibility: inherit;" fill="rgb(0, 0, 0)" stroke="rgb(204, 204, 204)" stroke-width="1px"></line><line x1="166.25" y1="0" x2="166.25" y2="5" style="visibility: inherit;" fill="rgb(0, 0, 0)" stroke="rgb(204, 204, 204)" stroke-width="1px"></line><line x1="190" y1="0" x2="190" y2="5" style="visibility: inherit;" fill="rgb(0, 0, 0)" stroke="rgb(204, 204, 204)" stroke-width="1px"></line><line x1="213.75" y1="0" x2="213.75" y2="5" style="visibility: inherit;" fill="rgb(0, 0, 0)" stroke="rgb(204, 204, 204)" stroke-width="1px"></line><line x1="237.5" y1="0" x2="237.5" y2="5" style="visibility: inherit;" fill="rgb(0, 0, 0)" stroke="rgb(204, 204, 204)" stroke-width="1px"></line><line x1="261.25" y1="0" x2="261.25" y2="5" style="visibility: inherit;" fill="rgb(0, 0, 0)" stroke="rgb(204, 204, 204)" stroke-width="1px"></line><line x1="285" y1="0" x2="285" y2="5" style="visibility: inherit;" fill="rgb(0, 0, 0)" stroke="rgb(204, 204, 204)" stroke-width="1px"></line></g><g transform="translate(0, 8)"><text x="0" y="0" dx="0em" dy="0.95em" style="text-anchor: middle; visibility: hidden; font-family: &quot;Helvetica Neue&quot;, sans-serif; font-size: 12px; font-weight: 200;" fill="rgb(50, 49, 63)" stroke="none" stroke-width="1px">-50</text><text x="23.75" y="0" dx="0em" dy="0.95em" style="text-anchor: middle; visibility: hidden; font-family: &quot;Helvetica Neue&quot;, sans-serif; font-size: 12px; font-weight: 200;" fill="rgb(50, 49, 63)" stroke="none" stroke-width="1px">0</text><text x="47.5" y="0" dx="0em" dy="0.95em" style="text-anchor: middle; visibility: hidden; font-family: &quot;Helvetica Neue&quot;, sans-serif; font-size: 12px; font-weight: 200;" fill="rgb(50, 49, 63)" stroke="none" stroke-width="1px">50</text><text x="71.25" y="0" dx="0em" dy="0.95em" style="text-anchor: middle; visibility: hidden; font-family: &quot;Helvetica Neue&quot;, sans-serif; font-size: 12px; font-weight: 200;" fill="rgb(50, 49, 63)" stroke="none" stroke-width="1px">100</text><text x="95" y="0" dx="0em" dy="0.95em" style="text-anchor: middle; visibility: hidden; font-family: &quot;Helvetica Neue&quot;, sans-serif; font-size: 12px; font-weight: 200;" fill="rgb(50, 49, 63)" stroke="none" stroke-width="1px">150</text><text x="118.75" y="0" dx="0em" dy="0.95em" style="text-anchor: middle; visibility: hidden; font-family: &quot;Helvetica Neue&quot;, sans-serif; font-size: 12px; font-weight: 200;" fill="rgb(50, 49, 63)" stroke="none" stroke-width="1px">200</text><text x="142.5" y="0" dx="0em" dy="0.95em" style="text-anchor: middle; visibility: hidden; font-family: &quot;Helvetica Neue&quot;, sans-serif; font-size: 12px; font-weight: 200;" fill="rgb(50, 49, 63)" stroke="none" stroke-width="1px">250</text><text x="166.25" y="0" dx="0em" dy="0.95em" style="text-anchor: middle; visibility: hidden; font-family: &quot;Helvetica Neue&quot;, sans-serif; font-size: 12px; font-weight: 200;" fill="rgb(50, 49, 63)" stroke="none" stroke-width="1px">300</text><text x="190" y="0" dx="0em" dy="0.95em" style="text-anchor: middle; visibility: hidden; font-family: &quot;Helvetica Neue&quot;, sans-serif; font-size: 12px; font-weight: 200;" fill="rgb(50, 49, 63)" stroke="none" stroke-width="1px">350</text><text x="213.75" y="0" dx="0em" dy="0.95em" style="text-anchor: middle; visibility: hidden; font-family: &quot;Helvetica Neue&quot;, sans-serif; font-size: 12px; font-weight: 200;" fill="rgb(50, 49, 63)" stroke="none" stroke-width="1px">400</text><text x="237.5" y="0" dx="0em" dy="0.95em" style="text-anchor: middle; visibility: hidden; font-family: &quot;Helvetica Neue&quot;, sans-serif; font-size: 12px; font-weight: 200;" fill="rgb(50, 49, 63)" stroke="none" stroke-width="1px">450</text><text x="261.25" y="0" dx="0em" dy="0.95em" style="text-anchor: middle; visibility: hidden; font-family: &quot;Helvetica Neue&quot;, sans-serif; font-size: 12px; font-weight: 200;" fill="rgb(50, 49, 63)" stroke="none" stroke-width="1px">500</text><text x="285" y="0" dx="0em" dy="0.95em" style="text-anchor: middle; visibility: hidden; font-family: &quot;Helvetica Neue&quot;, sans-serif; font-size: 12px; font-weight: 200;" fill="rgb(50, 49, 63)" stroke="none" stroke-width="1px">550</text></g><line x1="0" y1="0" x2="285" y2="0" fill="rgb(0, 0, 0)" stroke="rgb(204, 204, 204)" stroke-width="1px"></line></g></g></g></g></svg>