<svg viewBox="0 0 330 200" xmlns="http://www.w3.org/2000/svg"><g><g><g><g><g><line x1="38" y1="180" x2="33" y2="180" style="visibility: inherit;" fill="rgb(0, 0, 0)" stroke="rgb(204, 204, 204)" stroke-width="1px"></line><line x1="38" y1="165" x2="33" y2="165" style="visibility: inherit;" fill="rgb(0, 0, 0)" stroke="rgb(204, 204, 204)" stroke-width="1px"></line><line x1="38" y1="149.99999999999997" x2="33" y2="149.99999999999997" style="visibility: inherit;" fill="rgb(0, 0, 0)" stroke="rgb(204, 204, 204)" stroke-width="1px"></line><line x1="38" y1="134.99999999999994" x2="33" y2="134.99999999999994" style="visibility: inherit;" fill="rgb(0, 0, 0)" stroke="rgb(204, 204, 204)" stroke-width="1px"></line><line x1="38" y1="119.99999999999994" x2="33" y2="119.99999999999994" style="visibility: inherit;" fill="rgb(0, 0, 0)" stroke="rgb(204, 204, 204)" stroke-width="1px"></line><line x1="38" y1="105.0000000000001" x2="33" y2="105.0000000000001" style="visibility: inherit;" fill="rgb(0, 0, 0)" stroke="rgb(204, 204, 204)" stroke-width="1px"></line><line x1="38" y1="90.00000000000009" x2="33" y2="90.00000000000009" style="visibility: inherit;" fill="rgb(0, 0, 0)" stroke="rgb(204, 204, 204)" stroke-width="1px"></line><line x1="38" y1="75.00000000000007" x2="33" y2="75.00000000000007" style="visibility: inherit;" fill="rgb(0, 0, 0)" stroke="rgb(204, 204, 204)" stroke-width="1px"></line><line x1="38" y1="60.00000000000004" x2="33" y2="60.00000000000004" style="visibility: inherit;" fill="rgb(0, 0, 0)" stroke="rgb(204, 204, 204)" stroke-width="1px"></line><line x1="38" y1="45.00000000000003" x2="33" y2="45.00000000000003" style="visibility: inherit;" fill="rgb(0, 0, 0)" stroke="rgb(204, 204, 204)" stroke-width="1px"></line><line x1="38" y1="30.00000000000003" x2="33" y2="30.00000000000003" style="visibility: inherit;" fill="rgb(0, 0, 0)" stroke="rgb(204, 204, 204)" stroke-width="1px"></line><line x1="38" y1="15" x2="33" y2="15" style="visibility: inherit;" fill="rgb(0, 0, 0)" stroke="rgb(204, 204, 204)" stroke-width="1px"></line><line x1="38" y1="0" x2="33" y2="0" style="visibility: inherit;" fill="rgb(0, 0, 0)" stroke="rgb(204, 204, 204)" stroke-width="1px"></line></g><g transform="translate(28, 0)"><text x="0" y="180" dx="0em" dy="0.3em" style="text-anchor: end; visibility: hidden; font-family: &quot;Helvetica Neue&quot;, sans-serif; font-size: 12px; font-weight: 200;" fill="rgb(50, 49, 63)" stroke="none" stroke-width="1px">0.77</text><text x="0" y="165" dx="0em" dy="0.3em" style="text-anchor: end; visibility: inherit; font-family: &quot;Helvetica Neue&quot;, sans-serif; font-size: 12px; font-weight: 200;" fill="rgb(50, 49, 63)" stroke="none" stroke-width="1px">0.78</text><text x="0" y="149.99999999999997" dx="0em" dy="0.3em" style="text-anchor: end; visibility: hidden; font-family: &quot;Helvetica Neue&quot;, sans-serif; font-size: 12px; font-weight: 200;" fill="rgb(50, 49, 63)" stroke="none" stroke-width="1px">0.79</text><text x="0" y="134.99999999999994" dx="0em" dy="0.3em" style="text-anchor: end; visibility: inherit; font-family: &quot;Helvetica Neue&quot;, sans-serif; font-size: 12px; font-weight: 200;" fill="rgb(50, 49, 63)" stroke="none" stroke-width="1px">0.8</text><text x="0" y="119.99999999999994" dx="0em" dy="0.3em" style="text-anchor: end; visibility: hidden; font-family: &quot;Helvetica Neue&quot;, sans-serif; font-size: 12px; font-weight: 200;" fill="rgb(50, 49, 63)" stroke="none" stroke-width="1px">0.81</text><text x="0" y="105.0000000000001" dx="0em" dy="0.3em" style="text-anchor: end; visibility: inherit; font-family: &quot;Helvetica Neue&quot;, sans-serif; font-size: 12px; font-weight: 200;" fill="rgb(50, 49, 63)" stroke="none" stroke-width="1px">0.82</text><text x="0" y="90.00000000000009" dx="0em" dy="0.3em" style="text-anchor: end; visibility: hidden; font-family: &quot;Helvetica Neue&quot;, sans-serif; font-size: 12px; font-weight: 200;" fill="rgb(50, 49, 63)" stroke="none" stroke-width="1px">0.83</text><text x="0" y="75.00000000000007" dx="0em" dy="0.3em" style="text-anchor: end; visibility: inherit; font-family: &quot;Helvetica Neue&quot;, sans-serif; font-size: 12px; font-weight: 200;" fill="rgb(50, 49, 63)" stroke="none" stroke-width="1px">0.84</text><text x="0" y="60.00000000000004" dx="0em" dy="0.3em" style="text-anchor: end; visibility: hidden; font-family: &quot;Helvetica Neue&quot;, sans-serif; font-size: 12px; font-weight: 200;" fill="rgb(50, 49, 63)" stroke="none" stroke-width="1px">0.85</text><text x="0" y="45.00000000000003" dx="0em" dy="0.3em" style="text-anchor: end; visibility: inherit; font-family: &quot;Helvetica Neue&quot;, sans-serif; font-size: 12px; font-weight: 200;" fill="rgb(50, 49, 63)" stroke="none" stroke-width="1px">0.86</text><text x="0" y="30.00000000000003" dx="0em" dy="0.3em" style="text-anchor: end; visibility: hidden; font-family: &quot;Helvetica Neue&quot;, sans-serif; font-size: 12px; font-weight: 200;" fill="rgb(50, 49, 63)" stroke="none" stroke-width="1px">0.87</text><text x="0" y="15" dx="0em" dy="0.3em" style="text-anchor: end; visibility: inherit; font-family: &quot;Helvetica Neue&quot;, sans-serif; font-size: 12px; font-weight: 200;" fill="rgb(50, 49, 63)" stroke="none" stroke-width="1px">0.88</text><text x="0" y="0" dx="0em" dy="0.3em" style="text-anchor: end; visibility: hidden; font-family: &quot;Helvetica Neue&quot;, sans-serif; font-size: 12px; font-weight: 200;" fill="rgb(50, 49, 63)" stroke="none" stroke-width="1px">0.89</text></g><line x1="38" y1="0" x2="38" y2="180" fill="rgb(0, 0, 0)" stroke="rgb(204, 204, 204)" stroke-width="1px"></line></g></g><g transform="translate(38, 0)" clip-path="url(#clip_0)"><clipPath id="clip_0"><rect width="292" height="180"></rect></clipPath><g><g><g><line x1="0" y1="0" x2="0" y2="180" fill="rgb(0, 0, 0)" stroke="rgb(60, 60, 60)" stroke-width="1px" opacity="0.25"></line><line x1="24.333333333333332" y1="0" x2="24.333333333333332" y2="180" fill="rgb(0, 0, 0)" stroke="rgb(60, 60, 60)" stroke-width="1px" opacity="0.25"></line><line x1="48.666666666666664" y1="0" x2="48.666666666666664" y2="180" fill="rgb(0, 0, 0)" stroke="rgb(60, 60, 60)" stroke-width="1px" opacity="0.25"></line><line x1="73" y1="0" x2="73" y2="180" fill="rgb(0, 0, 0)" stroke="rgb(60, 60, 60)" stroke-width="1px" opacity="0.25"></line><line x1="97.33333333333333" y1="0" x2="97.33333333333333" y2="180" fill="rgb(0, 0, 0)" stroke="rgb(60, 60, 60)" stroke-width="1px" opacity="0.25"></line><line x1="121.66666666666667" y1="0" x2="121.66666666666667" y2="180" fill="rgb(0, 0, 0)" stroke="rgb(60, 60, 60)" stroke-width="1px" opacity="0.25"></line><line x1="146" y1="0" x2="146" y2="180" fill="rgb(0, 0, 0)" stroke="rgb(60, 60, 60)" stroke-width="1px" opacity="0.25"></line><line x1="170.33333333333334" y1="0" x2="170.33333333333334" y2="180" fill="rgb(0, 0, 0)" stroke="rgb(60, 60, 60)" stroke-width="1px" opacity="0.25"></line><line x1="194.66666666666666" y1="0" x2="194.66666666666666" y2="180" fill="rgb(0, 0, 0)" stroke="rgb(60, 60, 60)" stroke-width="1px" opacity="0.25"></line><line x1="219" y1="0" x2="219" y2="180" fill="rgb(0, 0, 0)" stroke="rgb(60, 60, 60)" stroke-width="1px" opacity="0.25"></line><line x1="243.33333333333334" y1="0" x2="243.33333333333334" y2="180" fill="rgb(0, 0, 0)" stroke="rgb(60, 60, 60)" stroke-width="1px" opacity="0.25"></line><line x1="267.66666666666663" y1="0" x2="267.66666666666663" y2="180" fill="rgb(0, 0, 0)" stroke="rgb(60, 60, 60)" stroke-width="1px" opacity="0.25"></line><line x1="292" y1="0" x2="292" y2="180" fill="rgb(0, 0, 0)" stroke="rgb(60, 60, 60)" stroke-width="1px" opacity="0.25"></line></g><g><line x1="0" y1="180" x2="292" y2="180" fill="rgb(0, 0, 0)" stroke="rgb(60, 60, 60)" stroke-width="1px" opacity="0.25"></line><line x1="0" y1="165" x2="292" y2="165" fill="rgb(0, 0, 0)" stroke="rgb(60, 60, 60)" stroke-width="1px" opacity="0.25"></line><line x1="0" y1="149.99999999999997" x2="292" y2="149.99999999999997" fill="rgb(0, 0, 0)" stroke="rgb(60, 60, 60)" stroke-width="1px" opacity="0.25"></line><line x1="0" y1="134.99999999999994" x2="292" y2="134.99999999999994" fill="rgb(0, 0, 0)" stroke="rgb(60, 60, 60)" stroke-width="1px" opacity="0.25"></line><line x1="0" y1="119.99999999999994" x2="292" y2="119.99999999999994" fill="rgb(0, 0, 0)" stroke="rgb(60, 60, 60)" stroke-width="1px" opacity="0.25"></line><line x1="0" y1="105.0000000000001" x2="292" y2="105.0000000000001" fill="rgb(0, 0, 0)" stroke="rgb(60, 60, 60)" stroke-width="1px" opacity="0.25"></line><line x1="0" y1="90.00000000000009" x2="292" y2="90.00000000000009" fill="rgb(0, 0, 0)" stroke="rgb(60, 60, 60)" stroke-width="1px" opacity="0.25"></line><line x1="0" y1="75.00000000000007" x2="292" y2="75.00000000000007" fill="rgb(0, 0, 0)" stroke="rgb(60, 60, 60)" stroke-width="1px" opacity="0.25"></line><line x1="0" y1="60.00000000000004" x2="292" y2="60.00000000000004" fill="rgb(0, 0, 0)" stroke="rgb(60, 60, 60)" stroke-width="1px" opacity="0.25"></line><line x1="0" y1="45.00000000000003" x2="292" y2="45.00000000000003" fill="rgb(0, 0, 0)" stroke="rgb(60, 60, 60)" stroke-width="1px" opacity="0.25"></line><line x1="0" y1="30.00000000000003" x2="292" y2="30.00000000000003" fill="rgb(0, 0, 0)" stroke="rgb(60, 60, 60)" stroke-width="1px" opacity="0.25"></line><line x1="0" y1="15" x2="292" y2="15" fill="rgb(0, 0, 0)" stroke="rgb(60, 60, 60)" stroke-width="1px" opacity="0.25"></line><line x1="0" y1="0" x2="292" y2="0" fill="rgb(0, 0, 0)" stroke="rgb(60, 60, 60)" stroke-width="1px" opacity="0.25"></line></g></g></g><g><g><line x1="0" y1="1335" x2="292" y2="1335" fill="rgb(0, 0, 0)" stroke="rgb(153, 153, 153)" stroke-width="1.5px"></line></g></g><g><g><line x1="24.333333333333332" y1="0" x2="24.333333333333332" y2="180" fill="rgb(0, 0, 0)" stroke="rgb(153, 153, 153)" stroke-width="1.5px"></line></g></g><g><g><g><g><g><path stroke="rgb(255, 112, 67)" stroke-width="2px" d="M27.253333333333334,195.80093721097126L27.740000000000002,152.55933654552774L28.226666666666667,151.15320483119592L28.71333333333333,213.5166531492694L30.66,197.5681535282079L31.14666666666667,162.99395328333418L31.633333333333333,166.0932701670298L32.12,183.1173235850503L32.60666666666667,165.16821952571178L33.093333333333334,186.8928605957974L33.58,186.92994722087053L34.06666666666667,130.63326390686973L34.553333333333335,151.0083755574055L35.04,117.745543573557L35.52666666666667,147.60774186213013L36.013333333333335,156.86069526936353L36.5,158.08031790082396L36.98666666666667,121.9889347270618L37.47333333333333,124.16088526801144L37.96,116.79976540991893L38.446666666666665,82.05817645562885L38.93333333333333,106.7006021390347L39.42,132.316387167767L39.906666666666666,162.84831363990634L40.39333333333333,148.67651087589684L40.88,131.50914319178386L41.36666666666667,129.87300899618637L41.85333333333334,100.73246095620159L42.339999999999996,109.24091922845292L42.82666666666667,103.51566329876111L43.31333333333334,134.73754705358527L43.8,81.99055799407535L44.28666666666667,80.66727667126622L44.773333333333326,99.3678891061513L45.26,106.25609561316901L45.74666666666667,114.72118046677316L46.233333333333334,130.63052646495527L46.72,99.02092690455433L47.20666666666666,77.88908669416855L47.693333333333335,130.19193189849227L48.18,131.24872694916246L48.666666666666664,103.7239723830482L49.153333333333336,100.20549520426326L49.64,85.09803333621562L50.126666666666665,65.20322536669886L50.61333333333334,53.26634058500207L51.099999999999994,72.09699660030644L51.586666666666666,83.3953902094845L52.07333333333334,77.17801505144051L52.559999999999995,69.11546476969438L53.04666666666667,57.77976470165967L53.53333333333333,59.642595034680014L54.019999999999996,39.09963153710382L54.50666666666667,74.42730202025454L54.99333333333333,56.63470610228916L55.480000000000004,67.61981024889785L55.96666666666667,72.04482802479644L56.45333333333333,44.374926619107725L56.940000000000005,47.267566998228716L57.42666666666666,55.50132112468803L57.913333333333334,45.27911756494919L58.400000000000006,65.13858231341412L58.88666666666666,72.72213597557285L59.373333333333335,92.4347242084821L59.86,119.42473318384168L60.346666666666664,79.30103961352154L60.833333333333336,59.55894865824969L61.32,69.37435578247437L61.806666666666665,83.92785043084945L62.29333333333334,68.83324081042015L62.78,68.44072541200285L63.266666666666666,72.53737712265945L63.75333333333333,74.99536814905345L64.24,87.30045785079682L64.72666666666667,105.5138425205367L65.21333333333334,79.6187913521657L65.7,103.07092309621159L66.18666666666667,84.65120959655742L66.67333333333333,62.769050648071314L67.16,66.96829178944692L67.64666666666666,86.8163372219532L68.13333333333334,87.89486939554986L68.61999999999999,88.54198869970791L69.10666666666667,62.93747339789479L69.59333333333333,88.7300071367288L70.08,82.54486568264147L70.56666666666666,74.5016556232691L71.05333333333334,78.33997996148594L71.53999999999999,43.81985683141431L72.02666666666667,25.27386342822487L72.51333333333334,42.30509898268559L73,63.35417116405601L73.48666666666666,75.98361447287832L73.97333333333334,83.56128045817151L74.46000000000001,85.94183533728095L74.94666666666666,74.37375694119925L75.43333333333334,69.5989903784035L75.92,62.40200525380597L76.40666666666667,60.249858891114116L76.89333333333333,43.796115037885016L77.38000000000001,55.584530423335394L77.86666666666666,56.15937399283176L78.35333333333332,56.50428013452958L78.84,54.54517910748163L79.32666666666667,53.36971849125277L79.81333333333333,52.66444212151572L80.30000000000001,54.40732101174001L80.78666666666666,55.45304834587462L81.27333333333333,51.748359559435244L81.76,62.52195761111895L82.24666666666667,66.82003596727576L82.73333333333333,75.89708864274336L83.22,81.34332024802399L83.70666666666668,80.27893402427216L84.19333333333333,70.97601615339393L84.67999999999999,54.56393458217295L85.16666666666667,51.21489130121415L85.65333333333334,40.54121495879852L86.14,44.9673400020431L86.62666666666668,49.78905974005639L87.11333333333333,46.18392168387757L87.6,41.854758375316806L88.08666666666667,45.75546605195419L88.57333333333334,39.43160452130917L89.06,42.13549326469584L89.54666666666665,43.75782651072785L90.03333333333333,44.73122645834715L90.52,45.31526642691864L91.00666666666666,45.66569040806161L91.49333333333334,41.543819609827295L91.98,45.56890279266028L92.46666666666667,56.6482030762005L92.95333333333335,43.801202023790324L93.44,49.08937695310479L93.92666666666666,45.76411201170666L94.41333333333333,50.26712294585451L94.9,44.30467913250291L95.38666666666667,40.72721284449199L95.87333333333332,45.07893873345907L96.36,52.02209945375941L96.84666666666666,54.021915411086255L97.33333333333333,57.38788546033575L97.82000000000001,50.74321711604509L98.30666666666667,44.590335634617304L98.79333333333332,47.3968124075343L99.28,42.582492809510825L99.76666666666667,44.02602623761686L100.25333333333333,42.72610158241392L100.74,35.44794112751842L101.22666666666667,37.57925051635473L101.71333333333334,36.691955674803154L102.19999999999999,44.82382914371246L102.68666666666667,54.03507841197819L103.17333333333333,48.73153288703065L103.66,45.549405572062284L104.14666666666668,37.141923521307405L104.63333333333334,36.42955947777466L105.11999999999999,31.670015864734836L105.60666666666667,33.146414883831056L106.09333333333333,31.86617382043528L106.58,39.76231531902502L107.06666666666666,35.835714081551686L107.55333333333334,33.479753339067656L108.03999999999999,36.398337843284224L108.52666666666666,40.315533257881015L109.01333333333334,40.499805794572296L109.5,44.94249450350725L109.98666666666666,43.275982541948025L110.47333333333334,42.2760753650127L110.96000000000001,37.34397010914441L111.44666666666666,38.71686790533039L111.93333333333334,33.04240092126827L112.42,29.63772073083109L112.90666666666667,29.760957328635328L113.39333333333333,36.333104949091535L113.88000000000001,35.944268334445184L114.36666666666666,29.212760703883504L114.85333333333332,29.5059813124669L115.34,36.180119339390586L115.82666666666667,31.52035178170442L116.31333333333333,28.724491247092686L116.80000000000001,29.213019638392353L117.28666666666666,31.672217148025652L117.77333333333333,37.47986084072579L118.26,30.134116207652113L118.74666666666667,36.55700027650161L119.23333333333333,40.41073071781136L119.72,42.722968982597195L120.20666666666668,39.77818675454853L120.69333333333333,29.34706704387895L121.17999999999999,36.08477077823787L121.66666666666667,40.127393018853155L122.15333333333334,36.05476070144857L122.64,33.61118131100588L123.12666666666668,32.145033676740326L123.61333333333333,37.76355075795456L124.1,41.13466100668313L124.58666666666667,40.99128244385369L125.07333333333334,38.73917483130248L125.56,43.88611592554554L126.04666666666665,38.309994445464184L126.53333333333333,37.13040203226876L127.02,40.754771771271635L127.50666666666666,42.92939361467336L127.99333333333334,33.403835872020494L128.48,34.186706888202565L128.96666666666667,34.656429497911745L129.45333333333335,39.27038825065745L129.94,37.70663831538474L130.42666666666668,38.93446882907452L130.91333333333333,39.67116713728842L131.4,40.11318612221689L131.88666666666666,42.54444222524057L132.37333333333333,39.671070700134635L132.86,40.11312825992459L133.34666666666666,42.54440750786509L133.83333333333331,44.00317505662943L134.32,38.38022992411422L134.80666666666667,37.172543319458725L135.29333333333332,38.61401183151898L135.78,41.64493765082173L136.26666666666668,39.131367955483285L136.75333333333333,39.78930661313379L137.23999999999998,35.851908858016856L137.72666666666666,37.8216311546538L138.21333333333334,43.33558971955614L138.7,46.64396485849747L139.18666666666667,44.29686475494239L139.67333333333335,38.55644374310202L140.16,41.610396797771614L140.64666666666668,39.11064344365329L141.13333333333333,37.61079143118218L141.62,34.544799748846L142.10666666666668,37.037365689151244L142.59333333333333,40.698949965401084L143.07999999999998,38.56377534423089L143.56666666666666,41.61479575844902L144.05333333333334,43.445408006979875L144.54,40.211650169178085L145.02666666666667,36.10531499164364L145.51333333333335,33.641513885122976L146,36.49539417091768L146.48666666666668,29.543436205767108L146.97333333333333,29.704386613596938L147.46,34.133117808002055L147.9466666666667,36.790356524644864L148.43333333333334,40.550744466697324L148.92000000000002,36.308771570155045L149.4066666666667,35.92966830708329L149.89333333333332,35.702206349240214L150.38,33.399648699680995L150.86666666666667,36.35027505965223L151.35333333333332,38.120650875635164L151.84,39.18287636522473L152.32666666666665,39.82021165897859L152.81333333333333,40.202612835230894L153.3,38.26597306612871L153.78666666666666,41.436114391587665L154.27333333333334,43.33819918686305L154.76000000000002,40.14732487710805L155.24666666666664,40.398880766108476L155.73333333333332,38.38373382465525L156.22,35.00856518492995L156.70666666666665,37.315624950801606L157.19333333333333,40.86590552239133L157.68,40.830029153278645L158.16666666666666,40.80850333181104L158.65333333333334,40.795587838930516L159.14000000000001,47.286008442188944L159.62666666666667,46.848135617223846L160.11333333333334,46.58541192224476L160.60000000000002,39.929572043483404L161.08666666666664,42.43427377800052L161.57333333333332,43.937094818710705L162.06,40.50666225621674L162.54666666666665,40.61448319357379L163.03333333333333,42.84522046805472L163.52,46.349743307596725L164.00666666666666,44.12033182440172L164.49333333333334,40.616604459631276L164.98,36.348287565915626L165.46666666666667,42.451583566313246L165.95333333333335,46.11356116655179L166.44,43.97862253977496L166.92666666666668,44.86370407577539L167.41333333333336,43.22870828530907L167.89999999999998,40.08163033617569L168.38666666666666,38.19338356669573L168.87333333333333,41.39256069192788L169.35999999999999,36.81386130529336L169.84666666666666,42.730927809939885L170.33333333333334,46.28116771272778L170.82,46.24523117954706L171.30666666666667,48.38974973449211L171.79333333333335,43.17825520568559L172.28,42.21743896325498L172.76666666666668,37.30878826808964L173.25333333333336,38.69575880069749L173.73999999999998,39.52794112026231L174.22666666666666,37.86117003714756L174.71333333333334,36.86110738727871L175.2,42.7592754591312L175.68666666666667,44.13209582738912L176.17333333333335,40.62366286142364L176.66,36.35252260699079L177.14666666666668,40.28804411610483L177.63333333333333,40.48331230950657L178.12,42.76651793761434L178.60666666666668,41.97039660241225L179.0933333333333,43.65876851335776L179.57999999999998,46.83787213477859L180.06666666666666,40.08104817100394L180.5533333333333,40.359114742446195L181.04,38.35987421045789L181.52666666666667,41.49245507818512L182.01333333333332,41.205958886754985L182.5,36.70190022218972L182.98666666666668,40.49767068522431L183.47333333333333,36.27692730127126L183.96,35.91056174575303L184.4466666666667,42.18894807421563L184.93333333333334,41.62385468437307L185.42000000000002,39.11871817561402L185.9066666666667,35.44955579550509L186.39333333333332,33.24805836743977L186.88,31.927159910600523L187.36666666666667,31.13462083649705L187.85333333333332,34.99125834174205L188.34,37.30524084488911L188.82666666666665,38.693630346777354L189.31333333333333,37.36058357305666L189.8,38.72683598367783L190.28666666666666,41.71263214211709L190.77333333333334,37.00590417540701L191.26000000000002,38.51402834508784L191.74666666666664,37.25282237204297L192.23333333333332,36.496098788216045L192.72,36.042064637919935L193.20666666666665,35.76964414774221L193.69333333333333,37.77227232848918L194.18,38.973849236937184L194.66666666666666,41.860840094072756L195.15333333333334,43.59303460835406L195.64000000000001,38.13414565514901L196.12666666666667,37.024892758079574L196.61333333333334,38.525421494691585L197.10000000000002,39.42573873665884L197.58666666666664,39.96592908183899L198.07333333333332,38.12396281409363L198.56,37.018783053446356L199.04666666666665,40.6878003839783L199.53333333333333,40.7231660702308L200.02,42.91043019404887L200.50666666666666,42.05674395627295L200.99333333333334,45.87665740052776L201.48,41.670399805306914L201.96666666666667,39.14664524817434L202.45333333333335,37.63239251389487L202.94,41.0559660602473L203.42666666666668,38.77798500113866L203.91333333333336,39.57727684052708L204.39999999999998,44.38897713108031L204.88666666666666,42.94387211849187L205.37333333333333,42.07680911093877L205.85999999999999,43.722616018473644L206.34666666666666,42.54405545092783L206.83333333333334,41.83691911040037L207.32,43.57868201815057L207.80666666666667,42.45769505073409L208.29333333333335,43.95114758235081L208.78,40.51509391440072L209.26666666666668,38.453461713630674L209.75333333333336,39.38256286802215L210.23999999999998,39.940023560657124L210.72666666666666,44.60662516315833L211.21333333333334,43.07446093773876L211.7,42.15516240248701L212.18666666666667,41.60358328133589L212.67333333333335,41.27263580864542L213.16,41.07406732503088L213.64666666666668,43.12097094692891L214.13333333333333,44.349113120067784L214.62,45.08599842395111L215.10666666666668,43.362084894214405L215.5933333333333,46.65986196329271L216.07999999999998,44.306403017819235L216.56666666666666,40.728247175681844L217.0533333333333,40.74743414525301L217.54,38.5928658521421L218.02666666666667,43.79833053804933L218.51333333333332,44.75552887473992L219,40.997722689834205L219.48666666666668,43.07516416581086L219.97333333333333,42.15558433933015L220.46,39.43775596858839L220.9466666666667,39.973139420996716L221.43333333333334,38.12828901758826L221.92000000000002,37.02137877554313L222.4066666666667,42.85543829208976L222.89333333333332,42.02374881509769L223.38,48.02290502788924L223.86666666666667,42.95814838172379L224.35333333333332,39.919294394024575L224.84,40.26206247625859L225.32666666666665,38.301642850745395L225.81333333333333,39.29147155029108L226.3,35.553207820311314L226.78666666666666,35.476330057176995L227.27333333333334,37.596283874149975L227.76000000000002,36.702175689480185L228.24666666666664,36.165710778678374L228.73333333333332,35.843831832197196L229.22,39.9828296512288L229.70666666666665,35.9680226808739L230.19333333333333,37.89129944836816L230.68,36.8791850340111L231.16666666666666,38.43799686025045L231.65333333333334,43.70540914291425L232.14000000000001,42.533731325592186L232.62666666666667,39.66464416034549L233.11333333333334,35.77711138634416L233.60000000000002,35.61067219679671L234.08666666666664,37.67688915792195L234.57333333333332,34.58445838488984L235.06,37.061160870777655L235.54666666666665,38.54718236231042L236.03333333333333,39.438795257229884L236.52,37.80768251932818L237.00666666666666,38.99509535144057L237.49333333333334,35.37538210100092L237.98,39.701759812511L238.46666666666667,40.131541727350395L238.95333333333335,38.2233304014004L239.44,39.24448408068389L239.92666666666668,42.0232210003208L240.41333333333336,35.02621277826262L240.89999999999998,37.32621350680125L241.38666666666666,36.54013346907104L241.87333333333333,36.06848544643293L242.35999999999999,40.117621819770136L242.84666666666666,42.54710364377246L243.33333333333334,39.67266755125365L243.82,40.11408637059603L244.30666666666667,38.21285718734791L244.79333333333335,39.2382001522526L245.28,37.68732545634174L245.76666666666668,36.7568006387952L246.25333333333336,36.19848574826733L246.73999999999998,35.86349681395066L247.22666666666666,39.99462864028075L247.71333333333334,40.307263024012286L248.2,40.494843654250985L248.68666666666667,42.77343674446092L249.17333333333335,41.974547886520384L249.66,39.32913409690249L250.14666666666668,37.74188582313175L250.63333333333333,38.9556173337227L251.12,39.68385624007726L251.60666666666668,37.95471910903652L252.0933333333333,36.917236830412094L252.57999999999998,36.29474746323746L253.06666666666666,38.08733431778626L253.5533333333333,36.99680595566207L254.04,34.17640846353402L254.52666666666667,36.81633091796405L255.01333333333332,42.732409577542484L255.5,33.28564544974205L255.98666666666668,31.94971215998183L256.4733333333333,37.646357847899424L256.96,36.73222007372982L257.44666666666666,38.3498178840816L257.93333333333334,34.98821562058569L258.42,43.80158511118199L258.9066666666667,42.591436906552815L259.3933333333333,46.197473170695616L259.88,44.02896974226107L260.3666666666667,42.727867685200266L260.85333333333335,44.1132511630305L261.34000000000003,38.44627558795517L261.82666666666665,37.21217071776334L262.31333333333333,38.63778827050163L262.8,39.49315880214462L263.28666666666663,37.84030064627697L263.7733333333333,39.01466622760992L264.26,46.21745547539652L264.74666666666667,46.20700383714831L265.23333333333335,44.034688142132694L265.72,42.73129872512345L266.20666666666665,39.78318460006432L266.6933333333333,40.180396599882215L267.18,40.418723799773005" style="fill: none;" fill="none"></path></g></g></g></g><g opacity="0.2"><g><g><g><path stroke="rgb(255, 112, 67)" stroke-width="2px" d="M26.766666666666666,230.3068256378174L27.253333333333334,159.90974664688113L27.740000000000002,89.51266765594485L28.226666666666667,149.07943367958072L28.71333333333333,306.11910581588745L29.200000000000003,181.57037258148196L29.686666666666667,170.74005961418155L30.173333333333332,192.40068554878238L30.66,208.64619970321658L31.14666666666667,111.17329359054567L31.633333333333333,170.74005961418155L32.12,208.64619970321658L32.60666666666667,138.2491207122803L33.093333333333334,219.476512670517L33.58,186.98557376861575L34.06666666666667,46.191326379776L34.553333333333335,181.57037258148196L35.04,67.85195231437686L35.52666666666667,192.40068554878238L36.013333333333335,170.74005961418155L36.5,159.90974664688113L36.98666666666667,67.85195231437686L37.47333333333333,127.41880774497989L37.96,105.7580924034119L38.446666666666665,29.945812225341825L38.93333333333333,143.66423249244693L39.42,170.74005961418155L39.906666666666666,208.64619970321658L40.39333333333333,127.41880774497989L40.88,105.7580924034119L41.36666666666667,127.41880774497989L41.85333333333334,57.02163934707643L42.339999999999996,122.0036065578461L42.82666666666667,94.92777943611148L43.31333333333334,181.57037258148196L43.8,2.8700745105743692L44.28666666666667,78.68235468864442L44.773333333333326,127.41880774497989L45.26,116.58840537071231L45.74666666666667,127.41880774497989L46.233333333333334,154.49454545974734L46.72,51.60652756690982L47.20666666666666,46.191326379776L47.693333333333335,208.64619970321658L48.18,132.8339195251465L48.666666666666664,62.43684053421023L49.153333333333336,94.92777943611148L49.64,62.43684053421023L50.126666666666665,35.361013412475614L50.61333333333334,35.361013412475614L51.099999999999994,100.34298062324527L51.586666666666666,100.34298062324527L52.07333333333334,67.85195231437686L52.559999999999995,57.02163934707643L53.04666666666667,40.776214599609375L53.53333333333333,62.43684053421023L54.019999999999996,8.285186290740995L54.50666666666667,127.41880774497989L54.99333333333333,29.945812225341825L55.480000000000004,84.09746646881105L55.96666666666667,78.68235468864442L56.45333333333333,2.8700745105743692L56.940000000000005,51.60652756690982L57.42666666666666,67.85195231437686L57.913333333333334,29.945812225341825L58.400000000000006,94.92777943611148L58.88666666666666,84.09746646881105L59.373333333333335,122.0036065578461L59.86,159.90974664688113L60.346666666666664,19.115499258041382L60.833333333333336,29.945812225341825L61.32,84.09746646881105L61.806666666666665,105.7580924034119L62.29333333333334,46.191326379776L62.78,67.85195231437686L63.266666666666666,78.68235468864442L63.75333333333333,78.68235468864442L64.24,105.7580924034119L64.72666666666667,132.8339195251465L65.21333333333334,40.776214599609375L65.7,138.2491207122803L66.18666666666667,57.02163934707643L66.67333333333333,29.945812225341825L67.16,73.26715350151063L67.64666666666666,116.58840537071231L68.13333333333334,89.51266765594485L68.61999999999999,89.51266765594485L69.10666666666667,24.5307004451752L69.59333333333333,127.41880774497989L70.08,73.26715350151063L70.56666666666666,62.43684053421023L71.05333333333334,84.09746646881105L71.53999999999999,-7.960327863693237L72.02666666666667,-2.5451266765594482L72.51333333333334,67.85195231437686L73,94.92777943611148L73.48666666666666,94.92777943611148L73.97333333333334,94.92777943611148L74.46000000000001,89.51266765594485L74.94666666666666,57.02163934707643L75.43333333333334,62.43684053421023L75.92,51.60652756690982L76.40666666666667,57.02163934707643L76.89333333333333,19.115499258041382L77.38000000000001,73.26715350151063L77.86666666666666,57.02163934707643L78.35333333333332,57.02163934707643L78.84,51.60652756690982L79.32666666666667,51.60652756690982L79.81333333333333,51.60652756690982L80.30000000000001,57.02163934707643L80.78666666666666,57.02163934707643L81.27333333333333,46.191326379776L81.76,78.68235468864442L82.24666666666667,73.26715350151063L82.73333333333333,89.51266765594485L83.22,89.51266765594485L83.70666666666668,78.68235468864442L84.19333333333333,57.02163934707643L84.67999999999999,29.945812225341825L85.16666666666667,46.191326379776L85.65333333333334,24.5307004451752L86.14,51.60652756690982L86.62666666666668,57.02163934707643L87.11333333333333,40.776214599609375L87.6,35.361013412475614L88.08666666666667,51.60652756690982L88.57333333333334,29.945812225341825L89.06,46.191326379776L89.54666666666665,46.191326379776L90.03333333333333,46.191326379776L90.52,46.191326379776L91.00666666666666,46.191326379776L91.49333333333334,35.361013412475614L91.98,51.60652756690982L92.46666666666667,73.26715350151063L92.95333333333335,24.5307004451752L93.44,57.02163934707643L93.92666666666666,40.776214599609375L94.41333333333333,57.02163934707643L94.9,35.361013412475614L95.38666666666667,35.361013412475614L95.87333333333332,51.60652756690982L96.36,62.43684053421023L96.84666666666666,57.02163934707643L97.33333333333333,62.43684053421023L97.82000000000001,40.776214599609375L98.30666666666667,35.361013412475614L98.79333333333332,51.60652756690982L99.28,35.361013412475614L99.76666666666667,46.191326379776L100.25333333333333,40.776214599609375L100.74,24.5307004451752L101.22666666666667,40.776214599609375L101.71333333333334,35.361013412475614L102.19999999999999,57.02163934707643L102.68666666666667,67.85195231437686L103.17333333333333,40.776214599609375L103.66,40.776214599609375L104.14666666666668,24.5307004451752L104.63333333333334,35.361013412475614L105.11999999999999,24.5307004451752L105.60666666666667,35.361013412475614L106.09333333333333,29.945812225341825L106.58,51.60652756690982L107.06666666666666,29.945812225341825L107.55333333333334,29.945812225341825L108.03999999999999,40.776214599609375L108.52666666666666,46.191326379776L109.01333333333334,40.776214599609375L109.5,51.60652756690982L109.98666666666666,40.776214599609375L110.47333333333334,40.776214599609375L110.96000000000001,29.945812225341825L111.44666666666666,40.776214599609375L111.93333333333334,24.5307004451752L112.42,24.5307004451752L112.90666666666667,29.945812225341825L113.39333333333333,46.191326379776L113.88000000000001,35.361013412475614L114.36666666666666,19.115499258041382L114.85333333333332,29.945812225341825L115.34,46.191326379776L115.82666666666667,24.5307004451752L116.31333333333333,24.5307004451752L116.80000000000001,29.945812225341825L117.28666666666666,35.361013412475614L117.77333333333333,46.191326379776L118.26,19.115499258041382L118.74666666666667,46.191326379776L119.23333333333333,46.191326379776L119.72,46.191326379776L120.20666666666668,35.361013412475614L120.69333333333333,13.700387477874756L121.17999999999999,46.191326379776L121.66666666666667,46.191326379776L122.15333333333334,29.945812225341825L122.64,29.945812225341825L123.12666666666668,29.945812225341825L123.61333333333333,46.191326379776L124.1,46.191326379776L124.58666666666667,40.776214599609375L125.07333333333334,35.361013412475614L125.56,51.60652756690982L126.04666666666665,29.945812225341825L126.53333333333333,35.361013412475614L127.02,46.191326379776L127.50666666666666,46.191326379776L127.99333333333334,19.115499258041382L128.48,35.361013412475614L128.96666666666667,35.361013412475614L129.45333333333335,46.191326379776L129.94,35.361013412475614L130.42666666666668,40.776214599609375L130.91333333333333,40.776214599609375L131.4,40.776214599609375L131.88666666666666,46.191326379776L132.37333333333333,35.361013412475614L132.86,40.776214599609375L133.34666666666666,46.191326379776L133.83333333333331,46.191326379776L134.32,29.945812225341825L134.80666666666667,35.361013412475614L135.29333333333332,40.776214599609375L135.78,46.191326379776L136.26666666666668,35.361013412475614L136.75333333333333,40.776214599609375L137.23999999999998,29.945812225341825L137.72666666666666,40.776214599609375L138.21333333333334,51.60652756690982L138.7,51.60652756690982L139.18666666666667,40.776214599609375L139.67333333333335,29.945812225341825L140.16,46.191326379776L140.64666666666668,35.361013412475614L141.13333333333333,35.361013412475614L141.62,29.945812225341825L142.10666666666668,40.776214599609375L142.59333333333333,46.191326379776L143.07999999999998,35.361013412475614L143.56666666666666,46.191326379776L144.05333333333334,46.191326379776L144.54,35.361013412475614L145.02666666666667,29.945812225341825L145.51333333333335,29.945812225341825L146,40.776214599609375L146.48666666666668,19.115499258041382L146.97333333333333,29.945812225341825L147.46,40.776214599609375L147.9466666666667,40.776214599609375L148.43333333333334,46.191326379776L148.92000000000002,29.945812225341825L149.4066666666667,35.361013412475614L149.89333333333332,35.361013412475614L150.38,29.945812225341825L150.86666666666667,40.776214599609375L151.35333333333332,40.776214599609375L151.84,40.776214599609375L152.32666666666665,40.776214599609375L152.81333333333333,40.776214599609375L153.3,35.361013412475614L153.78666666666666,46.191326379776L154.27333333333334,46.191326379776L154.76000000000002,35.361013412475614L155.24666666666664,40.776214599609375L155.73333333333332,35.361013412475614L156.22,29.945812225341825L156.70666666666665,40.776214599609375L157.19333333333333,46.191326379776L157.68,40.776214599609375L158.16666666666666,40.776214599609375L158.65333333333334,40.776214599609375L159.14000000000001,57.02163934707643L159.62666666666667,46.191326379776L160.11333333333334,46.191326379776L160.60000000000002,29.945812225341825L161.08666666666664,46.191326379776L161.57333333333332,46.191326379776L162.06,35.361013412475614L162.54666666666665,40.776214599609375L163.03333333333333,46.191326379776L163.52,51.60652756690982L164.00666666666666,40.776214599609375L164.49333333333334,35.361013412475614L164.98,29.945812225341825L165.46666666666667,51.60652756690982L165.95333333333335,51.60652756690982L166.44,40.776214599609375L166.92666666666668,46.191326379776L167.41333333333336,40.776214599609375L167.89999999999998,35.361013412475614L168.38666666666666,35.361013412475614L168.87333333333333,46.191326379776L169.35999999999999,29.945812225341825L169.84666666666666,51.60652756690982L170.33333333333334,51.60652756690982L170.82,46.191326379776L171.30666666666667,51.60652756690982L171.79333333333335,35.361013412475614L172.28,40.776214599609375L172.76666666666668,29.945812225341825L173.25333333333336,40.776214599609375L173.73999999999998,40.776214599609375L174.22666666666666,35.361013412475614L174.71333333333334,35.361013412475614L175.2,51.60652756690982L175.68666666666667,46.191326379776L176.17333333333335,35.361013412475614L176.66,29.945812225341825L177.14666666666668,46.191326379776L177.63333333333333,40.776214599609375L178.12,46.191326379776L178.60666666666668,40.776214599609375L179.0933333333333,46.191326379776L179.57999999999998,51.60652756690982L180.06666666666666,29.945812225341825L180.5533333333333,40.776214599609375L181.04,35.361013412475614L181.52666666666667,46.191326379776L182.01333333333332,40.776214599609375L182.5,29.945812225341825L182.98666666666668,46.191326379776L183.47333333333333,29.945812225341825L183.96,35.361013412475614L184.4466666666667,51.60652756690982L184.93333333333334,40.776214599609375L185.42000000000002,35.361013412475614L185.9066666666667,29.945812225341825L186.39333333333332,29.945812225341825L186.88,29.945812225341825L187.36666666666667,29.945812225341825L187.85333333333332,40.776214599609375L188.34,40.776214599609375L188.82666666666665,40.776214599609375L189.31333333333333,35.361013412475614L189.8,40.776214599609375L190.28666666666666,46.191326379776L190.77333333333334,29.945812225341825L191.26000000000002,40.776214599609375L191.74666666666664,35.361013412475614L192.23333333333332,35.361013412475614L192.72,35.361013412475614L193.20666666666665,35.361013412475614L193.69333333333333,40.776214599609375L194.18,40.776214599609375L194.66666666666666,46.191326379776L195.15333333333334,46.191326379776L195.64000000000001,29.945812225341825L196.12666666666667,35.361013412475614L196.61333333333334,40.776214599609375L197.10000000000002,40.776214599609375L197.58666666666664,40.776214599609375L198.07333333333332,35.361013412475614L198.56,35.361013412475614L199.04666666666665,46.191326379776L199.53333333333333,40.776214599609375L200.02,46.191326379776L200.50666666666666,40.776214599609375L200.99333333333334,51.60652756690982L201.48,35.361013412475614L201.96666666666667,35.361013412475614L202.45333333333335,35.361013412475614L202.94,46.191326379776L203.42666666666668,35.361013412475614L203.91333333333336,40.776214599609375L204.39999999999998,51.60652756690982L204.88666666666666,40.776214599609375L205.37333333333333,40.776214599609375L205.85999999999999,46.191326379776L206.34666666666666,40.776214599609375L206.83333333333334,40.776214599609375L207.32,46.191326379776L207.80666666666667,40.776214599609375L208.29333333333335,46.191326379776L208.78,35.361013412475614L209.26666666666668,35.361013412475614L209.75333333333336,40.776214599609375L210.23999999999998,40.776214599609375L210.72666666666666,51.60652756690982L211.21333333333334,40.776214599609375L211.7,40.776214599609375L212.18666666666667,40.776214599609375L212.67333333333335,40.776214599609375L213.16,40.776214599609375L213.64666666666668,46.191326379776L214.13333333333333,46.191326379776L214.62,46.191326379776L215.10666666666668,40.776214599609375L215.5933333333333,51.60652756690982L216.07999999999998,40.776214599609375L216.56666666666666,35.361013412475614L217.0533333333333,40.776214599609375L217.54,35.361013412475614L218.02666666666667,51.60652756690982L218.51333333333332,46.191326379776L219,35.361013412475614L219.48666666666668,46.191326379776L219.97333333333333,40.776214599609375L220.46,35.361013412475614L220.9466666666667,40.776214599609375L221.43333333333334,35.361013412475614L221.92000000000002,35.361013412475614L222.4066666666667,51.60652756690982L222.89333333333332,40.776214599609375L223.38,57.02163934707643L223.86666666666667,35.361013412475614L224.35333333333332,35.361013412475614L224.84,40.776214599609375L225.32666666666665,35.361013412475614L225.81333333333333,40.776214599609375L226.3,29.945812225341825L226.78666666666666,35.361013412475614L227.27333333333334,40.776214599609375L227.76000000000002,35.361013412475614L228.24666666666664,35.361013412475614L228.73333333333332,35.361013412475614L229.22,46.191326379776L229.70666666666665,29.945812225341825L230.19333333333333,40.776214599609375L230.68,35.361013412475614L231.16666666666666,40.776214599609375L231.65333333333334,51.60652756690982L232.14000000000001,40.776214599609375L232.62666666666667,35.361013412475614L233.11333333333334,29.945812225341825L233.60000000000002,35.361013412475614L234.08666666666664,40.776214599609375L234.57333333333332,29.945812225341825L235.06,40.776214599609375L235.54666666666665,40.776214599609375L236.03333333333333,40.776214599609375L236.52,35.361013412475614L237.00666666666666,40.776214599609375L237.49333333333334,29.945812225341825L237.98,46.191326379776L238.46666666666667,40.776214599609375L238.95333333333335,35.361013412475614L239.44,40.776214599609375L239.92666666666668,46.191326379776L240.41333333333336,24.5307004451752L240.89999999999998,40.776214599609375L241.38666666666666,35.361013412475614L241.87333333333333,35.361013412475614L242.35999999999999,46.191326379776L242.84666666666666,46.191326379776L243.33333333333334,35.361013412475614L243.82,40.776214599609375L244.30666666666667,35.361013412475614L244.79333333333335,40.776214599609375L245.28,35.361013412475614L245.76666666666668,35.361013412475614L246.25333333333336,35.361013412475614L246.73999999999998,35.361013412475614L247.22666666666666,46.191326379776L247.71333333333334,40.776214599609375L248.2,40.776214599609375L248.68666666666667,46.191326379776L249.17333333333335,40.776214599609375L249.66,35.361013412475614L250.14666666666668,35.361013412475614L250.63333333333333,40.776214599609375L251.12,40.776214599609375L251.60666666666668,35.361013412475614L252.0933333333333,35.361013412475614L252.57999999999998,35.361013412475614L253.06666666666666,40.776214599609375L253.5533333333333,35.361013412475614L254.04,29.945812225341825L254.52666666666667,40.776214599609375L255.01333333333332,51.60652756690982L255.5,19.115499258041382L255.98666666666668,29.945812225341825L256.4733333333333,46.191326379776L256.96,35.361013412475614L257.44666666666666,40.776214599609375L257.93333333333334,29.945812225341825L258.42,57.02163934707643L258.9066666666667,40.776214599609375L259.3933333333333,51.60652756690982L259.88,40.776214599609375L260.3666666666667,40.776214599609375L260.85333333333335,46.191326379776L261.34000000000003,29.945812225341825L261.82666666666665,35.361013412475614L262.31333333333333,40.776214599609375L262.8,40.776214599609375L263.28666666666663,35.361013412475614L263.7733333333333,40.776214599609375L264.26,57.02163934707643L264.74666666666667,46.191326379776L265.23333333333335,40.776214599609375L265.72,40.776214599609375L266.20666666666665,35.361013412475614L266.6933333333333,40.776214599609375L267.18,40.776214599609375" style="fill: none;" fill="none"></path></g></g></g></g></g></g><g transform="translate(38, 180)" clip-path="url(#clip_1)"><clipPath id="clip_1"><rect width="292" height="20"></rect></clipPath><g><g><line x1="0" y1="0" x2="0" y2="5" style="visibility: inherit;" fill="rgb(0, 0, 0)" stroke="rgb(204, 204, 204)" stroke-width="1px"></line><line x1="24.333333333333332" y1="0" x2="24.333333333333332" y2="5" style="visibility: inherit;" fill="rgb(0, 0, 0)" stroke="rgb(204, 204, 204)" stroke-width="1px"></line><line x1="48.666666666666664" y1="0" x2="48.666666666666664" y2="5" style="visibility: inherit;" fill="rgb(0, 0, 0)" stroke="rgb(204, 204, 204)" stroke-width="1px"></line><line x1="73" y1="0" x2="73" y2="5" style="visibility: inherit;" fill="rgb(0, 0, 0)" stroke="rgb(204, 204, 204)" stroke-width="1px"></line><line x1="97.33333333333333" y1="0" x2="97.33333333333333" y2="5" style="visibility: inherit;" fill="rgb(0, 0, 0)" stroke="rgb(204, 204, 204)" stroke-width="1px"></line><line x1="121.66666666666667" y1="0" x2="121.66666666666667" y2="5" style="visibility: inherit;" fill="rgb(0, 0, 0)" stroke="rgb(204, 204, 204)" stroke-width="1px"></line><line x1="146" y1="0" x2="146" y2="5" style="visibility: inherit;" fill="rgb(0, 0, 0)" stroke="rgb(204, 204, 204)" stroke-width="1px"></line><line x1="170.33333333333334" y1="0" x2="170.33333333333334" y2="5" style="visibility: inherit;" fill="rgb(0, 0, 0)" stroke="rgb(204, 204, 204)" stroke-width="1px"></line><line x1="194.66666666666666" y1="0" x2="194.66666666666666" y2="5" style="visibility: inherit;" fill="rgb(0, 0, 0)" stroke="rgb(204, 204, 204)" stroke-width="1px"></line><line x1="219" y1="0" x2="219" y2="5" style="visibility: inherit;" fill="rgb(0, 0, 0)" stroke="rgb(204, 204, 204)" stroke-width="1px"></line><line x1="243.33333333333334" y1="0" x2="243.33333333333334" y2="5" style="visibility: inherit;" fill="rgb(0, 0, 0)" stroke="rgb(204, 204, 204)" stroke-width="1px"></line><line x1="267.66666666666663" y1="0" x2="267.66666666666663" y2="5" style="visibility: inherit;" fill="rgb(0, 0, 0)" stroke="rgb(204, 204, 204)" stroke-width="1px"></line><line x1="292" y1="0" x2="292" y2="5" style="visibility: inherit;" fill="rgb(0, 0, 0)" stroke="rgb(204, 204, 204)" stroke-width="1px"></line></g><g transform="translate(0, 8)"><text x="0" y="0" dx="0em" dy="0.95em" style="text-anchor: middle; visibility: hidden; font-family: &quot;Helvetica Neue&quot;, sans-serif; font-size: 12px; font-weight: 200;" fill="rgb(50, 49, 63)" stroke="none" stroke-width="1px">-50</text><text x="24.333333333333332" y="0" dx="0em" dy="0.95em" style="text-anchor: middle; visibility: hidden; font-family: &quot;Helvetica Neue&quot;, sans-serif; font-size: 12px; font-weight: 200;" fill="rgb(50, 49, 63)" stroke="none" stroke-width="1px">0</text><text x="48.666666666666664" y="0" dx="0em" dy="0.95em" style="text-anchor: middle; visibility: hidden; font-family: &quot;Helvetica Neue&quot;, sans-serif; font-size: 12px; font-weight: 200;" fill="rgb(50, 49, 63)" stroke="none" stroke-width="1px">50</text><text x="73" y="0" dx="0em" dy="0.95em" style="text-anchor: middle; visibility: hidden; font-family: &quot;Helvetica Neue&quot;, sans-serif; font-size: 12px; font-weight: 200;" fill="rgb(50, 49, 63)" stroke="none" stroke-width="1px">100</text><text x="97.33333333333333" y="0" dx="0em" dy="0.95em" style="text-anchor: middle; visibility: hidden; font-family: &quot;Helvetica Neue&quot;, sans-serif; font-size: 12px; font-weight: 200;" fill="rgb(50, 49, 63)" stroke="none" stroke-width="1px">150</text><text x="121.66666666666667" y="0" dx="0em" dy="0.95em" style="text-anchor: middle; visibility: hidden; font-family: &quot;Helvetica Neue&quot;, sans-serif; font-size: 12px; font-weight: 200;" fill="rgb(50, 49, 63)" stroke="none" stroke-width="1px">200</text><text x="146" y="0" dx="0em" dy="0.95em" style="text-anchor: middle; visibility: hidden; font-family: &quot;Helvetica Neue&quot;, sans-serif; font-size: 12px; font-weight: 200;" fill="rgb(50, 49, 63)" stroke="none" stroke-width="1px">250</text><text x="170.33333333333334" y="0" dx="0em" dy="0.95em" style="text-anchor: middle; visibility: hidden; font-family: &quot;Helvetica Neue&quot;, sans-serif; font-size: 12px; font-weight: 200;" fill="rgb(50, 49, 63)" stroke="none" stroke-width="1px">300</text><text x="194.66666666666666" y="0" dx="0em" dy="0.95em" style="text-anchor: middle; visibility: hidden; font-family: &quot;Helvetica Neue&quot;, sans-serif; font-size: 12px; font-weight: 200;" fill="rgb(50, 49, 63)" stroke="none" stroke-width="1px">350</text><text x="219" y="0" dx="0em" dy="0.95em" style="text-anchor: middle; visibility: hidden; font-family: &quot;Helvetica Neue&quot;, sans-serif; font-size: 12px; font-weight: 200;" fill="rgb(50, 49, 63)" stroke="none" stroke-width="1px">400</text><text x="243.33333333333334" y="0" dx="0em" dy="0.95em" style="text-anchor: middle; visibility: hidden; font-family: &quot;Helvetica Neue&quot;, sans-serif; font-size: 12px; font-weight: 200;" fill="rgb(50, 49, 63)" stroke="none" stroke-width="1px">450</text><text x="267.66666666666663" y="0" dx="0em" dy="0.95em" style="text-anchor: middle; visibility: hidden; font-family: &quot;Helvetica Neue&quot;, sans-serif; font-size: 12px; font-weight: 200;" fill="rgb(50, 49, 63)" stroke="none" stroke-width="1px">500</text><text x="292" y="0" dx="0em" dy="0.95em" style="text-anchor: middle; visibility: hidden; font-family: &quot;Helvetica Neue&quot;, sans-serif; font-size: 12px; font-weight: 200;" fill="rgb(50, 49, 63)" stroke="none" stroke-width="1px">550</text></g><line x1="0" y1="0" x2="292" y2="0" fill="rgb(0, 0, 0)" stroke="rgb(204, 204, 204)" stroke-width="1px"></line></g></g></g></g></svg>