<svg viewBox="0 0 950.5 400" xmlns="http://www.w3.org/2000/svg"><g><g><g><g><g><line x1="38" y1="380" x2="33" y2="380" style="visibility: inherit;" fill="rgb(0, 0, 0)" stroke="rgb(204, 204, 204)" stroke-width="1px"></line><line x1="38" y1="332.49999999999994" x2="33" y2="332.49999999999994" style="visibility: inherit;" fill="rgb(0, 0, 0)" stroke="rgb(204, 204, 204)" stroke-width="1px"></line><line x1="38" y1="285.0000000000001" x2="33" y2="285.0000000000001" style="visibility: inherit;" fill="rgb(0, 0, 0)" stroke="rgb(204, 204, 204)" stroke-width="1px"></line><line x1="38" y1="237.50000000000006" x2="33" y2="237.50000000000006" style="visibility: inherit;" fill="rgb(0, 0, 0)" stroke="rgb(204, 204, 204)" stroke-width="1px"></line><line x1="38" y1="190" x2="33" y2="190" style="visibility: inherit;" fill="rgb(0, 0, 0)" stroke="rgb(204, 204, 204)" stroke-width="1px"></line><line x1="38" y1="142.49999999999991" x2="33" y2="142.49999999999991" style="visibility: inherit;" fill="rgb(0, 0, 0)" stroke="rgb(204, 204, 204)" stroke-width="1px"></line><line x1="38" y1="94.99999999999989" x2="33" y2="94.99999999999989" style="visibility: inherit;" fill="rgb(0, 0, 0)" stroke="rgb(204, 204, 204)" stroke-width="1px"></line><line x1="38" y1="47.49999999999977" x2="33" y2="47.49999999999977" style="visibility: inherit;" fill="rgb(0, 0, 0)" stroke="rgb(204, 204, 204)" stroke-width="1px"></line><line x1="38" y1="0" x2="33" y2="0" style="visibility: inherit;" fill="rgb(0, 0, 0)" stroke="rgb(204, 204, 204)" stroke-width="1px"></line></g><g transform="translate(28, 0)"><text x="0" y="380" dx="0em" dy="0.3em" style="text-anchor: end; visibility: hidden; font-family: &quot;Helvetica Neue&quot;, sans-serif; font-size: 12px; font-weight: 200;" fill="rgb(50, 49, 63)" stroke="none" stroke-width="1px">0.78</text><text x="0" y="332.49999999999994" dx="0em" dy="0.3em" style="text-anchor: end; visibility: inherit; font-family: &quot;Helvetica Neue&quot;, sans-serif; font-size: 12px; font-weight: 200;" fill="rgb(50, 49, 63)" stroke="none" stroke-width="1px">0.8</text><text x="0" y="285.0000000000001" dx="0em" dy="0.3em" style="text-anchor: end; visibility: inherit; font-family: &quot;Helvetica Neue&quot;, sans-serif; font-size: 12px; font-weight: 200;" fill="rgb(50, 49, 63)" stroke="none" stroke-width="1px">0.82</text><text x="0" y="237.50000000000006" dx="0em" dy="0.3em" style="text-anchor: end; visibility: inherit; font-family: &quot;Helvetica Neue&quot;, sans-serif; font-size: 12px; font-weight: 200;" fill="rgb(50, 49, 63)" stroke="none" stroke-width="1px">0.84</text><text x="0" y="190" dx="0em" dy="0.3em" style="text-anchor: end; visibility: inherit; font-family: &quot;Helvetica Neue&quot;, sans-serif; font-size: 12px; font-weight: 200;" fill="rgb(50, 49, 63)" stroke="none" stroke-width="1px">0.86</text><text x="0" y="142.49999999999991" dx="0em" dy="0.3em" style="text-anchor: end; visibility: inherit; font-family: &quot;Helvetica Neue&quot;, sans-serif; font-size: 12px; font-weight: 200;" fill="rgb(50, 49, 63)" stroke="none" stroke-width="1px">0.88</text><text x="0" y="94.99999999999989" dx="0em" dy="0.3em" style="text-anchor: end; visibility: inherit; font-family: &quot;Helvetica Neue&quot;, sans-serif; font-size: 12px; font-weight: 200;" fill="rgb(50, 49, 63)" stroke="none" stroke-width="1px">0.9</text><text x="0" y="47.49999999999977" dx="0em" dy="0.3em" style="text-anchor: end; visibility: inherit; font-family: &quot;Helvetica Neue&quot;, sans-serif; font-size: 12px; font-weight: 200;" fill="rgb(50, 49, 63)" stroke="none" stroke-width="1px">0.92</text><text x="0" y="0" dx="0em" dy="0.3em" style="text-anchor: end; visibility: hidden; font-family: &quot;Helvetica Neue&quot;, sans-serif; font-size: 12px; font-weight: 200;" fill="rgb(50, 49, 63)" stroke="none" stroke-width="1px">0.94</text></g><line x1="38" y1="0" x2="38" y2="380" fill="rgb(0, 0, 0)" stroke="rgb(204, 204, 204)" stroke-width="1px"></line></g></g><g transform="translate(38, 0)" clip-path="url(#clip_0)"><clipPath id="clip_0"><rect width="912" height="380"></rect></clipPath><g><g><g><line x1="0" y1="0" x2="0" y2="380" fill="rgb(0, 0, 0)" stroke="rgb(60, 60, 60)" stroke-width="1px" opacity="0.25"></line><line x1="76.04166666666666" y1="0" x2="76.04166666666666" y2="380" fill="rgb(0, 0, 0)" stroke="rgb(60, 60, 60)" stroke-width="1px" opacity="0.25"></line><line x1="152.08333333333331" y1="0" x2="152.08333333333331" y2="380" fill="rgb(0, 0, 0)" stroke="rgb(60, 60, 60)" stroke-width="1px" opacity="0.25"></line><line x1="228.125" y1="0" x2="228.125" y2="380" fill="rgb(0, 0, 0)" stroke="rgb(60, 60, 60)" stroke-width="1px" opacity="0.25"></line><line x1="304.16666666666663" y1="0" x2="304.16666666666663" y2="380" fill="rgb(0, 0, 0)" stroke="rgb(60, 60, 60)" stroke-width="1px" opacity="0.25"></line><line x1="380.20833333333337" y1="0" x2="380.20833333333337" y2="380" fill="rgb(0, 0, 0)" stroke="rgb(60, 60, 60)" stroke-width="1px" opacity="0.25"></line><line x1="456.25" y1="0" x2="456.25" y2="380" fill="rgb(0, 0, 0)" stroke="rgb(60, 60, 60)" stroke-width="1px" opacity="0.25"></line><line x1="532.2916666666667" y1="0" x2="532.2916666666667" y2="380" fill="rgb(0, 0, 0)" stroke="rgb(60, 60, 60)" stroke-width="1px" opacity="0.25"></line><line x1="608.3333333333333" y1="0" x2="608.3333333333333" y2="380" fill="rgb(0, 0, 0)" stroke="rgb(60, 60, 60)" stroke-width="1px" opacity="0.25"></line><line x1="684.375" y1="0" x2="684.375" y2="380" fill="rgb(0, 0, 0)" stroke="rgb(60, 60, 60)" stroke-width="1px" opacity="0.25"></line><line x1="760.4166666666667" y1="0" x2="760.4166666666667" y2="380" fill="rgb(0, 0, 0)" stroke="rgb(60, 60, 60)" stroke-width="1px" opacity="0.25"></line><line x1="836.4583333333333" y1="0" x2="836.4583333333333" y2="380" fill="rgb(0, 0, 0)" stroke="rgb(60, 60, 60)" stroke-width="1px" opacity="0.25"></line><line x1="912.5" y1="0" x2="912.5" y2="380" fill="rgb(0, 0, 0)" stroke="rgb(60, 60, 60)" stroke-width="1px" opacity="0.25"></line></g><g><line x1="0" y1="380" x2="912.5" y2="380" fill="rgb(0, 0, 0)" stroke="rgb(60, 60, 60)" stroke-width="1px" opacity="0.25"></line><line x1="0" y1="332.49999999999994" x2="912.5" y2="332.49999999999994" fill="rgb(0, 0, 0)" stroke="rgb(60, 60, 60)" stroke-width="1px" opacity="0.25"></line><line x1="0" y1="285.0000000000001" x2="912.5" y2="285.0000000000001" fill="rgb(0, 0, 0)" stroke="rgb(60, 60, 60)" stroke-width="1px" opacity="0.25"></line><line x1="0" y1="237.50000000000006" x2="912.5" y2="237.50000000000006" fill="rgb(0, 0, 0)" stroke="rgb(60, 60, 60)" stroke-width="1px" opacity="0.25"></line><line x1="0" y1="190" x2="912.5" y2="190" fill="rgb(0, 0, 0)" stroke="rgb(60, 60, 60)" stroke-width="1px" opacity="0.25"></line><line x1="0" y1="142.49999999999991" x2="912.5" y2="142.49999999999991" fill="rgb(0, 0, 0)" stroke="rgb(60, 60, 60)" stroke-width="1px" opacity="0.25"></line><line x1="0" y1="94.99999999999989" x2="912.5" y2="94.99999999999989" fill="rgb(0, 0, 0)" stroke="rgb(60, 60, 60)" stroke-width="1px" opacity="0.25"></line><line x1="0" y1="47.49999999999977" x2="912.5" y2="47.49999999999977" fill="rgb(0, 0, 0)" stroke="rgb(60, 60, 60)" stroke-width="1px" opacity="0.25"></line><line x1="0" y1="0" x2="912.5" y2="0" fill="rgb(0, 0, 0)" stroke="rgb(60, 60, 60)" stroke-width="1px" opacity="0.25"></line></g></g></g><g><g><line x1="0" y1="2232.500000000001" x2="912.5" y2="2232.500000000001" fill="rgb(0, 0, 0)" stroke="rgb(153, 153, 153)" stroke-width="1.5px"></line></g></g><g><g><line x1="76.04166666666666" y1="0" x2="76.04166666666666" y2="380" fill="rgb(0, 0, 0)" stroke="rgb(153, 153, 153)" stroke-width="1.5px"></line></g></g><g><g><g><g><g><path stroke="rgb(255, 112, 67)" stroke-width="2px" d="M95.8125,381.26201857705075L97.33333333333334,375.2165282811055L98.85416666666667,365.4701532776091L100.375,354.6514532965641L101.89583333333333,340.12915286728054L103.41666666666666,318.030229497311L104.9375,310.8911348433196L106.45833333333333,323.0534641317274L107.97916666666667,318.4946852732501L109.5,311.17001148033233L111.02083333333334,312.12956079709267L112.54166666666667,311.55790374397105L114.0625,296.29944860292795L115.58333333333334,285.61462548153565L117.10416666666666,278.43879894892285L118.625,285.6067750428972L120.14583333333333,276.5218846725792L121.66666666666667,273.36559973379156L123.18750000000001,271.0893877257542L124.70833333333333,280.4322435495029L126.22916666666667,268.8277588164L127.75000000000001,269.1316225506559L129.27083333333334,269.3139407878666L130.79166666666669,258.71474926144197L132.3125,259.2392907428566L133.83333333333334,255.3471048916785L135.35416666666669,256.071380273202L136.875,249.62188916624808L138.39583333333334,241.54528377395354L139.91666666666666,236.69932054106417L141.4375,235.70394901391919L142.95833333333334,237.4014304160277L144.47916666666666,231.9183042093197L146,229.7758089567858L147.52083333333331,238.81639630013947L149.04166666666666,236.97419446951207L150.5625,236.25137127783918L152.08333333333331,226.25647543274673L153.60416666666666,226.37871169092318L155.125,214.97858847998782L156.64583333333334,212.7278665651249L158.16666666666669,224.38066351112676L159.6875,225.25322453795056L161.20833333333334,221.9522350824957L162.72916666666669,213.47002636176737L164.25,205.70361215342453L165.77083333333334,204.10335051101063L167.29166666666666,202.3782543366051L168.8125,199.04854893832774L170.33333333333334,197.8156082639061L171.85416666666666,200.90031330638863L173.375,199.30910816701498L174.89583333333334,192.2352113182081L176.41666666666666,191.8153426560602L177.9375,203.8017689891364L179.45833333333331,192.2536622111623L180.97916666666666,185.70729605106237L182.5,178.33744819013904L184.02083333333331,191.50812158017519L185.54166666666666,181.81794350760683L187.0625,179.82830611120184L188.58333333333334,179.39940623790343L190.10416666666669,171.8755687019246L191.625,175.0102050746093L193.14583333333334,186.4521888282661L194.66666666666669,205.5556699864127L196.1875,184.12729878616653L197.70833333333334,180.0665388071081L199.22916666666666,173.80561337253692L200.75,170.81394067633917L202.27083333333334,173.60834569471353L203.79166666666666,176.04987127028284L205.3125,179.0445517447138L206.83333333333331,173.1924211351004L208.35416666666666,166.62155588674102L209.875,170.32803225640984L211.39583333333331,181.73062210157244L212.91666666666666,172.89185693785396L214.4375,162.61674792125729L215.95833333333334,172.1320582065279L217.47916666666669,167.13271860082705L219,169.10490813135968L220.52083333333334,158.04987431931414L222.04166666666669,161.74299515109013L223.5625,155.54498956692652L225.08333333333334,160.24006429965775L226.60416666666666,154.64323105606712L228.125,158.93407000418455L229.64583333333331,152.3298693496939L231.16666666666669,143.395499038634L232.6875,134.21040740486225L234.20833333333331,139.40787820146235L235.72916666666669,138.31944995001405L237.25,134.9892473988261L238.77083333333331,128.78421513870512L240.29166666666666,123.1489327468584L241.8125,122.82735019434142L243.33333333333334,117.28016608660585L244.85416666666666,119.68853148046253L246.37500000000003,122.66337247027826L247.89583333333334,111.82748825153021L249.41666666666666,106.85577947378351L250.93750000000003,114.96372126627068L252.45833333333334,123.65295578889908L253.97916666666666,113.56856208951984L255.50000000000003,107.13548458761989L257.0208333333333,108.24748800484565L258.5416666666667,98.97104684286245L260.0625,104.87859048708037L261.58333333333337,102.30394290842867L263.1041666666667,96.93468491410164L264.625,90.27110195264214L266.14583333333337,101.18844530644986L267.6666666666667,98.56009067096102L269.1875,100.42510605453145L270.70833333333337,106.51590857862647L272.2291666666667,109.40550752853869L273.75,101.96056287512482L275.27083333333337,94.43400920048526L276.7916666666667,96.03719413647161L278.3125,98.14648556929285L279.8333333333333,93.67532794607558L281.3541666666667,107.05545034964615L282.875,100.55052856778929L284.3958333333333,93.20549070939916L285.9166666666667,87.26870286527566L287.4375,91.35556905307322L288.9583333333333,87.68851500056951L290.4791666666667,99.25645185293399L292,93.95886643398762L293.5208333333333,93.07501950066683L295.04166666666663,89.10268317581063L296.5625,90.92619211030512L298.0833333333333,99.28679508300132L299.60416666666663,91.68236805398146L301.125,91.3266791903904L302.6458333333333,94.17279613041478L304.16666666666663,92.4384381295655L305.6875,99.81170141228523L307.2083333333333,96.96916176991772L308.72916666666663,96.4109618313139L310.25,93.39889626783275L311.7708333333333,92.35659611870113L313.2916666666667,100.527478770311L314.8125,106.19489092582182L316.33333333333337,105.38842748972024L317.8541666666667,102.60984511001249L319.375,94.05863935246083L320.89583333333337,95.81197222765695L322.4166666666667,92.65706122336633L323.9375,90.76411462079204L325.45833333333337,88.09858153015796L326.9791666666667,84.96943992227551L328.5,89.97601128727342L330.02083333333337,92.21507154172735L331.5416666666667,91.64630128303793L333.0625,87.09807177400359L334.5833333333333,87.81116223344651L336.1041666666667,91.6810446739762L337.625,92.09076772693209L339.1458333333333,86.2174277935232L340.6666666666667,79.25139566861401L342.1875,88.83988905312322L343.7083333333333,86.94404618955656L345.2291666666667,93.07303808341612L346.75,87.18923128968595L348.2708333333333,98.57438371971921L349.7916666666667,84.37086490628525L351.3125,91.52912931345367L352.8333333333333,78.61394713343674L354.35416666666663,88.07497864974454L355.875,81.13080874689177L357.3958333333333,88.8202130532726L358.91666666666663,103.37749884941962L360.4375,98.34375766765339L361.9583333333333,99.9128649702746L363.47916666666663,90.14580357498397L365,91.16962306753663L366.5208333333333,92.1663560453407L368.04166666666663,90.46969151397656L369.5625,92.12883839547692L371.0833333333333,96.56635468924088L372.6041666666667,95.78683630063563L374.125,96.46644911428956L375.64583333333337,91.1375409439841L377.1666666666667,94.4418110892559L378.6875,91.45252325805313L380.20833333333337,93.48342000646744L381.7291666666667,79.02163898470013L383.25,74.9339223833203L384.77083333333337,80.51267259903659L386.2916666666667,72.00407310478619L387.8125,72.63558926673352L389.33333333333337,70.33740998799584L390.8541666666667,67.81112194952345L392.375,81.59328353939634L393.8958333333333,81.44870241009085L395.4166666666667,80.59707116796307L396.9375,72.43715352841468L398.4583333333333,80.54443303959505L399.9791666666667,76.9949226630743L401.5,69.51098186093662L403.0208333333333,67.6977063555604L404.5416666666667,75.78850170010855L406.0625,71.46421825906344L407.5833333333333,62.75053105366629L409.10416666666663,62.111670742108856L410.625,67.08264575581205L412.1458333333333,60.8864701162604L413.66666666666663,75.14378812139199L415.1875,77.19656387701605L416.7083333333333,77.28090548357363L418.22916666666663,76.18418660069108L419.75,74.76121608200418L421.2708333333333,77.731903217928L422.79166666666663,72.63025916975516L424.3125,64.97992072917094L425.8333333333333,73.01050647745757L427.3541666666667,77.44641664415741L428.875,79.72552146190486L430.39583333333337,80.71048644586853L431.9166666666667,83.59616975429338L433.4375,71.17702579762141L434.95833333333337,76.728769518528L436.4791666666667,73.17575942134471L438,75.63330537471529L439.52083333333337,78.2551567935547L441.0416666666667,72.5617700328591L442.5625,73.35270533026238L444.08333333333337,80.71132283843156L445.6041666666667,85.5089346256052L447.125,94.50667546309177L448.6458333333333,100.28776124785605L450.1666666666667,92.66538903516664L451.6875,85.41487673164681L453.2083333333333,76.85760199571399L454.7291666666667,78.2248522016094L456.25,75.60317416028295L457.77083333333337,70.97058045289589L459.29166666666663,68.95596341742066L460.8125,65.45248887808907L462.33333333333337,62.967962872217754L463.85416666666663,68.36130359842218L465.375,82.6882750932802L466.89583333333337,75.60408229496625L468.41666666666663,81.2972098282965L469.9375,85.09558425497943L471.45833333333337,82.02031771035149L472.97916666666663,73.67354273611988L474.5,78.60912096389967L476.02083333333326,81.18802661829477L477.54166666666663,70.49702248056707L479.0625,69.43671119856816L480.5833333333333,74.53720028786648L482.10416666666663,73.39058301203733L483.625,74.23243440004137L485.1458333333333,73.5901647616144L486.6666666666667,73.2048029785584L488.1875,67.61935133249949L489.7083333333333,71.91701923913593L491.2291666666667,78.32008943025363L492.75000000000006,80.63216641583489L494.2708333333333,76.66512140654606L495.7916666666667,76.1971574367468L497.31250000000006,70.94452913650179L498.8333333333333,66.64562830953798L500.3541666666667,79.36416560190327L501.87500000000006,72.84473403559554L503.3958333333333,72.37510326067479L504.9166666666667,77.4476159963599L506.43750000000006,71.69480427226972L507.9583333333333,70.9202628381347L509.4791666666667,63.571481647926305L511.00000000000006,67.57603439261771L512.5208333333334,66.5367378745691L514.0416666666666,71.26745116437763L515.5625,69.89896840885439L517.0833333333334,70.22520260235734L518.6041666666667,67.36135623586796L520.125,72.14466346342931L521.6458333333334,78.83911724710214L523.1666666666667,85.91537639989696L524.6875,77.54034307893653L526.2083333333334,73.28026227531763L527.7291666666667,74.93112452255446L529.25,72.09717242376064L530.7708333333334,75.36859445843709L532.2916666666667,76.94900639697079L533.8125,66.80628650095554L535.3333333333334,65.6924478572995L536.8541666666667,74.58534660115197L538.375,74.18435336455309L539.8958333333334,77.3857855874574L541.4166666666667,68.59811914433686L542.9375,70.59201689046398L544.4583333333334,80.20223362136954L545.9791666666667,79.84918989473016L547.5,77.34265934070004L549.0208333333334,78.51588660860068L550.5416666666667,80.74964472284319L552.0625,76.35316710847871L553.5833333333334,79.8344543050423L555.1041666666666,81.54078534070806L556.625,81.03476220860551L558.1458333333334,66.96303566988979L559.6666666666666,73.4354928773443L561.1875,85.35034737836094L562.7083333333334,81.79073430210809L564.2291666666666,78.89008389181157L565.75,77.14969364563387L567.2708333333334,68.83890526151521L568.7916666666666,64.99981270227352L570.3125,65.37350276704757L571.8333333333334,62.53812992332047L573.3541666666666,64.27893438194803L574.875,60.73400842103126L576.3958333333334,66.25604836316546L577.9166666666666,68.80433313948885L579.4375,65.36151071132997L580.9583333333334,63.67825853670712L582.4791666666666,76.81886117366008L584,83.55589890901479L585.5208333333334,72.68262841954356L587.0416666666666,78.77945493849819L588.5625,83.96737260337306L590.0833333333333,74.45933438966074L591.6041666666666,81.75774155634281L593.125,80.0176120911695L594.6458333333333,78.59109312979297L596.1666666666666,73.14577311687435L597.6875,69.11369854457831L599.2083333333333,66.69445380120067L600.7291666666666,57.21152677862972L602.25,64.14255937772464L603.7708333333333,70.97826791308779L605.2916666666666,72.02010615171451L606.8125,70.73300268352898L608.3333333333333,72.25544492066416L609.8541666666666,75.08111667430694L611.375,69.89246339676549L612.8958333333333,72.13356263087849L614.4166666666666,75.00798730043556L615.9375,73.2906139373062L617.4583333333333,69.96548560138234L618.9791666666666,69.11778907105725L620.5,72.43364059999828L622.0208333333333,77.10029711768169L623.5416666666666,75.693323674471L625.0625,70.64222887913627L626.5833333333334,77.17277393198168L628.1041666666666,78.03151408109755L629.625,76.63455175920535L631.1458333333334,73.50167004802358L632.6666666666667,82.33046679817744L634.1875,88.01018613054237L635.7083333333334,73.82543562337071L637.2291666666667,79.08269797852233L638.75,84.91420099193203L640.2708333333334,73.11516838702175L641.7916666666667,88.9826221313038L643.3125,82.82271868264411L644.8333333333334,69.94807259008724L646.3541666666667,74.84401712277787L647.875,64.77841037189535L649.3958333333334,77.4789522747729L650.9166666666667,72.86098651054681L652.4375,73.91467649914745L653.9583333333334,74.9293317745798L655.4791666666667,74.00830318633757L657,73.83812731566451L658.5208333333334,75.64828482903494L660.0416666666667,72.52746860764893L661.5625,78.30391776908931L663.0833333333334,76.79799397200031L664.6041666666667,77.0417635405642L666.125,71.06885151651977L667.6458333333334,70.92713246695672L669.1666666666666,72.37192279072076L670.6875,74.3861208317964L672.2083333333334,73.68237662066753L673.7291666666666,69.05321936458188L675.25,67.04060757547535L676.7708333333334,75.01180114978479L678.2916666666666,65.2615220703716L679.8125,68.97255655276979L681.3333333333334,61.25553402989027L682.8541666666666,78.4248133521611L684.375,79.93006158002231L685.8958333333334,82.36303227024058L687.4166666666666,80.38078651950838L688.9375,71.92494145706922L690.4583333333334,71.82322771355899L691.9791666666666,69.08505386713358L693.5,67.05970827700617L695.0208333333334,76.55308332420526L696.5416666666666,72.30546514020637L698.0625,71.66910064116877L699.5833333333334,77.78889698920102L701.1041666666666,74.19427718602083L702.625,78.53912035156753L704.1458333333333,75.4092937679855L705.6666666666666,75.44366085361048L707.1875,66.66796173948387L708.7083333333333,74.40577236591753L710.2291666666666,67.57505040037017L711.75,76.86228859822381L713.2708333333333,78.61010544538772L714.7916666666666,85.77796931886854L716.3125,85.106894349004L717.8333333333333,78.58507560190259L719.3541666666666,81.17359940109651L720.875,81.96183111606837L722.3958333333333,82.43477014505146L723.9166666666666,77.36424236180346L725.4375,81.58842330385414L726.9583333333333,75.3266691279959L728.4791666666666,73.09938175157015L730,75.20503749057815L731.5208333333333,81.05778294566363L733.0416666666666,82.27478252508104L734.5625,72.29645649586831L736.0833333333333,80.46001482006722L737.6041666666666,84.21076934335713L739.125,79.57716572760393L740.6458333333334,75.26723842906256L742.1666666666666,72.68128204993769L743.6875,79.92602758796426L745.2083333333334,78.53614242786995L746.7291666666667,72.34792013117556L748.25,70.5472497889333L749.7708333333334,70.61417143040472L751.2916666666667,76.00861561592552L752.8125,66.62449331460078L754.3333333333334,72.84986955748599L755.8541666666667,72.378184573809L757.375,79.36167119560207L758.8958333333334,72.8432373918148L760.4166666666667,81.55296592217991L761.9375,86.01392047585409L763.4583333333334,83.33620200742087L764.9791666666667,76.75777763240808L766.5,72.04578381844328L768.0208333333334,77.63246561329328L769.5416666666667,75.24774220729319L771.0625,73.05202559914846L772.5833333333334,67.52768490485357L774.1041666666667,76.83386930091365L775.625,74.38614313759325L777.1458333333334,72.15262487505623L778.6666666666667,72.34227904662339L780.1875,68.24916082015545L781.7083333333334,59.291674836819766L783.2291666666666,66.92041334172796L784.75,74.9396846095367L786.2708333333334,72.86719104049473L787.7916666666666,69.32899058102265L789.3125,71.79547894143286L790.8333333333334,69.45090251054285L792.3541666666666,64.21963058046043L793.875,60.69842614013862L795.3958333333334,75.0309617357189L796.9166666666666,72.53951603393153L798.4375,63.77815100085974L799.9583333333334,64.64050574619893L801.4791666666666,60.186068675037234L803,66.69216708011373L804.5208333333334,72.89047381679376L806.0416666666666,77.75683833003137L807.5625,80.67665703797377L809.0833333333334,78.22163753333109L810.6041666666666,86.309771136179L812.125,81.21900808556927L813.6458333333334,85.813545773888L815.1666666666666,75.18459700969731L816.6875,75.69128408090967L818.2083333333333,83.26179393563677L819.7291666666666,75.18331103583569L821.25,73.01336689627385L822.7708333333333,86.62683691880812L824.2916666666666,83.32151059092098L825.8125,84.39790167678018L827.3333333333333,77.01235615175125L828.8541666666666,68.75650276518559L830.375,68.39239936933916L831.8958333333333,64.34946788469557L833.4166666666666,63.83591540527107L834.9375,62.380460070799074" style="fill: none;" fill="none"></path></g></g></g></g><g opacity="0.2"><g><g><g><path stroke="rgb(255, 112, 67)" stroke-width="2px" d="M94.29166666666667,389.1023007035256L95.8125,353.7259158492089L97.33333333333334,366.15539908409124L98.85416666666667,350.857464671135L100.375,338.42798143625265L101.89583333333333,318.3493894338608L103.41666666666666,284.88521099090576L104.9375,300.183145403862L106.45833333333333,341.2962910532952L107.97916666666667,311.65666699409485L109.5,300.183145403862L111.02083333333334,313.56887340545654L112.54166666666667,310.70042222738266L114.0625,273.41183096170425L115.58333333333334,269.58741813898087L117.10416666666666,267.67507016658783L118.625,296.3587325811386L120.14583333333333,262.8945541381836L121.66666666666667,268.6311733722687L123.18750000000001,267.67507016658783L124.70833333333333,294.4465261697769L126.22916666666667,251.42103254795074L127.75000000000001,269.58741813898087L129.27083333333334,269.58741813898087L130.79166666666669,242.81596213579178L132.3125,260.0261029601097L133.83333333333334,249.50882613658905L135.35416666666669,257.15779334306717L136.875,239.94765251874924L138.39583333333334,229.43037569522855L139.91666666666666,229.43037569522855L141.4375,234.2108917236328L142.95833333333334,239.94765251874924L144.47916666666666,223.69361490011212L146,226.562066078186L147.52083333333331,252.37727731466293L149.04166666666666,234.2108917236328L150.5625,235.167136490345L152.08333333333331,211.26413166522977L153.60416666666666,226.562066078186L155.125,197.87840366363523L156.64583333333334,209.35178369283673L158.16666666666669,241.85985893011093L159.6875,226.562066078186L161.20833333333334,217.00075089931485L162.72916666666669,200.74671328067777L164.25,194.05399084091184L165.77083333333334,201.70295804738996L167.29166666666666,199.79061007499692L168.8125,194.05399084091184L170.33333333333334,195.96619725227353L171.85416666666666,205.52737087011334L173.375,196.92230045795438L174.89583333333334,181.62436604499814L176.41666666666666,191.18553966283795L177.9375,221.78140848875043L179.45833333333331,174.93150204420087L180.97916666666666,175.88774681091306L182.5,167.2826763987541L184.02083333333331,211.26413166522977L185.54166666666666,167.2826763987541L187.0625,176.8438500165939L188.58333333333334,178.7560564279556L190.10416666666669,160.58981239795682L191.625,179.71215963363645L193.14583333333334,203.61516445875165L194.66666666666669,234.2108917236328L196.1875,151.98474198579785L197.70833333333334,173.97539883852002L199.22916666666666,164.4142252206802L200.75,166.3264316320419L202.27083333333334,177.79995322227475L203.79166666666666,179.71215963363645L205.3125,183.53657245635983L206.83333333333331,164.4142252206802L208.35416666666666,156.7652580142021L209.875,175.88774681091306L211.39583333333331,198.83450686931607L212.91666666666666,159.63370919227597L214.4375,147.20408439636228L215.95833333333334,186.40502363443372L217.47916666666669,159.63370919227597L219,172.06319242715833L220.52083333333334,141.46732360124585L222.04166666666669,167.2826763987541L223.5625,146.24798119068143L225.08333333333334,167.2826763987541L226.60416666666666,146.24798119068143L228.125,165.37032842636106L229.64583333333331,142.42356836795804L231.16666666666669,129.99394357204434L232.6875,120.4327699542045L234.20833333333331,147.20408439636228L235.72916666666669,136.68680757284162L237.25,129.99394357204434L238.77083333333331,119.47666674852366L240.29166666666666,114.69600915908808L241.8125,122.3449763655662L243.33333333333334,108.959389925003L244.85416666666666,123.30107957124704L246.37500000000003,127.1256339550018L247.89583333333334,95.57366192340845L249.41666666666666,99.39821630716318L250.93750000000003,127.1256339550018L252.45833333333334,136.68680757284162L253.97916666666666,98.441971540451L255.50000000000003,97.48586833477015L257.0208333333333,109.91549313068384L258.5416666666667,85.05638509988779L260.0625,113.73990595340723L261.58333333333337,98.441971540451L263.1041666666667,88.88079792261118L264.625,80.27572751045221L266.14583333333337,117.56446033716196L267.6666666666667,94.6175587177276L269.1875,103.22262912988657L270.70833333333337,115.65211236476893L272.2291666666667,113.73990595340723L273.75,90.79314589500422L275.27083333333337,83.1441786885261L276.7916666666667,98.441971540451L278.3125,101.31042271852488L279.8333333333333,86.96859151124949L281.3541666666667,127.1256339550018L282.875,90.79314589500422L284.3958333333333,82.18793392181391L285.9166666666667,78.36352109909052L287.4375,97.48586833477015L288.9583333333333,82.18793392181391L290.4791666666667,116.60835713148111L292,86.01248830556864L293.5208333333333,91.74924910068506L295.04166666666663,83.1441786885261L296.5625,93.66145551204676L298.0833333333333,111.82769954204554L299.60416666666663,80.27572751045221L301.125,90.79314589500422L302.6458333333333,98.441971540451L304.16666666666663,89.83690112829203L305.6875,110.87159633636469L307.2083333333333,92.70535230636591L308.72916666666663,95.57366192340845L310.25,88.88079792261118L311.7708333333333,90.79314589500422L313.2916666666667,112.78380274772638L314.8125,114.69600915908808L316.33333333333337,104.17873233556742L317.8541666666667,98.441971540451L319.375,81.23183071613306L320.89583333333337,98.441971540451L322.4166666666667,87.92469471693033L323.9375,87.92469471693033L325.45833333333337,84.10028189420694L326.9791666666667,80.27572751045221L328.5,97.48586833477015L330.02083333333337,95.57366192340845L331.5416666666667,90.79314589500422L333.0625,80.27572751045221L334.5833333333333,88.88079792261118L336.1041666666667,97.48586833477015L337.625,92.70535230636591L339.1458333333333,77.40741789340967L340.6666666666667,68.8023474812507L342.1875,103.22262912988657L343.7083333333333,84.10028189420694L345.2291666666667,102.26652592420572L346.75,78.36352109909052L348.2708333333333,115.65211236476893L349.7916666666667,63.06558668613428L351.3125,102.26652592420572L352.8333333333333,59.24117386341089L354.35416666666663,102.26652592420572L355.875,70.7145538926124L357.3958333333333,100.35431951284403L358.91666666666663,125.21342754364005L360.4375,90.79314589500422L361.9583333333333,102.26652592420572L363.47916666666663,75.49521148204798L365,92.70535230636591L366.5208333333333,93.66145551204676L368.04166666666663,87.92469471693033L369.5625,94.6175587177276L371.0833333333333,103.22262912988657L372.6041666666667,94.6175587177276L374.125,97.48586833477015L375.64583333333337,83.1441786885261L377.1666666666667,99.39821630716318L378.6875,86.96859151124949L380.20833333333337,96.5297651290893L381.7291666666667,57.3289674520492L383.25,68.8023474812507L384.77083333333337,88.88079792261118L386.2916666666667,59.24117386341089L387.8125,73.58286350965494L389.33333333333337,66.89014106988901L390.8541666666667,64.02168989181513L392.375,102.26652592420572L393.8958333333333,81.23183071613306L395.4166666666667,79.31962430477137L396.9375,60.19727706909174L398.4583333333333,92.70535230636591L399.9791666666667,71.67065709829325L401.5,58.285070657730046L403.0208333333333,64.97779309749598L404.5416666666667,87.92469471693033L406.0625,64.97779309749598L407.5833333333333,49.68000024557108L409.10416666666663,61.15338027477259L410.625,74.53910827636713L412.1458333333333,51.592206656932774L413.66666666666663,96.5297651290893L415.1875,80.27572751045221L416.7083333333333,77.40741789340967L418.22916666666663,74.53910827636713L419.75,72.6267603039741L421.2708333333333,82.18793392181391L422.79166666666663,64.97779309749598L424.3125,53.50441306829447L425.8333333333333,85.05638509988779L427.3541666666667,84.10028189420694L428.875,83.1441786885261L430.39583333333337,82.18793392181391L431.9166666666667,87.92469471693033L433.4375,52.54830986261362L434.95833333333337,85.05638509988779L436.4791666666667,67.84624427556986L438,79.31962430477137L439.52083333333337,82.18793392181391L441.0416666666667,64.02168989181513L442.5625,74.53910827636713L444.08333333333337,91.74924910068506L445.6041666666667,92.70535230636591L447.125,108.00328671932215L448.6458333333333,108.959389925003L450.1666666666667,81.23183071613306L451.6875,74.53910827636713L453.2083333333333,64.02168989181513L454.7291666666667,80.27572751045221L456.25,71.67065709829325L457.77083333333337,64.02168989181513L459.29166666666663,65.93403786420816L460.8125,60.19727706909174L462.33333333333337,59.24117386341089L463.85416666666663,76.45131468772882L465.375,104.17873233556742L466.89583333333337,64.97779309749598L468.41666666666663,89.83690112829203L469.9375,90.79314589500422L471.45833333333337,77.40741789340967L472.97916666666663,61.15338027477259L474.5,86.01248830556864L476.02083333333326,85.05638509988779L477.54166666666663,54.460516273975315L479.0625,67.84624427556986L480.5833333333333,82.18793392181391L482.10416666666663,71.67065709829325L483.625,75.49521148204798L485.1458333333333,72.6267603039741L486.6666666666667,72.6267603039741L488.1875,59.24117386341089L489.7083333333333,78.36352109909052L491.2291666666667,87.92469471693033L492.75000000000006,84.10028189420694L494.2708333333333,70.7145538926124L495.7916666666667,75.49521148204798L497.31250000000006,63.06558668613428L498.8333333333333,60.19727706909174L500.3541666666667,98.441971540451L501.87500000000006,63.06558668613428L503.3958333333333,71.67065709829325L504.9166666666667,85.05638509988779L506.43750000000006,63.06558668613428L507.9583333333333,69.75845068693155L509.4791666666667,52.54830986261362L511.00000000000006,73.58286350965494L512.5208333333334,64.97779309749598L514.0416666666666,78.36352109909052L515.5625,67.84624427556986L517.0833333333334,70.7145538926124L518.6041666666667,63.06558668613428L520.125,79.31962430477137L521.6458333333334,88.88079792261118L523.1666666666667,96.5297651290893L524.6875,64.97779309749598L526.2083333333334,66.89014106988901L527.7291666666667,77.40741789340967L529.25,67.84624427556986L530.7708333333334,80.27572751045221L532.2916666666667,79.31962430477137L533.8125,51.592206656932774L535.3333333333334,64.02168989181513L536.8541666666667,87.92469471693033L538.375,73.58286350965494L539.8958333333334,82.18793392181391L541.4166666666667,55.41661947965616L542.9375,73.58286350965494L544.4583333333334,94.6175587177276L545.9791666666667,79.31962430477137L547.5,73.58286350965494L549.0208333333334,80.27572751045221L550.5416666666667,84.10028189420694L552.0625,69.75845068693155L553.5833333333334,85.05638509988779L555.1041666666666,84.10028189420694L556.625,80.27572751045221L558.1458333333334,45.85544586181635L559.6666666666666,83.1441786885261L561.1875,103.22262912988657L562.7083333333334,76.45131468772882L564.2291666666666,74.53910827636713L565.75,74.53910827636713L567.2708333333334,56.37272268533701L568.7916666666666,59.24117386341089L570.3125,65.93403786420816L571.8333333333334,58.285070657730046L573.3541666666666,66.89014106988901L574.875,55.41661947965616L576.3958333333334,74.53910827636713L577.9166666666666,72.6267603039741L579.4375,60.19727706909174L580.9583333333334,61.15338027477259L582.4791666666666,96.5297651290893L584,93.66145551204676L585.5208333333334,56.37272268533701L587.0416666666666,87.92469471693033L588.5625,91.74924910068506L590.0833333333333,60.19727706909174L591.6041666666666,92.70535230636591L593.125,77.40741789340967L594.6458333333333,76.45131468772882L596.1666666666666,64.97779309749598L597.6875,63.06558668613428L599.2083333333333,63.06558668613428L600.7291666666666,42.98713624477381L602.25,74.53910827636713L603.7708333333333,81.23183071613306L605.2916666666666,73.58286350965494L606.8125,68.8023474812507L608.3333333333333,74.53910827636713L609.8541666666666,79.31962430477137L611.375,62.109483480453434L612.8958333333333,75.49521148204798L614.4166666666666,79.31962430477137L615.9375,70.7145538926124L617.4583333333333,64.97779309749598L618.9791666666666,67.84624427556986L620.5,77.40741789340967L622.0208333333333,84.10028189420694L623.5416666666666,73.58286350965494L625.0625,63.06558668613428L626.5833333333334,86.96859151124949L628.1041666666666,79.31962430477137L629.625,74.53910827636713L631.1458333333334,68.8023474812507L632.6666666666667,95.57366192340845L634.1875,96.5297651290893L635.7083333333334,52.54830986261362L637.2291666666667,86.96859151124949L638.75,93.66145551204676L640.2708333333334,55.41661947965616L641.7916666666667,112.78380274772638L643.3125,73.58286350965494L644.8333333333334,50.63610345125193L646.3541666666667,82.18793392181391L647.875,49.68000024557108L649.3958333333334,96.5297651290893L650.9166666666667,65.93403786420816L652.4375,75.49521148204798L653.9583333333334,76.45131468772882L655.4791666666667,72.6267603039741L657,73.58286350965494L658.5208333333334,78.36352109909052L660.0416666666667,67.84624427556986L661.5625,86.96859151124949L663.0833333333334,74.53910827636713L664.6041666666667,77.40741789340967L666.125,62.109483480453434L667.6458333333334,70.7145538926124L669.1666666666666,74.53910827636713L670.6875,77.40741789340967L672.2083333333334,72.6267603039741L673.7291666666666,62.109483480453434L675.25,64.02168989181513L676.7708333333334,86.96859151124949L678.2916666666666,50.63610345125193L679.8125,74.53910827636713L681.3333333333334,49.68000024557108L682.8541666666666,104.17873233556742L684.375,82.18793392181391L685.8958333333334,86.01248830556864L687.4166666666666,77.40741789340967L688.9375,59.24117386341089L690.4583333333334,71.67065709829325L691.9791666666666,64.97779309749598L693.5,64.02168989181513L695.0208333333334,90.79314589500422L696.5416666666666,65.93403786420816L698.0625,70.7145538926124L699.5833333333334,86.96859151124949L701.1041666666666,68.8023474812507L702.625,85.05638509988779L704.1458333333333,70.7145538926124L705.6666666666666,75.49521148204798L707.1875,53.50441306829447L708.7083333333333,86.01248830556864L710.2291666666666,57.3289674520492L711.75,90.79314589500422L713.2708333333333,81.23183071613306L714.7916666666666,96.5297651290893L716.3125,84.10028189420694L717.8333333333333,68.8023474812507L719.3541666666666,85.05638509988779L720.875,83.1441786885261L722.3958333333333,83.1441786885261L723.9166666666666,69.75845068693155L725.4375,87.92469471693033L726.9583333333333,65.93403786420816L728.4791666666666,69.75845068693155L730,78.36352109909052L731.5208333333333,89.83690112829203L733.0416666666666,84.10028189420694L734.5625,57.3289674520492L736.0833333333333,92.70535230636591L737.6041666666666,89.83690112829203L739.125,72.6267603039741L740.6458333333334,68.8023474812507L742.1666666666666,68.8023474812507L743.6875,90.79314589500422L745.2083333333334,76.45131468772882L746.7291666666667,63.06558668613428L748.25,67.84624427556986L749.7708333333334,70.7145538926124L751.2916666666667,84.10028189420694L752.8125,52.54830986261362L754.3333333333334,82.18793392181391L755.8541666666667,71.67065709829325L757.375,89.83690112829203L758.8958333333334,63.06558668613428L760.4166666666667,94.6175587177276L761.9375,92.70535230636591L763.4583333333334,79.31962430477137L764.9791666666667,66.89014106988901L766.5,64.97779309749598L768.0208333333334,86.01248830556864L769.5416666666667,71.67065709829325L771.0625,69.75845068693155L772.5833333333334,59.24117386341089L774.1041666666667,90.79314589500422L775.625,70.7145538926124L777.1458333333334,68.8023474812507L778.6666666666667,72.6267603039741L780.1875,62.109483480453434L781.7083333333334,45.85544586181635L783.2291666666666,78.36352109909052L784.75,86.96859151124949L786.2708333333334,69.75845068693155L787.7916666666666,64.02168989181513L789.3125,75.49521148204798L790.8333333333334,65.93403786420816L792.3541666666666,56.37272268533701L793.875,55.41661947965616L795.3958333333334,96.5297651290893L796.9166666666666,68.8023474812507L798.4375,50.63610345125193L799.9583333333334,65.93403786420816L801.4791666666666,53.50441306829447L803,76.45131468772882L804.5208333333334,82.18793392181391L806.0416666666666,85.05638509988779L807.5625,85.05638509988779L809.0833333333334,74.53910827636713L810.6041666666666,98.441971540451L812.125,73.58286350965494L813.6458333333334,92.70535230636591L815.1666666666666,59.24117386341089L816.6875,76.45131468772882L818.2083333333333,94.6175587177276L819.7291666666666,63.06558668613428L821.25,69.75845068693155L822.7708333333333,107.04704195260996L824.2916666666666,78.36352109909052L825.8125,86.01248830556864L827.3333333333333,65.93403786420816L828.8541666666666,56.37272268533701L830.375,67.84624427556986L831.8958333333333,58.285070657730046L833.4166666666666,63.06558668613428L834.9375,60.19727706909174" style="fill: none;" fill="none"></path></g></g></g></g></g></g><g transform="translate(38, 380)" clip-path="url(#clip_1)"><clipPath id="clip_1"><rect width="912" height="20"></rect></clipPath><g><g><line x1="0" y1="0" x2="0" y2="5" style="visibility: inherit;" fill="rgb(0, 0, 0)" stroke="rgb(204, 204, 204)" stroke-width="1px"></line><line x1="76.04166666666666" y1="0" x2="76.04166666666666" y2="5" style="visibility: inherit;" fill="rgb(0, 0, 0)" stroke="rgb(204, 204, 204)" stroke-width="1px"></line><line x1="152.08333333333331" y1="0" x2="152.08333333333331" y2="5" style="visibility: inherit;" fill="rgb(0, 0, 0)" stroke="rgb(204, 204, 204)" stroke-width="1px"></line><line x1="228.125" y1="0" x2="228.125" y2="5" style="visibility: inherit;" fill="rgb(0, 0, 0)" stroke="rgb(204, 204, 204)" stroke-width="1px"></line><line x1="304.16666666666663" y1="0" x2="304.16666666666663" y2="5" style="visibility: inherit;" fill="rgb(0, 0, 0)" stroke="rgb(204, 204, 204)" stroke-width="1px"></line><line x1="380.20833333333337" y1="0" x2="380.20833333333337" y2="5" style="visibility: inherit;" fill="rgb(0, 0, 0)" stroke="rgb(204, 204, 204)" stroke-width="1px"></line><line x1="456.25" y1="0" x2="456.25" y2="5" style="visibility: inherit;" fill="rgb(0, 0, 0)" stroke="rgb(204, 204, 204)" stroke-width="1px"></line><line x1="532.2916666666667" y1="0" x2="532.2916666666667" y2="5" style="visibility: inherit;" fill="rgb(0, 0, 0)" stroke="rgb(204, 204, 204)" stroke-width="1px"></line><line x1="608.3333333333333" y1="0" x2="608.3333333333333" y2="5" style="visibility: inherit;" fill="rgb(0, 0, 0)" stroke="rgb(204, 204, 204)" stroke-width="1px"></line><line x1="684.375" y1="0" x2="684.375" y2="5" style="visibility: inherit;" fill="rgb(0, 0, 0)" stroke="rgb(204, 204, 204)" stroke-width="1px"></line><line x1="760.4166666666667" y1="0" x2="760.4166666666667" y2="5" style="visibility: inherit;" fill="rgb(0, 0, 0)" stroke="rgb(204, 204, 204)" stroke-width="1px"></line><line x1="836.4583333333333" y1="0" x2="836.4583333333333" y2="5" style="visibility: inherit;" fill="rgb(0, 0, 0)" stroke="rgb(204, 204, 204)" stroke-width="1px"></line><line x1="912.5" y1="0" x2="912.5" y2="5" style="visibility: inherit;" fill="rgb(0, 0, 0)" stroke="rgb(204, 204, 204)" stroke-width="1px"></line></g><g transform="translate(0, 8)"><text x="0" y="0" dx="0em" dy="0.95em" style="text-anchor: middle; visibility: hidden; font-family: &quot;Helvetica Neue&quot;, sans-serif; font-size: 12px; font-weight: 200;" fill="rgb(50, 49, 63)" stroke="none" stroke-width="1px">-50</text><text x="76.04166666666666" y="0" dx="0em" dy="0.95em" style="text-anchor: middle; visibility: hidden; font-family: &quot;Helvetica Neue&quot;, sans-serif; font-size: 12px; font-weight: 200;" fill="rgb(50, 49, 63)" stroke="none" stroke-width="1px">0</text><text x="152.08333333333331" y="0" dx="0em" dy="0.95em" style="text-anchor: middle; visibility: hidden; font-family: &quot;Helvetica Neue&quot;, sans-serif; font-size: 12px; font-weight: 200;" fill="rgb(50, 49, 63)" stroke="none" stroke-width="1px">50</text><text x="228.125" y="0" dx="0em" dy="0.95em" style="text-anchor: middle; visibility: hidden; font-family: &quot;Helvetica Neue&quot;, sans-serif; font-size: 12px; font-weight: 200;" fill="rgb(50, 49, 63)" stroke="none" stroke-width="1px">100</text><text x="304.16666666666663" y="0" dx="0em" dy="0.95em" style="text-anchor: middle; visibility: hidden; font-family: &quot;Helvetica Neue&quot;, sans-serif; font-size: 12px; font-weight: 200;" fill="rgb(50, 49, 63)" stroke="none" stroke-width="1px">150</text><text x="380.20833333333337" y="0" dx="0em" dy="0.95em" style="text-anchor: middle; visibility: hidden; font-family: &quot;Helvetica Neue&quot;, sans-serif; font-size: 12px; font-weight: 200;" fill="rgb(50, 49, 63)" stroke="none" stroke-width="1px">200</text><text x="456.25" y="0" dx="0em" dy="0.95em" style="text-anchor: middle; visibility: hidden; font-family: &quot;Helvetica Neue&quot;, sans-serif; font-size: 12px; font-weight: 200;" fill="rgb(50, 49, 63)" stroke="none" stroke-width="1px">250</text><text x="532.2916666666667" y="0" dx="0em" dy="0.95em" style="text-anchor: middle; visibility: hidden; font-family: &quot;Helvetica Neue&quot;, sans-serif; font-size: 12px; font-weight: 200;" fill="rgb(50, 49, 63)" stroke="none" stroke-width="1px">300</text><text x="608.3333333333333" y="0" dx="0em" dy="0.95em" style="text-anchor: middle; visibility: hidden; font-family: &quot;Helvetica Neue&quot;, sans-serif; font-size: 12px; font-weight: 200;" fill="rgb(50, 49, 63)" stroke="none" stroke-width="1px">350</text><text x="684.375" y="0" dx="0em" dy="0.95em" style="text-anchor: middle; visibility: hidden; font-family: &quot;Helvetica Neue&quot;, sans-serif; font-size: 12px; font-weight: 200;" fill="rgb(50, 49, 63)" stroke="none" stroke-width="1px">400</text><text x="760.4166666666667" y="0" dx="0em" dy="0.95em" style="text-anchor: middle; visibility: hidden; font-family: &quot;Helvetica Neue&quot;, sans-serif; font-size: 12px; font-weight: 200;" fill="rgb(50, 49, 63)" stroke="none" stroke-width="1px">450</text><text x="836.4583333333333" y="0" dx="0em" dy="0.95em" style="text-anchor: middle; visibility: hidden; font-family: &quot;Helvetica Neue&quot;, sans-serif; font-size: 12px; font-weight: 200;" fill="rgb(50, 49, 63)" stroke="none" stroke-width="1px">500</text><text x="912.5" y="0" dx="0em" dy="0.95em" style="text-anchor: middle; visibility: hidden; font-family: &quot;Helvetica Neue&quot;, sans-serif; font-size: 12px; font-weight: 200;" fill="rgb(50, 49, 63)" stroke="none" stroke-width="1px">550</text></g><line x1="0" y1="0" x2="912.5" y2="0" fill="rgb(0, 0, 0)" stroke="rgb(204, 204, 204)" stroke-width="1px"></line></g></g></g></g></svg>