<svg viewBox="0 0 330 200" xmlns="http://www.w3.org/2000/svg"><g><g><g><g><g><line x1="45" y1="180" x2="40" y2="180" style="visibility: inherit;" fill="rgb(0, 0, 0)" stroke="rgb(204, 204, 204)" stroke-width="1px"></line><line x1="45" y1="160" x2="40" y2="160" style="visibility: inherit;" fill="rgb(0, 0, 0)" stroke="rgb(204, 204, 204)" stroke-width="1px"></line><line x1="45" y1="140" x2="40" y2="140" style="visibility: inherit;" fill="rgb(0, 0, 0)" stroke="rgb(204, 204, 204)" stroke-width="1px"></line><line x1="45" y1="120" x2="40" y2="120" style="visibility: inherit;" fill="rgb(0, 0, 0)" stroke="rgb(204, 204, 204)" stroke-width="1px"></line><line x1="45" y1="100" x2="40" y2="100" style="visibility: inherit;" fill="rgb(0, 0, 0)" stroke="rgb(204, 204, 204)" stroke-width="1px"></line><line x1="45" y1="80" x2="40" y2="80" style="visibility: inherit;" fill="rgb(0, 0, 0)" stroke="rgb(204, 204, 204)" stroke-width="1px"></line><line x1="45" y1="59.999999999999986" x2="40" y2="59.999999999999986" style="visibility: inherit;" fill="rgb(0, 0, 0)" stroke="rgb(204, 204, 204)" stroke-width="1px"></line><line x1="45" y1="40.00000000000003" x2="40" y2="40.00000000000003" style="visibility: inherit;" fill="rgb(0, 0, 0)" stroke="rgb(204, 204, 204)" stroke-width="1px"></line><line x1="45" y1="20" x2="40" y2="20" style="visibility: inherit;" fill="rgb(0, 0, 0)" stroke="rgb(204, 204, 204)" stroke-width="1px"></line><line x1="45" y1="0" x2="40" y2="0" style="visibility: inherit;" fill="rgb(0, 0, 0)" stroke="rgb(204, 204, 204)" stroke-width="1px"></line></g><g transform="translate(35, 0)"><text x="0" y="180" dx="0em" dy="0.3em" style="text-anchor: end; visibility: hidden; font-family: &quot;Helvetica Neue&quot;, sans-serif; font-size: 12px; font-weight: 200;" fill="rgb(50, 49, 63)" stroke="none" stroke-width="1px">-5e-3</text><text x="0" y="160" dx="0em" dy="0.3em" style="text-anchor: end; visibility: inherit; font-family: &quot;Helvetica Neue&quot;, sans-serif; font-size: 12px; font-weight: 200;" fill="rgb(50, 49, 63)" stroke="none" stroke-width="1px">0</text><text x="0" y="140" dx="0em" dy="0.3em" style="text-anchor: end; visibility: hidden; font-family: &quot;Helvetica Neue&quot;, sans-serif; font-size: 12px; font-weight: 200;" fill="rgb(50, 49, 63)" stroke="none" stroke-width="1px">5e-3</text><text x="0" y="120" dx="0em" dy="0.3em" style="text-anchor: end; visibility: inherit; font-family: &quot;Helvetica Neue&quot;, sans-serif; font-size: 12px; font-weight: 200;" fill="rgb(50, 49, 63)" stroke="none" stroke-width="1px">0.01</text><text x="0" y="100" dx="0em" dy="0.3em" style="text-anchor: end; visibility: hidden; font-family: &quot;Helvetica Neue&quot;, sans-serif; font-size: 12px; font-weight: 200;" fill="rgb(50, 49, 63)" stroke="none" stroke-width="1px">0.015</text><text x="0" y="80" dx="0em" dy="0.3em" style="text-anchor: end; visibility: inherit; font-family: &quot;Helvetica Neue&quot;, sans-serif; font-size: 12px; font-weight: 200;" fill="rgb(50, 49, 63)" stroke="none" stroke-width="1px">0.02</text><text x="0" y="59.999999999999986" dx="0em" dy="0.3em" style="text-anchor: end; visibility: hidden; font-family: &quot;Helvetica Neue&quot;, sans-serif; font-size: 12px; font-weight: 200;" fill="rgb(50, 49, 63)" stroke="none" stroke-width="1px">0.025</text><text x="0" y="40.00000000000003" dx="0em" dy="0.3em" style="text-anchor: end; visibility: inherit; font-family: &quot;Helvetica Neue&quot;, sans-serif; font-size: 12px; font-weight: 200;" fill="rgb(50, 49, 63)" stroke="none" stroke-width="1px">0.03</text><text x="0" y="20" dx="0em" dy="0.3em" style="text-anchor: end; visibility: hidden; font-family: &quot;Helvetica Neue&quot;, sans-serif; font-size: 12px; font-weight: 200;" fill="rgb(50, 49, 63)" stroke="none" stroke-width="1px">0.035</text><text x="0" y="0" dx="0em" dy="0.3em" style="text-anchor: end; visibility: hidden; font-family: &quot;Helvetica Neue&quot;, sans-serif; font-size: 12px; font-weight: 200;" fill="rgb(50, 49, 63)" stroke="none" stroke-width="1px">0.04</text></g><line x1="45" y1="0" x2="45" y2="180" fill="rgb(0, 0, 0)" stroke="rgb(204, 204, 204)" stroke-width="1px"></line></g></g><g transform="translate(45, 0)" clip-path="url(#clip_0)"><clipPath id="clip_0"><rect width="285" height="180"></rect></clipPath><g><g><g><line x1="0" y1="0" x2="0" y2="180" fill="rgb(0, 0, 0)" stroke="rgb(60, 60, 60)" stroke-width="1px" opacity="0.25"></line><line x1="23.75" y1="0" x2="23.75" y2="180" fill="rgb(0, 0, 0)" stroke="rgb(60, 60, 60)" stroke-width="1px" opacity="0.25"></line><line x1="47.5" y1="0" x2="47.5" y2="180" fill="rgb(0, 0, 0)" stroke="rgb(60, 60, 60)" stroke-width="1px" opacity="0.25"></line><line x1="71.25" y1="0" x2="71.25" y2="180" fill="rgb(0, 0, 0)" stroke="rgb(60, 60, 60)" stroke-width="1px" opacity="0.25"></line><line x1="95" y1="0" x2="95" y2="180" fill="rgb(0, 0, 0)" stroke="rgb(60, 60, 60)" stroke-width="1px" opacity="0.25"></line><line x1="118.75" y1="0" x2="118.75" y2="180" fill="rgb(0, 0, 0)" stroke="rgb(60, 60, 60)" stroke-width="1px" opacity="0.25"></line><line x1="142.5" y1="0" x2="142.5" y2="180" fill="rgb(0, 0, 0)" stroke="rgb(60, 60, 60)" stroke-width="1px" opacity="0.25"></line><line x1="166.25" y1="0" x2="166.25" y2="180" fill="rgb(0, 0, 0)" stroke="rgb(60, 60, 60)" stroke-width="1px" opacity="0.25"></line><line x1="190" y1="0" x2="190" y2="180" fill="rgb(0, 0, 0)" stroke="rgb(60, 60, 60)" stroke-width="1px" opacity="0.25"></line><line x1="213.75" y1="0" x2="213.75" y2="180" fill="rgb(0, 0, 0)" stroke="rgb(60, 60, 60)" stroke-width="1px" opacity="0.25"></line><line x1="237.5" y1="0" x2="237.5" y2="180" fill="rgb(0, 0, 0)" stroke="rgb(60, 60, 60)" stroke-width="1px" opacity="0.25"></line><line x1="261.25" y1="0" x2="261.25" y2="180" fill="rgb(0, 0, 0)" stroke="rgb(60, 60, 60)" stroke-width="1px" opacity="0.25"></line><line x1="285" y1="0" x2="285" y2="180" fill="rgb(0, 0, 0)" stroke="rgb(60, 60, 60)" stroke-width="1px" opacity="0.25"></line></g><g><line x1="0" y1="180" x2="285" y2="180" fill="rgb(0, 0, 0)" stroke="rgb(60, 60, 60)" stroke-width="1px" opacity="0.25"></line><line x1="0" y1="160" x2="285" y2="160" fill="rgb(0, 0, 0)" stroke="rgb(60, 60, 60)" stroke-width="1px" opacity="0.25"></line><line x1="0" y1="140" x2="285" y2="140" fill="rgb(0, 0, 0)" stroke="rgb(60, 60, 60)" stroke-width="1px" opacity="0.25"></line><line x1="0" y1="120" x2="285" y2="120" fill="rgb(0, 0, 0)" stroke="rgb(60, 60, 60)" stroke-width="1px" opacity="0.25"></line><line x1="0" y1="100" x2="285" y2="100" fill="rgb(0, 0, 0)" stroke="rgb(60, 60, 60)" stroke-width="1px" opacity="0.25"></line><line x1="0" y1="80" x2="285" y2="80" fill="rgb(0, 0, 0)" stroke="rgb(60, 60, 60)" stroke-width="1px" opacity="0.25"></line><line x1="0" y1="59.999999999999986" x2="285" y2="59.999999999999986" fill="rgb(0, 0, 0)" stroke="rgb(60, 60, 60)" stroke-width="1px" opacity="0.25"></line><line x1="0" y1="40.00000000000003" x2="285" y2="40.00000000000003" fill="rgb(0, 0, 0)" stroke="rgb(60, 60, 60)" stroke-width="1px" opacity="0.25"></line><line x1="0" y1="20" x2="285" y2="20" fill="rgb(0, 0, 0)" stroke="rgb(60, 60, 60)" stroke-width="1px" opacity="0.25"></line><line x1="0" y1="0" x2="285" y2="0" fill="rgb(0, 0, 0)" stroke="rgb(60, 60, 60)" stroke-width="1px" opacity="0.25"></line></g></g></g><g><g><line x1="0" y1="160" x2="285" y2="160" fill="rgb(0, 0, 0)" stroke="rgb(153, 153, 153)" stroke-width="1.5px"></line></g></g><g><g><line x1="23.75" y1="0" x2="23.75" y2="180" fill="rgb(0, 0, 0)" stroke="rgb(153, 153, 153)" stroke-width="1.5px"></line></g></g><g><g><g><g><g><path stroke="rgb(255, 112, 67)" stroke-width="2px" d="M26.124999999999996,-7.327722816635031L26.6,0.18326775658272254L27.075,4.005675593999769L27.55,8.42650710975829L28.025,13.091658361128168L28.5,16.013803182877666L28.975,17.91872461921389L29.45,19.33172786535789L29.924999999999997,23.13202811556917L30.400000000000002,26.271600098124765L30.875,27.91617474197153L31.35,30.74722765748777L31.825,32.39004320317255L32.3,35.902679904480124L32.775,38.4538917755624L33.25,36.6543180166893L33.725,40.20674257766356L34.199999999999996,40.884410543236726L34.675000000000004,41.53219923538532L35.15,42.9323641837523L35.625,44.825047644814134L36.1,46.86420339008549L36.574999999999996,47.07426690639724L37.050000000000004,46.49653177182651L37.525,47.9044284399732L38,49.10009161455727L38.475,49.794902235869756L38.949999999999996,49.24155007974662L39.425000000000004,51.90253546218497L39.900000000000006,52.111888116504076L40.375,52.32851003983849L40.85,52.95831582565994L41.324999999999996,53.443106185924435L41.8,53.1673101010922L42.275000000000006,54.20296439207969L42.75,56.32005208112156L43.225,57.68802948884846L43.699999999999996,58.37748901919173L44.175,58.32362590357113L44.650000000000006,59.53644906369209L45.125,60.38891932306457L45.6,61.76581919757372L46.074999999999996,61.18458319047484L46.55,61.58926217758841L47.025000000000006,61.78027611377502L47.5,63.815530904557235L47.975,62.295719485532345L48.45,64.61539381805534L48.925,64.66052087583235L49.4,64.72238834165393L49.875,64.64463874973568L50.35,64.37571135328828L50.825,66.09675006369744L51.3,67.4271223324538L51.775,68.15917559731017L52.24999999999999,68.37445502440936L52.725,68.95962503529077L53.2,69.95432607517533L53.675,67.98995597473316L54.15,69.12640215940196L54.62500000000001,70.2331973432715L55.1,69.71597297902197L55.575,68.18925359198624L56.05,70.14730726688607L56.525,71.28157255059185L57,73.29049871567312L57.475,71.24228719594134L57.95,73.72767140699656L58.425,71.94605261226435L58.9,72.24670368516408L59.375,73.20869897654033L59.849999999999994,72.0437119892262L60.325,72.09604528492824L60.800000000000004,69.70505885449727L61.275,74.72827262978363L61.75,73.3581749635971L62.224999999999994,75.2668346189282L62.7,76.18108327524791L63.175000000000004,75.75080499253826L63.65,75.07439223052359L64.125,75.75350408030329L64.6,75.95675375624167L65.075,76.93653062917986L65.55,76.99426410161375L66.02499999999999,73.95586453415703L66.5,76.22650457941144L66.975,76.31779869510325L67.45,75.14344394274706L67.925,76.4678536657581L68.39999999999999,76.65662424588736L68.875,80.63248513236364L69.35000000000001,79.02368878182602L69.825,80.66456445966261L70.3,81.6992799574977L70.77499999999999,81.40724027960573L71.25,81.93021038060829L71.725,84.43212663463022L72.2,86.067523928471L72.675,86.61494479893898L73.14999999999999,87.28188911866698L73.62500000000001,87.03564333791466L74.10000000000001,87.87076156064826L74.575,89.28325605824564L75.05,91.05543239375932L75.525,91.15499367392648L76,91.07897490308636L76.475,89.68117266920775L76.95,89.51196771876556L77.425,91.61452318439808L77.89999999999999,93.29360488182262L78.375,92.78535248712275L78.85000000000001,91.2520327679847L79.325,93.16429868415203L79.80000000000001,94.12628182813647L80.275,95.04249995377732L80.75,97.30130163089677L81.225,95.75420002494003L81.7,95.14656436654178L82.175,94.6929813159242L82.64999999999999,96.6268470724067L83.125,94.98385577438121L83.6,96.15924047850277L84.07499999999999,95.05054847850029L84.55000000000001,93.59095535548701L85.025,92.87496973199949L85.5,94.75502258016648L85.97500000000001,95.70727423115959L86.45,96.61854008009665L86.925,95.90954148275037L87.39999999999999,96.14373328389155L87.875,94.74150432408706L88.35,95.12722094810518L88.82499999999999,96.93402701590367L89.30000000000001,97.0445119975442L89.775,96.57725498905386L90.25,96.64371040958527L90.72500000000001,95.34100989996409L91.2,97.7261217862309L91.675,97.74568834483273L92.14999999999999,98.32384227859762L92.625,97.77880477397315L93.1,96.09425966434878L93.57499999999999,97.39953365619898L94.05000000000001,98.11488137659978L94.525,97.24928191910715L95,96.88388700253088L95.47500000000001,96.43564900735805L95.95,96.77819622146959L96.425,96.52146966807766L96.9,97.64146811695531L97.375,97.9942947443225L97.85,96.29194401597368L98.32499999999999,95.58367850122086L98.8,95.38185812078257L99.27499999999999,97.0485982718607L99.75,99.4410888208473L100.22500000000001,98.34592341503644L100.7,96.87097989989009L101.175,97.98197515888624L101.65,97.53134136249787L102.125,97.41181149989467L102.6,96.7660531694299L103.075,96.46852369872366L103.55,96.79540572027942L104.02499999999999,97.64554242766249L104.49999999999999,97.00514602945059L104.97500000000001,97.29458819798117L105.45,97.32418758256128L105.925,98.83185322632129L106.4,99.76103356808265L106.875,99.25246352749969L107.35,99.27840742348376L107.825,96.65542216824736L108.3,97.5928730471566L108.77499999999999,96.02462355516163L109.25000000000001,98.49096741808538L109.72500000000001,98.36241243203332L110.2,100.54141806316287L110.675,99.25541738719886L111.15,100.21298050910917L111.625,99.77915382403546L112.1,96.69765970717913L112.575,98.03247828251746L113.05,97.39180278162137L113.52499999999999,98.5407850824593L114,98.48313007848253L114.47500000000001,98.42705556211942L114.95,99.35372065578744L115.42500000000001,98.17349750444201L115.9,97.64937805321757L116.375,97.49698631278838L116.85,99.11755610890486L117.325,100.2690084540087L117.8,97.88348148842084L118.27499999999999,97.94245428192274L118.75,98.38481102196965L119.225,100.97109433298465L119.69999999999999,101.44314108064863L120.17500000000001,99.99467091423924L120.65,101.94334922231826L121.125,102.36938761471266L121.60000000000001,103.47436640738579L122.075,104.560497487063L122.55,101.82500808505701L123.02499999999999,102.40540605228239L123.5,101.6252245988911L123.975,102.34022471228036L124.44999999999999,101.15515782188649L124.92500000000001,101.72114869207904L125.4,103.24705892950752L125.875,103.11948504537618L126.35000000000001,101.1081441431658L126.825,101.57127250369885L127.3,103.64823227606117L127.77499999999999,103.65079596925914L128.25,102.03268972211563L128.725,103.49163315995622L129.2,101.60408700885826L129.675,101.94360628952059L130.15,102.24816593664569L130.625,102.65890588246394L131.1,102.39625465799934L131.575,101.73829485136012L132.04999999999998,101.0931466767653L132.525,103.69631998237755L133,103.24562098083963L133.475,102.14203742443365L133.95,101.9315042334726L134.425,101.56570477711742L134.9,100.69119836942902L135.375,102.33398166928619L135.85,101.42209903975683L136.325,102.64578769552921L136.79999999999998,102.94956594674714L137.275,101.86383199673251L137.75,102.8294432877383L138.225,103.22698907368668L138.70000000000002,102.28031692691616L139.175,101.22521405093653L139.65,99.84924301310053L140.125,98.84969380380912L140.6,100.40590451289536L141.075,99.95840058403802L141.54999999999998,101.3327333669519L142.025,101.86313643101784L142.5,102.36079123046359L142.97500000000002,103.15198967710948L143.45,102.23833179387937L143.925,102.05707666822367L144.4,103.08869604795035L144.875,103.64927151518377L145.35,101.46437608431168L145.82500000000002,102.45772459048264L146.29999999999998,101.9140824552669L146.775,100.81429146982991L147.25000000000003,100.95112087284184L147.725,102.0726519939581L148.20000000000002,101.44393486483571L148.67499999999998,101.07821871461675L149.15,103.13038611186865L149.625,103.58488603695228L150.1,101.90664550223346L150.575,103.27949858044622L151.05,101.1466576238575L151.52499999999998,102.28626981855048L152,101.99196365762123L152.47500000000002,103.75630985074262L152.95,103.43195718749178L153.425,101.99535913600809L153.9,101.23591135343484L154.375,102.20907479763372L154.85,102.31215858602728L155.32500000000002,104.28506341066482L155.79999999999998,104.50437633089139L156.275,102.65999262268491L156.75,103.57963272771327L157.225,103.94658874774628L157.70000000000002,103.12336517157942L158.175,103.04010851849789L158.65,102.83117254775568L159.125,104.35528755308272L159.60000000000002,103.32524144721677L160.075,104.54820158524899L160.55,104.07581807639355L161.02499999999998,103.5050801722178L161.5,103.68921764421279L161.975,103.41935543851741L162.45,103.11045008085183L162.92499999999998,102.38629577864415L163.4,101.75796889250998L163.875,102.56515313974334L164.35,102.3745349633176L164.82500000000002,103.03730431720489L165.29999999999998,103.42519225791021L165.775,102.81369675466374L166.25,101.97641449730965L166.725,103.2424732301317L167.2,103.0349366816093L167.675,102.36881267739591L168.14999999999998,101.47096861429964L168.625,102.33455979244681L169.10000000000002,103.50725992570383L169.575,102.48263886004723L170.05,102.33164251107L170.525,102.73319131289733L171,102.46482423636205L171.475,102.33134282644325L171.95000000000002,101.58029194483598L172.42499999999998,101.6205622900095L172.9,100.32026309660472L173.37499999999997,100.69964873129963L173.85,101.38715378841663L174.32500000000002,102.74910516977849L174.79999999999998,101.23606519365633L175.275,100.33729664364054L175.75,100.58861662077065L176.225,100.54285931066963L176.7,100.29060898707088L177.175,101.42498015454873L177.64999999999998,102.68458598310629L178.125,102.75711931857394L178.60000000000002,102.86362056775646L179.075,103.13527479674671L179.55,104.26093897167594L180.025,104.0901556667313L180.5,103.08950180152804L180.975,103.13119604790062L181.45000000000002,102.89266022803693L181.92499999999998,101.52571679808085L182.4,101.19951678310268L182.87500000000003,102.98677774068373L183.35,101.28101248619949L183.82500000000002,100.67781823323962L184.29999999999998,101.61363933948753L184.775,101.02416780273961L185.25,101.11000506091622L185.725,100.96430246835058L186.2,101.96140828612509L186.675,103.8044581585113L187.14999999999998,103.5241731269946L187.625,104.3008191742772L188.10000000000002,104.22315134753431L188.575,103.37503507226494L189.05,102.8277828961002L189.525,103.93949619945212L190,103.53660888681604L190.475,103.56528936153526L190.95000000000002,103.03437780336067L191.42499999999998,102.08092964288905L191.9,102.35152737258264L192.375,102.86209634517662L192.85,103.19435978874583L193.32500000000002,104.03542593088758L193.8,103.84655365328199L194.275,102.50956183064108L194.75,102.40945580833032L195.22500000000002,103.10780020494983L195.7,102.33648569547965L196.175,101.80961454608341L196.64999999999998,102.41019937216223L197.125,102.81432987939702L197.6,100.42304433400264L198.075,100.13678745636244L198.54999999999998,102.17216501360475L199.025,100.25856870249116L199.5,99.78835563561441L199.975,102.75938225210382L200.45000000000002,100.12151212943002L200.92499999999998,100.68776697786095L201.4,102.63151664061212L201.875,101.91603737189092L202.35,103.41234342523646L202.825,101.86401949088712L203.3,103.08074465847574L203.77499999999998,103.52138132725098L204.25,102.44335198923312L204.72500000000002,101.63610699489332L205.2,101.7787889403976L205.675,102.24884210603696L206.15,101.45960419522083L206.625,100.10698979584191L207.1,100.84754249744304L207.57500000000002,102.19780660446101L208.04999999999998,103.40885547861822L208.525,102.56767402926307L208.99999999999997,101.87476647400392L209.475,102.1157637983771L209.95000000000002,102.05846934021781L210.42499999999998,103.11860381663602L210.9,103.73071300447441L211.375,103.47216849005494L211.85,103.61689039752646L212.325,103.10034125259973L212.8,105.07421141392861L213.27499999999998,102.34471223072335L213.75,102.41379768440798L214.22500000000002,101.52032775157497L214.7,100.23457582279327L215.175,102.26042726924588L215.65,103.33342790180784L216.125,103.17711788162197L216.6,104.24198804941537L217.07500000000002,102.4398093738959L217.54999999999998,101.77828129045997L218.025,102.67965493150254L218.50000000000003,101.22072391240418L218.975,102.72717286663423L219.45000000000002,101.20196073959573L219.92499999999998,102.82594513720454L220.4,102.6395576705109L220.875,103.69867780861681L221.35,102.69066208039179L221.825,103.81626488825354L222.3,103.08926637208863L222.77499999999998,102.16928318283797L223.25,99.71376082385683L223.72500000000002,100.16938782385054L224.2,101.78025797993578L224.675,100.5868031143584L225.15,100.27184412237632L225.625,101.02749058816806L226.1,102.71120327242599L226.57500000000002,101.91293655352823L227.04999999999998,103.01104091714042L227.525,102.55735601848494L228,101.8570198170312L228.475,100.47263101053046L228.95000000000002,100.52835604734304L229.425,101.9070768427079L229.9,102.00793284602314L230.375,101.7054809834203L230.85000000000002,101.7585720244432L231.325,102.72951570888665L231.8,102.61536173665706L232.27499999999998,100.54334862616172L232.75,100.88259192458695L233.225,103.03951622338238L233.7,103.59319186980214L234.17499999999998,103.83815691932848L234.65,103.6517716411639L235.125,104.35778325580887L235.6,102.15871432890494L236.07500000000002,103.65070187729596L236.54999999999998,101.73996850062608L237.025,102.52475621824979L237.5,100.90323759630633L237.975,100.36055572936124L238.45,100.19911121195071L238.925,101.85459274569459L239.39999999999998,102.09640865635458L239.875,101.95081082052936L240.35000000000002,102.05319009463162L240.825,102.3689238562594L241.3,102.2795797785765L241.775,102.66910704378164L242.25,102.64950515272544L242.725,103.36500711108641L243.20000000000002,103.32203684368966L243.67499999999998,103.53958766531488L244.15,106.03268683476175L244.62499999999997,104.48376226736858L245.1,103.54862140604111L245.57500000000002,103.72626791589411L246.04999999999998,103.69169116135211L246.525,102.71364682981832L247,102.6965586785642L247.475,103.43462422157334L247.95,104.75427171388272L248.425,102.69728452443482L248.89999999999998,103.19089824247003L249.375,103.82617219857956L249.85000000000002,103.45248993976463L250.325,104.300992827079L250.8,103.42390807894546L251.275,102.37184740559863L251.75,100.29047916803721L252.225,100.28767246290424L252.70000000000002,99.99483763149009L253.17499999999998,98.95701515061035L253.65,100.5569535337828L254.12500000000003,100.04933696049109L254.6,102.20271057520898L255.07500000000002,101.82337282082194L255.54999999999998,100.01320277440998L256.025,102.8329513954428L256.5,103.21176686807317L256.97499999999997,101.1153243715992L257.45,101.79825167271082L257.925,101.28301400192132L258.4,103.04970001129836L258.875,103.38515755503492L259.35,103.18963353019427L259.825,103.52993228543681L260.3,103.56913631265688L260.77500000000003,103.2454482621272" style="fill: none;" fill="none"></path></g></g></g></g><g opacity="0.2"><g><g><g><path stroke="rgb(255, 112, 67)" stroke-width="2px" d="M25.65,-1.7936789989471436L26.124999999999996,3.7434136867523193L26.6,10.924104452133179L27.075,9.57878291606903L27.55,14.946374893188477L28.025,20.018864274024963L28.5,20.370516777038574L28.975,20.765740275382996L29.45,21.446619033813477L29.924999999999997,28.8250333070755L30.400000000000002,30.977267622947693L30.875,30.381876826286316L31.35,34.99260902404785L31.825,34.85384941101074L32.3,41.171099841594696L32.775,42.28047639131546L33.25,33.95505607128143L33.725,45.535262525081635L34.199999999999996,41.90089911222458L34.675000000000004,42.503874599933624L35.15,45.03260165452957L35.625,47.6640647649765L36.1,49.92293179035187L36.574999999999996,47.38936185836792L37.050000000000004,45.62992960214615L37.525,50.01627266407013L38,50.89358597993851L38.475,50.83711802959442L38.949999999999996,48.411521911621094L39.425000000000004,55.89401334524153L39.900000000000006,52.42591708898546L40.375,52.6534429192543L40.85,53.90302449464798L41.324999999999996,54.170291721820846L41.8,52.75361597537996L42.275000000000006,55.756445825099945L42.75,59.495683610439286L43.225,59.73999559879303L43.699999999999996,59.41167831420897L44.175,58.24283123016356L44.650000000000006,61.35568380355835L45.125,61.667624711990356L45.6,63.83116900920868L46.074999999999996,60.31272917985915L46.55,62.19628065824507L47.025000000000006,62.06679701805113L47.5,66.86841309070586L47.975,60.01600235700606L48.45,68.09490531682968L48.925,64.7282114624977L49.4,64.81518954038619L49.875,64.52801436185835L50.35,63.9723202586174L50.825,68.6783081293106L51.3,69.42268073558806L51.775,69.25725549459456L52.24999999999999,68.69737416505812L52.725,69.83738005161284L53.2,71.44637763500212L53.675,65.04340082406996L54.15,70.83107143640517L54.62500000000001,71.89339011907576L55.1,68.9401364326477L55.575,65.89917451143265L56.05,73.08438777923584L56.525,72.9829704761505L57,76.30388796329497L57.475,68.16996991634369L57.95,77.4557477235794L58.425,69.273624420166L58.9,72.6976802945137L59.375,74.65169191360474L59.849999999999994,70.296231508255L60.325,72.17454522848129L60.800000000000004,66.11857920885086L61.275,82.26309329271317L61.75,71.30302846431732L62.224999999999994,78.1298241019249L62.7,77.55245625972746L63.175000000000004,75.10538756847382L63.65,74.05977308750153L64.125,76.77217185497283L64.6,76.26162827014923L65.075,78.40619593858717L65.55,77.08086431026459L66.02499999999999,69.39826518297194L66.5,79.63246464729309L66.975,76.4547398686409L67.45,73.3819118142128L67.925,78.45446825027466L68.39999999999999,76.93978011608124L68.875,86.5962764620781L69.35000000000001,76.61049425601958L69.825,83.12587797641753L70.3,83.25135320425034L70.77499999999999,80.96918076276778L71.25,82.71466553211211L71.725,88.18500101566313L72.2,88.52061986923218L72.675,87.43607610464096L73.14999999999999,88.28230559825897L73.62500000000001,86.6662746667862L74.10000000000001,89.12343889474867L74.575,91.40199780464172L75.05,93.71369689702986L75.525,91.30433559417723L76,90.96494674682617L76.475,87.58446931838989L76.95,89.25816029310226L77.425,94.76835638284682L77.89999999999999,95.81222742795943L78.375,92.02297389507294L78.85000000000001,88.95205318927765L79.325,96.03269755840302L79.80000000000001,95.56925654411316L80.275,96.4168271422386L80.75,100.68950414657591L81.225,93.43354761600494L81.7,94.2351108789444L82.175,94.01260673999786L82.64999999999999,99.52764570713043L83.125,92.51936882734299L83.6,97.92231753468512L84.07499999999999,93.38751047849654L84.55000000000001,91.40156567096709L85.025,91.80099129676819L85.5,97.57510185241699L85.97500000000001,97.13565170764923L86.45,97.98543885350227L86.925,94.84604358673094L87.39999999999999,96.49502098560333L87.875,92.63816088438034L88.35,95.70579588413239L88.82499999999999,99.6442361176014L89.30000000000001,97.21023947000502L89.775,95.87636947631836L90.25,96.74339354038239L90.72500000000001,93.38695913553238L91.2,101.3037896156311L91.675,97.77503818273544L92.14999999999999,99.19107317924498L92.625,96.96124851703642L93.1,93.56744199991226L93.57499999999999,99.3574446439743L94.05000000000001,99.18790295720099L94.525,95.9508827328682L95,96.33579462766646L95.47500000000001,95.76329201459883L95.95,97.29201704263686L96.425,96.13637983798981L96.9,99.32146579027176L97.375,98.52353468537329L97.85,93.73841792345047L98.32499999999999,94.52128022909163L98.8,95.07912755012511L99.27499999999999,99.54870849847792L99.75,103.02982464432716L100.22500000000001,96.70317530632019L100.7,94.65856462717056L101.175,99.64846804738043L101.65,96.85539066791534L102.125,97.23251670598984L102.6,95.79741567373276L103.075,96.02222949266434L103.55,97.28572875261305L104.02499999999999,98.9207474887371L104.49999999999999,96.0445514321327L104.97500000000001,97.72875145077705L105.45,97.36858665943146L105.925,101.09335169196129L106.4,101.15480408072472L106.875,98.4896084666252L107.35,99.31732326745987L107.825,92.72094428539275L108.3,98.99904936552048L108.77499999999999,93.67224931716919L109.25000000000001,102.190483212471L109.72500000000001,98.16957995295525L110.2,103.80992650985718L110.675,97.32641637325285L111.15,101.64932519197464L111.625,99.12841379642487L112.1,92.07541853189467L112.575,100.03470614552496L113.05,96.43078953027724L113.52499999999999,100.26425853371619L114,98.39664757251738L114.47500000000001,98.34294378757477L114.95,100.74371829628943L115.42500000000001,96.40316277742384L115.9,96.8631988763809L116.375,97.26839870214461L116.85,101.54841080307959L117.325,101.99618697166443L117.8,94.30519104003905L118.27499999999999,98.03091347217558L118.75,99.04834613204001L119.225,104.85051929950714L119.69999999999999,102.15121120214462L120.17500000000001,97.82196566462517L120.65,104.8663666844368L121.125,103.00844520330429L121.60000000000001,105.13183459639549L122.075,106.18969410657881L122.55,97.72177398204802L123.02499999999999,103.27600300312042L123.5,100.45495241880417L123.975,103.41272488236427L124.44999999999999,99.3775574862957L124.92500000000001,102.57013499736784L125.4,105.53592428565025L125.875,102.92812421917914L126.35000000000001,98.09113278985022L126.825,102.26596504449844L127.3,106.76367193460464L127.77499999999999,103.65464150905609L128.25,99.60553035140038L128.725,105.68004831671715L129.2,98.7727677822113L129.675,102.45288521051405L130.15,102.70500540733337L130.625,103.27501580119132L131.1,102.0022778213024L131.575,100.75135514140129L132.04999999999998,100.12542441487312L132.525,107.6010799407959L133,102.56957247853279L133.475,100.48666208982466L133.95,101.615704447031L134.425,101.01700559258461L134.9,99.37943875789642L135.375,104.79815661907196L135.85,100.05427509546278L136.325,104.48132067918777L136.79999999999998,103.40523332357407L137.275,100.23523107171059L137.75,104.27786022424696L138.225,103.82330775260925L138.70000000000002,100.86030870676039L139.175,99.64255973696709L139.65,97.78528645634651L140.125,97.35036998987196L140.6,102.74022057652472L141.075,99.28714469075202L141.54999999999998,103.39423254132271L142.025,102.65874102711678L142.5,103.10727342963219L142.97500000000002,104.33878734707832L143.45,100.8678449690342L143.925,101.78519397974014L144.4,104.63612511754035L144.875,104.49013471603394L145.35,98.18703293800353L145.82500000000002,103.94774734973906L146.29999999999998,101.09861925244331L146.775,99.16460499167442L147.25000000000003,101.15636497735977L147.725,103.75494867563246L148.20000000000002,100.5008591711521L148.67499999999998,100.52964448928832L149.15,106.20863720774649L149.625,104.26663592457771L150.1,99.38928470015524L150.575,105.33877819776534L151.05,97.94739618897437L151.52499999999998,103.99568811058998L152,101.55050441622734L152.47500000000002,106.40282914042471L152.95,102.9454281926155L153.425,99.84046205878258L153.9,100.09673967957497L154.375,103.66881996393202L154.85,102.46678426861762L155.32500000000002,107.24442064762114L155.79999999999998,104.83334571123122L156.275,99.89341706037521L156.75,104.9590928852558L157.225,104.49702277779579L157.70000000000002,101.88852980732918L158.175,102.91522353887558L158.65,102.51776859164238L159.125,106.64146006107329L159.60000000000002,101.7801722884178L160.075,106.38264179229735L160.55,103.36724281311035L161.02499999999998,102.6489733159542L161.5,103.96542385220528L161.975,103.01456212997435L162.45,102.64709204435349L162.92499999999998,101.30006432533264L163.4,100.81547856330872L163.875,103.77592951059341L164.35,102.08860769867896L164.82500000000002,104.03145834803581L165.29999999999998,104.00702416896819L165.775,101.896453499794L166.25,100.72049111127853L166.725,105.14156132936478L167.2,102.72363185882568L167.675,101.3696266710758L168.14999999999998,100.12420251965523L168.625,103.62994655966759L169.10000000000002,105.26631012558936L169.575,100.94570726156233L170.05,102.10514798760414L170.525,103.33551451563835L171,102.06227362155913L171.475,102.131120711565L171.95000000000002,100.45371562242508L172.42499999999998,101.68096780776976L172.9,98.36981430649756L173.37499999999997,101.26872718334197L173.85,102.4184113740921L174.32500000000002,104.79203224182129L174.79999999999998,98.9665052294731L175.275,98.98914381861687L175.75,100.96559658646584L176.225,100.4742233455181L176.7,99.91223350167273L177.175,103.12653690576553L177.64999999999998,104.5739947259426L178.125,102.86591932177544L178.60000000000002,103.02337244153023L179.075,103.54275614023207L179.55,105.94943523406981L180.025,103.83398070931435L180.5,101.58852100372314L180.975,103.19373741745949L181.45000000000002,102.53485649824142L181.92499999999998,99.47530165314673L182.4,100.71021676063538L182.87500000000003,105.66766917705534L183.35,98.72236460447311L183.82500000000002,99.7730268537998L184.29999999999998,103.0173709988594L184.775,100.13996049761772L185.25,101.23876094818115L185.725,100.74574857950209L186.2,103.45706701278687L186.675,106.5690329670906L187.14999999999998,103.10374557971953L187.625,105.46578824520111L188.10000000000002,104.10664960741997L188.575,102.10286065936087L189.05,102.00690463185309L189.525,105.60706615447997L190,102.93227791786194L190.475,103.60831007361412L190.95000000000002,102.23801046609877L191.42499999999998,100.65075740218163L191.9,102.75742396712303L192.375,103.6279498040676L192.85,103.69275495409964L193.32500000000002,105.29702514410019L193.8,103.56324523687363L194.275,100.50407409667969L194.75,102.25929677486418L195.22500000000002,104.15531679987906L195.7,101.17951393127441L196.175,101.01930782198906L196.64999999999998,103.31107661128043L197.125,103.42052564024924L197.6,96.8361160159111L198.075,99.70740213990211L198.54999999999998,105.22523134946823L199.025,97.38817423582076L199.5,99.0830360352993L199.975,107.2159221768379L200.45000000000002,96.16470694541931L200.92499999999998,101.53714925050734L201.4,105.54714113473892L201.875,100.84281846880913L202.35,105.65680250525473L202.825,99.54153358936308L203.3,104.90583240985869L203.77499999999998,104.18233633041382L204.25,100.82630798220634L204.72500000000002,100.42523950338362L205.2,101.99281185865402L205.675,102.95392185449599L206.15,100.27574732899666L206.625,98.07806819677351L207.1,101.95837154984473L207.57500000000002,104.22320276498795L208.04999999999998,105.22542878985405L208.525,101.30590185523033L208.99999999999997,100.83540514111519L209.475,102.47725978493689L209.95000000000002,101.9725276529789L210.42499999999998,104.70880553126335L210.9,104.64887678623198L211.375,103.08435171842575L211.85,103.83397325873374L212.325,102.32551753520964L212.8,108.03501665592192L213.27499999999998,98.25046345591545L213.75,102.5174258649349L214.22500000000002,100.18012285232544L214.7,98.30594792962074L215.175,105.29920443892479L215.65,104.94292885065079L216.125,102.94265285134315L216.6,105.83929330110549L217.07500000000002,99.73654136061668L217.54999999999998,100.78598916530609L218.025,104.0317153930664L218.50000000000003,99.03232738375664L218.975,104.98684629797935L219.45000000000002,98.91414254903793L219.92499999999998,105.26192173361778L220.4,102.35997647047043L220.875,105.28735801577568L221.35,101.17863848805426L221.825,105.50466910004614L222.3,101.99876859784126L222.77499999999998,100.78930839896202L223.25,96.03047728538513L223.72500000000002,100.8528283238411L224.2,104.19656321406364L224.675,98.79662081599234L225.15,99.79940563440323L225.625,102.16096028685568L226.1,105.23677229881285L226.57500000000002,100.71553647518157L227.04999999999998,104.65819746255873L227.525,101.87682867050171L228,100.8065155148506L228.475,98.39604780077933L228.95000000000002,100.61194360256195L229.425,103.97515803575514L229.9,102.159216850996L230.375,101.25180318951607L230.85000000000002,101.83820858597754L231.325,104.18593123555182L231.8,102.44413077831268L232.27499999999998,97.43532896041869L232.75,101.3914568722248L233.225,106.27490267157553L233.7,104.42370533943175L234.17499999999998,104.20560449361801L234.65,103.37219372391701L235.125,105.41680067777634L235.6,98.86011093854904L236.07500000000002,105.8886831998825L236.54999999999998,98.87386843562125L237.025,103.70193779468536L237.5,98.47095966339111L237.975,99.54653292894362L238.45,99.95694443583487L238.925,104.33781504631042L239.39999999999998,102.45913252234459L239.875,101.73241406679152L240.35000000000002,102.20675900578497L240.825,102.8425244987011L241.3,102.14556366205215L241.775,103.25339794158936L242.25,102.62010231614113L242.725,104.43826004862784L243.20000000000002,103.25758144259451L243.67499999999998,103.86591389775276L244.15,109.77233558893202L244.62499999999997,102.16037541627882L245.1,102.1459101140499L245.57500000000002,103.9927376806736L246.04999999999998,103.63982602953911L246.525,101.24658033251761L247,102.67092645168304L247.475,104.54172253608702L247.95,106.73374295234679L248.425,99.61180374026299L248.89999999999998,103.93131881952284L249.375,104.77908313274382L249.85000000000002,102.89196655154227L250.325,105.57374715805054L250.8,102.10828095674515L251.275,100.79375639557837L251.75,97.1684268116951L252.225,100.28346240520477L252.70000000000002,99.55558538436888L253.17499999999998,97.40028142929077L253.65,102.95686110854147L254.12500000000003,99.2879121005535L254.6,105.43277099728583L255.07500000000002,101.25436618924141L255.54999999999998,97.29794770479201L256.025,107.06257432699203L256.5,103.77999007701874L256.97499999999997,97.97066062688828L257.45,102.8226426243782L257.925,100.51015749573708L258.4,105.69972902536392L258.875,103.8883438706398L259.35,102.89634749293327L259.825,104.04038041830063L260.3,103.62794235348701L260.77500000000003,102.75991618633269" style="fill: none;" fill="none"></path></g></g></g></g></g></g><g transform="translate(45, 180)" clip-path="url(#clip_1)"><clipPath id="clip_1"><rect width="285" height="20"></rect></clipPath><g><g><line x1="0" y1="0" x2="0" y2="5" style="visibility: inherit;" fill="rgb(0, 0, 0)" stroke="rgb(204, 204, 204)" stroke-width="1px"></line><line x1="23.75" y1="0" x2="23.75" y2="5" style="visibility: inherit;" fill="rgb(0, 0, 0)" stroke="rgb(204, 204, 204)" stroke-width="1px"></line><line x1="47.5" y1="0" x2="47.5" y2="5" style="visibility: inherit;" fill="rgb(0, 0, 0)" stroke="rgb(204, 204, 204)" stroke-width="1px"></line><line x1="71.25" y1="0" x2="71.25" y2="5" style="visibility: inherit;" fill="rgb(0, 0, 0)" stroke="rgb(204, 204, 204)" stroke-width="1px"></line><line x1="95" y1="0" x2="95" y2="5" style="visibility: inherit;" fill="rgb(0, 0, 0)" stroke="rgb(204, 204, 204)" stroke-width="1px"></line><line x1="118.75" y1="0" x2="118.75" y2="5" style="visibility: inherit;" fill="rgb(0, 0, 0)" stroke="rgb(204, 204, 204)" stroke-width="1px"></line><line x1="142.5" y1="0" x2="142.5" y2="5" style="visibility: inherit;" fill="rgb(0, 0, 0)" stroke="rgb(204, 204, 204)" stroke-width="1px"></line><line x1="166.25" y1="0" x2="166.25" y2="5" style="visibility: inherit;" fill="rgb(0, 0, 0)" stroke="rgb(204, 204, 204)" stroke-width="1px"></line><line x1="190" y1="0" x2="190" y2="5" style="visibility: inherit;" fill="rgb(0, 0, 0)" stroke="rgb(204, 204, 204)" stroke-width="1px"></line><line x1="213.75" y1="0" x2="213.75" y2="5" style="visibility: inherit;" fill="rgb(0, 0, 0)" stroke="rgb(204, 204, 204)" stroke-width="1px"></line><line x1="237.5" y1="0" x2="237.5" y2="5" style="visibility: inherit;" fill="rgb(0, 0, 0)" stroke="rgb(204, 204, 204)" stroke-width="1px"></line><line x1="261.25" y1="0" x2="261.25" y2="5" style="visibility: inherit;" fill="rgb(0, 0, 0)" stroke="rgb(204, 204, 204)" stroke-width="1px"></line><line x1="285" y1="0" x2="285" y2="5" style="visibility: inherit;" fill="rgb(0, 0, 0)" stroke="rgb(204, 204, 204)" stroke-width="1px"></line></g><g transform="translate(0, 8)"><text x="0" y="0" dx="0em" dy="0.95em" style="text-anchor: middle; visibility: hidden; font-family: &quot;Helvetica Neue&quot;, sans-serif; font-size: 12px; font-weight: 200;" fill="rgb(50, 49, 63)" stroke="none" stroke-width="1px">-50</text><text x="23.75" y="0" dx="0em" dy="0.95em" style="text-anchor: middle; visibility: hidden; font-family: &quot;Helvetica Neue&quot;, sans-serif; font-size: 12px; font-weight: 200;" fill="rgb(50, 49, 63)" stroke="none" stroke-width="1px">0</text><text x="47.5" y="0" dx="0em" dy="0.95em" style="text-anchor: middle; visibility: hidden; font-family: &quot;Helvetica Neue&quot;, sans-serif; font-size: 12px; font-weight: 200;" fill="rgb(50, 49, 63)" stroke="none" stroke-width="1px">50</text><text x="71.25" y="0" dx="0em" dy="0.95em" style="text-anchor: middle; visibility: hidden; font-family: &quot;Helvetica Neue&quot;, sans-serif; font-size: 12px; font-weight: 200;" fill="rgb(50, 49, 63)" stroke="none" stroke-width="1px">100</text><text x="95" y="0" dx="0em" dy="0.95em" style="text-anchor: middle; visibility: hidden; font-family: &quot;Helvetica Neue&quot;, sans-serif; font-size: 12px; font-weight: 200;" fill="rgb(50, 49, 63)" stroke="none" stroke-width="1px">150</text><text x="118.75" y="0" dx="0em" dy="0.95em" style="text-anchor: middle; visibility: hidden; font-family: &quot;Helvetica Neue&quot;, sans-serif; font-size: 12px; font-weight: 200;" fill="rgb(50, 49, 63)" stroke="none" stroke-width="1px">200</text><text x="142.5" y="0" dx="0em" dy="0.95em" style="text-anchor: middle; visibility: hidden; font-family: &quot;Helvetica Neue&quot;, sans-serif; font-size: 12px; font-weight: 200;" fill="rgb(50, 49, 63)" stroke="none" stroke-width="1px">250</text><text x="166.25" y="0" dx="0em" dy="0.95em" style="text-anchor: middle; visibility: hidden; font-family: &quot;Helvetica Neue&quot;, sans-serif; font-size: 12px; font-weight: 200;" fill="rgb(50, 49, 63)" stroke="none" stroke-width="1px">300</text><text x="190" y="0" dx="0em" dy="0.95em" style="text-anchor: middle; visibility: hidden; font-family: &quot;Helvetica Neue&quot;, sans-serif; font-size: 12px; font-weight: 200;" fill="rgb(50, 49, 63)" stroke="none" stroke-width="1px">350</text><text x="213.75" y="0" dx="0em" dy="0.95em" style="text-anchor: middle; visibility: hidden; font-family: &quot;Helvetica Neue&quot;, sans-serif; font-size: 12px; font-weight: 200;" fill="rgb(50, 49, 63)" stroke="none" stroke-width="1px">400</text><text x="237.5" y="0" dx="0em" dy="0.95em" style="text-anchor: middle; visibility: hidden; font-family: &quot;Helvetica Neue&quot;, sans-serif; font-size: 12px; font-weight: 200;" fill="rgb(50, 49, 63)" stroke="none" stroke-width="1px">450</text><text x="261.25" y="0" dx="0em" dy="0.95em" style="text-anchor: middle; visibility: hidden; font-family: &quot;Helvetica Neue&quot;, sans-serif; font-size: 12px; font-weight: 200;" fill="rgb(50, 49, 63)" stroke="none" stroke-width="1px">500</text><text x="285" y="0" dx="0em" dy="0.95em" style="text-anchor: middle; visibility: hidden; font-family: &quot;Helvetica Neue&quot;, sans-serif; font-size: 12px; font-weight: 200;" fill="rgb(50, 49, 63)" stroke="none" stroke-width="1px">550</text></g><line x1="0" y1="0" x2="285" y2="0" fill="rgb(0, 0, 0)" stroke="rgb(204, 204, 204)" stroke-width="1px"></line></g></g></g></g></svg>